<svg xmlns="http://www.w3.org/2000/svg" xmlns:xlink="http://www.w3.org/1999/xlink" viewBox="0 0 472.8 493.97"><defs><style>.cls-1,.cls-30,.cls-31{fill:none;}.cls-2{isolation:isolate;}.cls-3{clip-path:url(#clip-path);}.cls-4{fill:#2e576d;}.cls-5{fill:#f1c9a5;}.cls-6{fill:#e4b692;}.cls-7{fill:#ddac8c;opacity:0.1;mix-blend-mode:multiply;}.cls-8{fill:#fa582a;}.cls-9{clip-path:url(#clip-path-2);}.cls-10{fill:#ec9a1c;}.cls-11{fill:#102f41;}.cls-12{clip-path:url(#clip-path-3);}.cls-13{fill:#471b18;}.cls-14{fill:#fff;}.cls-15{fill:#fe393e;}.cls-16{clip-path:url(#clip-path-4);}.cls-17{fill:#2e5870;}.cls-18{fill:#11b2bc;}.cls-19{fill:#1695a6;}.cls-20{clip-path:url(#clip-path-5);}.cls-21{fill:#0d313d;}.cls-22{fill:#f1f2f2;}.cls-23{fill:#2b5770;}.cls-24{fill:#262421;}.cls-25{clip-path:url(#clip-path-6);}.cls-26{fill:#fb6020;}.cls-27{clip-path:url(#clip-path-7);}.cls-28{fill:#583a2f;}.cls-29{fill:#c51c39;}.cls-30,.cls-31{stroke:#fff;stroke-linecap:round;stroke-linejoin:round;stroke-width:1.35px;}.cls-31{stroke-dasharray:0.05 1.81;}.cls-32{clip-path:url(#clip-path-8);}.cls-33{fill:#0f303f;}.cls-34{fill:#f3641e;}.cls-35{fill:#1594a3;}.cls-36{clip-path:url(#clip-path-9);}.cls-37{fill:#303030;}.cls-38{fill:#e53d0c;opacity:0.2;}.cls-39{fill:#27aae1;}</style><clipPath id="clip-path" transform="translate(-166.04 -168.53)"><circle class="cls-1" cx="204.99" cy="205.79" r="68.29"/></clipPath><clipPath id="clip-path-2" transform="translate(-166.04 -168.53)"><circle class="cls-1" cx="400.13" cy="400" r="68.29"/></clipPath><clipPath id="clip-path-3" transform="translate(-166.04 -168.53)"><circle class="cls-1" cx="204.99" cy="400" r="68.29"/></clipPath><clipPath id="clip-path-4" transform="translate(-166.04 -168.53)"><circle class="cls-1" cx="400.13" cy="205.79" r="68.29"/></clipPath><clipPath id="clip-path-5" transform="translate(-166.04 -168.53)"><circle class="cls-1" cx="595.28" cy="205.79" r="68.29"/></clipPath><clipPath id="clip-path-6" transform="translate(-166.04 -168.53)"><circle class="cls-1" cx="400.13" cy="594.21" r="68.29"/></clipPath><clipPath id="clip-path-7" transform="translate(-166.04 -168.53)"><circle class="cls-1" cx="595.28" cy="400" r="68.29"/></clipPath><clipPath id="clip-path-8" transform="translate(-166.04 -168.53)"><circle class="cls-1" cx="592.38" cy="594.21" r="68.29"/></clipPath><clipPath id="clip-path-9" transform="translate(-166.04 -168.53)"><circle class="cls-1" cx="204.72" cy="594.21" r="68.29"/></clipPath></defs><title>avatars</title><g class="cls-2"><g id="Objects"><g class="cls-3"><path class="cls-4" d="M179.38,208.31c0,11.14-6.11,11.43-5.68,18.8,0.48,8.17,6.87,8.19,6.87,13.8s-5.87,11.91-.67,18H205V190.75Z" transform="translate(-166.04 -168.53)"/><path class="cls-4" d="M230.61,207.94c0,11.14,6.11,11.43,5.68,18.8-0.48,8.17-6.87,8.19-6.87,13.8s5.87,11.91.67,18H205V190.38Z" transform="translate(-166.04 -168.53)"/><ellipse class="cls-4" cx="38.95" cy="28.14" rx="27.96" ry="28.14"/><path class="cls-5" d="M237.7,247.83c-4.4-8.33-32.71-13.56-32.71-13.56s-28.3,5.23-32.71,13.56c-3.25,11.56-6,26.26-6,26.26h77.36S241.84,258.33,237.7,247.83Z" transform="translate(-166.04 -168.53)"/><path class="cls-6" d="M205,234.26s28.3,5.23,32.71,13.56c4.14,10.5,6,26.26,6,26.26H205V234.26Z" transform="translate(-166.04 -168.53)"/><rect class="cls-5" x="31.25" y="48.79" width="15.41" height="25.79"/><rect class="cls-6" x="38.95" y="48.79" width="7.71" height="25.79"/><path class="cls-7" d="M197.29,229.27c1.39,4,7,6.26,11.09,6.26a13.84,13.84,0,0,0,4.32-.7v-17.5H197.29v12Z" transform="translate(-166.04 -168.53)"/><path class="cls-5" d="M224.8,201c0-16.11-8.87-25.27-19.81-25.27s-19.81,9.16-19.81,25.27,8.87,29.17,19.81,29.17S224.8,217.16,224.8,201Z" transform="translate(-166.04 -168.53)"/><path class="cls-6" d="M221.79,212.22c-3.59-.4-6-4.51-5.41-9.18s4-8.14,7.6-7.74,6,4.51,5.4,9.18S225.38,212.61,221.79,212.22Z" transform="translate(-166.04 -168.53)"/><path class="cls-5" d="M180.74,204.47c-0.61-4.67,1.82-8.78,5.4-9.18s7,3.07,7.6,7.74-1.82,8.78-5.41,9.18S181.35,209.15,180.74,204.47Z" transform="translate(-166.04 -168.53)"/><path class="cls-6" d="M224.8,201c0-16.11-8.87-25.27-19.81-25.27v54.44C215.93,230.22,224.8,217.16,224.8,201Z" transform="translate(-166.04 -168.53)"/><path class="cls-4" d="M226.44,199.23s0-.09,0-0.14c0-12.5-8.46-25.68-20.3-25.68s-22.58,13.19-22.58,25.68c0,0,0,.09,0,0.14h42.87Z" transform="translate(-166.04 -168.53)"/><path class="cls-8" d="M243.67,274.09s-1.84-15.76-6-26.26c-2.41-4.57-12-8.2-20.2-10.56L205,247.11l-13-9.68c-8.05,2.36-17.27,5.93-19.63,10.39-3.25,11.56-6,26.26-6,26.26h77.36Z" transform="translate(-166.04 -168.53)"/></g><g class="cls-9"><ellipse class="cls-10" cx="234.1" cy="222.35" rx="27.96" ry="28.14"/><path class="cls-5" d="M432.84,442c-4.4-8.33-32.71-13.56-32.71-13.56s-28.3,5.23-32.71,13.56c-3.25,11.56-6,26.26-6,26.26h77.36S437,452.54,432.84,442Z" transform="translate(-166.04 -168.53)"/><path class="cls-6" d="M400.14,428.47s28.3,5.23,32.71,13.56c4.14,10.5,6,26.26,6,26.26H400.14V428.47Z" transform="translate(-166.04 -168.53)"/><rect class="cls-5" x="226.39" y="243" width="15.41" height="25.79"/><rect class="cls-6" x="234.1" y="243" width="7.71" height="25.79"/><path class="cls-7" d="M392.43,423.48c1.39,4,7,6.26,11.09,6.26a13.84,13.84,0,0,0,4.32-.7v-17.5H392.43v12Z" transform="translate(-166.04 -168.53)"/><path class="cls-5" d="M419.95,395.26c0-16.11-8.87-25.27-19.81-25.27s-19.81,9.16-19.81,25.27,8.87,29.17,19.81,29.17S419.95,411.36,419.95,395.26Z" transform="translate(-166.04 -168.53)"/><path class="cls-6" d="M416.93,406.42c-3.59-.4-6-4.51-5.41-9.18s4-8.14,7.6-7.74,6,4.51,5.4,9.18S420.52,406.82,416.93,406.42Z" transform="translate(-166.04 -168.53)"/><path class="cls-5" d="M375.89,398.68c-0.61-4.67,1.82-8.78,5.4-9.18s7,3.07,7.6,7.74-1.82,8.78-5.41,9.18S376.49,403.35,375.89,398.68Z" transform="translate(-166.04 -168.53)"/><path class="cls-6" d="M419.95,395.26c0-16.11-8.87-25.27-19.81-25.27v54.44C411.08,424.42,419.95,411.36,419.95,395.26Z" transform="translate(-166.04 -168.53)"/><path class="cls-11" d="M432.84,442c-1.48-2.8-5.65-5.24-10.53-7.26a22.84,22.84,0,0,1-44.34,0c-4.89,2-9.06,4.46-10.53,7.26-3.25,11.56-6,26.26-6,26.26h77.36S437,452.54,432.84,442Z" transform="translate(-166.04 -168.53)"/><path class="cls-10" d="M400.14,367.27s-27,2-22,25.4c0,0,25.52-4.69,29.53-14.51,4,9.82,14.5,14.51,14.5,14.51C427.18,369.32,400.14,367.27,400.14,367.27Z" transform="translate(-166.04 -168.53)"/><path class="cls-10" d="M378.29,405.39s-9.6,1.37-16.19,14.13a38.16,38.16,0,0,0,9.05,1.92c1.24,3.84,5.49,5.21,5.49,5.21s6.9-6.5,5.39-15.83" transform="translate(-166.04 -168.53)"/><path class="cls-10" d="M422,405.39s9.6,1.37,16.19,14.13a38.16,38.16,0,0,1-9.05,1.92c-1.24,3.84-5.49,5.21-5.49,5.21s-6.9-6.5-5.39-15.83" transform="translate(-166.04 -168.53)"/></g><g class="cls-12"><path class="cls-13" d="M206,362.87s-9.56-2.25-17.7,3.93-3.82,15-11.69,22-6.74,13.35-2.39,21.07-5.49,11.34-2.71,20.77c2.69,9.14,12.27,13.81,12.27,13.81h42.85s13.82-10.22,14.52-17.66-7.07-11.15-4.82-16.35a16.86,16.86,0,0,0-2.76-18.19c-6.37-7-1.44-8.49-6.24-18.2C221.75,362.85,213.68,360.42,206,362.87Z" transform="translate(-166.04 -168.53)"/><path class="cls-5" d="M237.7,442C233.3,433.7,205,428.47,205,428.47s-28.3,5.23-32.71,13.56c-3.25,11.56-6,26.26-6,26.26h77.36S241.84,452.54,237.7,442Z" transform="translate(-166.04 -168.53)"/><path class="cls-6" d="M205,428.47S233.3,433.7,237.7,442c4.14,10.5,6,26.26,6,26.26H205V428.47Z" transform="translate(-166.04 -168.53)"/><rect class="cls-5" x="31.25" y="243" width="15.41" height="25.79"/><rect class="cls-6" x="38.95" y="243" width="7.7" height="25.79"/><path class="cls-7" d="M197.29,423.48c1.39,4,7,6.26,11.09,6.26a13.83,13.83,0,0,0,4.32-.7v-17.5H197.29v12Z" transform="translate(-166.04 -168.53)"/><path class="cls-5" d="M224.81,395.26c0-16.11-8.87-25.27-19.81-25.27s-19.81,9.16-19.81,25.27,8.87,29.17,19.81,29.17S224.81,411.36,224.81,395.26Z" transform="translate(-166.04 -168.53)"/><path class="cls-6" d="M221.79,406.42c-3.59-.4-6-4.51-5.41-9.18s4-8.14,7.6-7.74,6,4.51,5.4,9.18S225.38,406.82,221.79,406.42Z" transform="translate(-166.04 -168.53)"/><path class="cls-5" d="M180.74,398.68c-0.61-4.67,1.82-8.78,5.4-9.18s7,3.07,7.6,7.74-1.82,8.78-5.41,9.18S181.35,403.35,180.74,398.68Z" transform="translate(-166.04 -168.53)"/><path class="cls-6" d="M224.81,395.26c0-16.11-8.87-25.27-19.81-25.27v54.44C215.93,424.42,224.81,411.36,224.81,395.26Z" transform="translate(-166.04 -168.53)"/><polygon class="cls-14" points="14.9 299.76 38.95 299.76 62.9 299.76 62.9 273.75 14.9 273.75 14.9 299.76"/><path class="cls-15" d="M200.34,468.29l-4.48-37.74c-10,1.57-21.36,7.28-23.58,11.49-3.25,11.56-6,26.26-6,26.26h34Z" transform="translate(-166.04 -168.53)"/><path class="cls-15" d="M211.55,468.29h32.13s-1.84-15.76-6-26.26c-3.61-6.43-17.89-9.92-22.86-11.38Z" transform="translate(-166.04 -168.53)"/><path class="cls-13" d="M204.94,378.58s-4.27,9.21-10.28,12.11c-9.48,4.57-1.25,11.54-2.36,20.84-1,8.39-10.74,12.22-5.06,21.24-9.88,1.95-9.41-3-9.41-3s-0.94-25.91-1.18-26.51,5.66-16.63,5.66-16.63l8.48-18.16L206,365.37Z" transform="translate(-166.04 -168.53)"/><path class="cls-13" d="M204.94,378.58s0.48,7.23,7.75,7.86,8.22,6,6.81,10.76-2,7.48,1.89,11.25-0.47,18.35-.47,18.35l14.47-6.88s-3.09-11.7-1.42-18.22-5.82-11.16-7.71-15.88-11.36-21.74-19-20.44-6.9,9.44-6.9,9.44Z" transform="translate(-166.04 -168.53)"/></g><g class="cls-16"><path class="cls-5" d="M432.84,247.83c-4.4-8.33-32.71-13.56-32.71-13.56s-28.3,5.23-32.71,13.56c-3.25,11.56-6,26.26-6,26.26h77.36S437,258.33,432.84,247.83Z" transform="translate(-166.04 -168.53)"/><path class="cls-6" d="M400.14,234.26s28.3,5.23,32.71,13.56c4.14,10.5,6,26.26,6,26.26H400.14V234.26Z" transform="translate(-166.04 -168.53)"/><rect class="cls-5" x="226.39" y="48.79" width="15.41" height="25.79"/><rect class="cls-6" x="234.1" y="48.79" width="7.71" height="25.79"/><path class="cls-7" d="M392.43,229.27c1.39,4,7,6.26,11.09,6.26a13.84,13.84,0,0,0,4.32-.7v-17.5H392.43v12Z" transform="translate(-166.04 -168.53)"/><path class="cls-5" d="M419.95,201c0-16.11-8.87-25.27-19.81-25.27s-19.81,9.16-19.81,25.27c0,21.67,8.87,29.17,19.81,29.17S419.95,221.81,419.95,201Z" transform="translate(-166.04 -168.53)"/><path class="cls-6" d="M416.93,212.22c-3.59-.38-6-4.25-5.41-8.64s4-7.66,7.6-7.29,6,4.24,5.4,8.64S420.52,212.59,416.93,212.22Z" transform="translate(-166.04 -168.53)"/><path class="cls-5" d="M375.89,204.93c-0.61-4.4,1.82-8.26,5.4-8.64s7,2.89,7.6,7.29-1.82,8.26-5.41,8.64S376.49,209.33,375.89,204.93Z" transform="translate(-166.04 -168.53)"/><path class="cls-6" d="M419.95,201c0-16.11-8.87-25.27-19.81-25.27v54.44C411.08,230.22,419.95,221.81,419.95,201Z" transform="translate(-166.04 -168.53)"/><path class="cls-17" d="M418,214.55c-1.07,3-2.87,6.6-6.13,6.6-4.07,0-7-3.31-11.66-3.31H400.1c-4.67,0-7.58,3.31-11.65,3.31-3.26,0-5.06-3.6-6.13-6.6l-0.92-5.77v6.91s1.55,8.13,4.52,10.1c2.42,2.15,10.32,5.83,14.18,5.83h0.08c3.86,0,11.76-3.68,14.18-5.83,3-2,4.52-10.1,4.52-10.1v-6.91Z" transform="translate(-166.04 -168.53)"/><path class="cls-18" d="M432.84,247.83c-2.57-4.87-13.29-8.67-21.76-11a11,11,0,0,1-21.89,0c-8.48,2.33-19.19,6.13-21.76,11-3.25,11.56-6,26.26-6,26.26h77.36S437,258.33,432.84,247.83Z" transform="translate(-166.04 -168.53)"/><path class="cls-19" d="M362.28,269.84c-0.52,2.61-.83,4.25-0.83,4.25h77.36s-0.19-1.66-.6-4.25H362.28Z" transform="translate(-166.04 -168.53)"/><path class="cls-19" d="M363.16,265.6h74.35c-0.24-1.33-.52-2.76-0.83-4.25h-72.6C363.75,262.84,363.44,264.27,363.16,265.6Z" transform="translate(-166.04 -168.53)"/><path class="cls-19" d="M365.05,257.1h70.65c-0.35-1.42-.74-2.85-1.15-4.25H366.09C365.73,254.28,365.39,255.7,365.05,257.1Z" transform="translate(-166.04 -168.53)"/><path class="cls-19" d="M400.14,247.17a10.9,10.9,0,0,1-7.3-2.8H370.75a10.69,10.69,0,0,0-3.32,3.46l-0.22.79h65.93l-0.3-.79a10.69,10.69,0,0,0-3.32-3.46H407.44A10.9,10.9,0,0,1,400.14,247.17Z" transform="translate(-166.04 -168.53)"/><path class="cls-19" d="M379.08,240.12H389.9a10.92,10.92,0,0,1-.71-3.29A103.12,103.12,0,0,0,379.08,240.12Z" transform="translate(-166.04 -168.53)"/><path class="cls-19" d="M410.37,240.12h10.83a103.11,103.11,0,0,0-10.11-3.29A10.92,10.92,0,0,1,410.37,240.12Z" transform="translate(-166.04 -168.53)"/><path class="cls-19" d="M386,237.76a14.34,14.34,0,0,0,28.33,0c-1.1-.33-2.18-0.64-3.22-0.93a11,11,0,0,1-21.89,0C388.14,237.12,387.06,237.43,386,237.76Z" transform="translate(-166.04 -168.53)"/><path class="cls-17" d="M379.32,199.35s20.14-3.82,30.72-12.77c3,6.78,4.81,14.13,9.69,14.13,2.44-13.56-4.07-25.16-16.81-25.16S379.6,182,379.32,199.35Z" transform="translate(-166.04 -168.53)"/></g><g class="cls-20"><path class="cls-5" d="M628,247.83c-4.4-8.33-32.71-13.56-32.71-13.56s-28.3,5.23-32.71,13.56c-3.25,11.56-6,26.26-6,26.26H634S632.12,258.33,628,247.83Z" transform="translate(-166.04 -168.53)"/><path class="cls-6" d="M595.28,234.26s28.3,5.23,32.71,13.56c4.14,10.5,6,26.26,6,26.26H595.28V234.26Z" transform="translate(-166.04 -168.53)"/><rect class="cls-5" x="421.53" y="48.79" width="15.41" height="25.79"/><rect class="cls-6" x="429.24" y="48.79" width="7.71" height="25.79"/><path class="cls-7" d="M587.57,229.27c1.39,4,7,6.26,11.09,6.26a13.84,13.84,0,0,0,4.32-.7v-17.5H587.57v12Z" transform="translate(-166.04 -168.53)"/><path class="cls-5" d="M615.09,201c0-16.11-8.87-25.27-19.81-25.27s-19.81,9.16-19.81,25.27c0,21.67,8.87,29.17,19.81,29.17S615.09,221.81,615.09,201Z" transform="translate(-166.04 -168.53)"/><path class="cls-6" d="M612.08,212.22c-3.59-.38-6-4.25-5.41-8.64s4-7.66,7.6-7.29,6,4.24,5.4,8.64S615.67,212.59,612.08,212.22Z" transform="translate(-166.04 -168.53)"/><path class="cls-5" d="M571,204.93c-0.61-4.4,1.82-8.26,5.4-8.64s7,2.89,7.6,7.29-1.82,8.26-5.41,8.64S571.63,209.33,571,204.93Z" transform="translate(-166.04 -168.53)"/><path class="cls-6" d="M615.09,201c0-16.11-8.87-25.27-19.81-25.27v54.44C606.22,230.22,615.09,221.81,615.09,201Z" transform="translate(-166.04 -168.53)"/><path class="cls-21" d="M628,247.83c-2.57-4.87-13.29-8.67-21.76-11l-10.94,37.26-10.94-37.26c-8.48,2.33-19.19,6.13-21.76,11-3.25,11.56-6,26.26-6,26.26H634S632.12,258.33,628,247.83Z" transform="translate(-166.04 -168.53)"/><polygon class="cls-22" points="417.94 68.3 429.24 105.55 440.23 68.3 429.24 80.81 417.94 68.3"/><polygon class="cls-23" points="429.24 105.55 445.96 86.92 440.23 84.75 450.21 71.19 440.51 68.3 429.24 105.55"/><polygon class="cls-23" points="429.24 105.55 412.51 86.92 418.25 84.75 408.27 71.19 417.97 68.3 429.24 105.55"/><path class="cls-14" d="M581.1,252l8.56-8,5.6,5.33L587.57,236l-4.7.36C582.54,241.54,581.1,252,581.1,252Z" transform="translate(-166.04 -168.53)"/><path class="cls-14" d="M609.43,252l-8.56-8-5.6,5.33L603,236l4.7,0.36C608,241.54,609.43,252,609.43,252Z" transform="translate(-166.04 -168.53)"/><path class="cls-24" d="M617,197.42s-3.53-2.67-5,5.16c0.49-7.35.13-17.49-5.83-19.35-3.31,6-16.43,9.81-25,7.69,0.66,6.76-1.32,12.33-3.58,13.78,0.13-5.43.13-8.75-3.32-7.69-0.93-11.4,5.32-25.84,22.15-25.84S618.75,182.57,617,197.42Z" transform="translate(-166.04 -168.53)"/></g><g class="cls-25"><path class="cls-5" d="M432.84,636.24c-4.4-8.33-32.71-13.56-32.71-13.56s-28.3,5.23-32.71,13.56c-3.25,11.56-6,26.26-6,26.26h77.36S437,646.74,432.84,636.24Z" transform="translate(-166.04 -168.53)"/><path class="cls-6" d="M400.14,622.68s28.3,5.23,32.71,13.56c4.14,10.5,6,26.26,6,26.26H400.14V622.68Z" transform="translate(-166.04 -168.53)"/><rect class="cls-5" x="226.39" y="437.2" width="15.41" height="25.79"/><rect class="cls-6" x="234.1" y="437.2" width="7.71" height="25.79"/><path class="cls-7" d="M392.43,617.69c1.39,4,7,6.26,11.09,6.26a13.84,13.84,0,0,0,4.32-.7v-17.5H392.43v12Z" transform="translate(-166.04 -168.53)"/><path class="cls-5" d="M419.95,589.46c0-16.11-8.87-25.27-19.81-25.27s-19.81,9.16-19.81,25.27c0,21.67,8.87,29.17,19.81,29.17S419.95,610.23,419.95,589.46Z" transform="translate(-166.04 -168.53)"/><path class="cls-6" d="M416.93,600.63c-3.59-.38-6-4.25-5.41-8.64s4-7.66,7.6-7.29,6,4.24,5.4,8.64S420.52,601,416.93,600.63Z" transform="translate(-166.04 -168.53)"/><path class="cls-5" d="M375.89,593.35c-0.61-4.4,1.82-8.26,5.4-8.64s7,2.89,7.6,7.29-1.82,8.26-5.41,8.64S376.49,597.74,375.89,593.35Z" transform="translate(-166.04 -168.53)"/><path class="cls-6" d="M419.95,589.46c0-16.11-8.87-25.27-19.81-25.27v54.44C411.08,618.63,419.95,610.23,419.95,589.46Z" transform="translate(-166.04 -168.53)"/><path class="cls-26" d="M432.84,636.24c-2.57-4.87-13.29-8.67-21.76-11l-10.94,12.51-10.94-12.51c-8.48,2.33-19.19,6.13-21.76,11-3.25,11.56-6,26.26-6,26.26h77.36S437,646.74,432.84,636.24Z" transform="translate(-166.04 -168.53)"/><path class="cls-24" d="M383.51,597.17s14-9.55,15.64-14.82c-0.16,4.78,0,9.06,0,9.06s13.67-13.5,12.35-24.53c-15.48-8.23-27.5,1.32-30.3,5.76S377.75,589.43,383.51,597.17Z" transform="translate(-166.04 -168.53)"/><path class="cls-24" d="M409.53,571.32s6.42,7.74,7.74,23.22c4.61-6.75,9.55-26.35-5.76-27.66A32.08,32.08,0,0,0,409.53,571.32Z" transform="translate(-166.04 -168.53)"/><path class="cls-14" d="M414.29,640.38l-8.56-8-5.6,5.33,9.31-13.29a5.21,5.21,0,0,1,4.11,3.64C413.88,633.3,414.29,640.38,414.29,640.38Z" transform="translate(-166.04 -168.53)"/><polygon class="cls-26" points="231.07 493.97 234.09 493.97 234.09 469.22 231.07 466.35 231.07 493.97"/><path class="cls-14" d="M386,640.38l8.56-8,5.6,5.33-9.31-13.29a5.21,5.21,0,0,0-4.11,3.64C386.36,633.3,386,640.38,386,640.38Z" transform="translate(-166.04 -168.53)"/></g><g class="cls-27"><path class="cls-28" d="M623.38,391.56c0-15.77-12.78-32.4-28.54-32.4s-28.54,16.63-28.54,32.4A28.54,28.54,0,1,0,623.38,391.56Z" transform="translate(-166.04 -168.53)"/><path class="cls-28" d="M578.85,452.33h36.24s3.7-39.48,3.23-55.12S602.91,372,589.54,372,562.34,432.29,578.85,452.33Z" transform="translate(-166.04 -168.53)"/><path class="cls-5" d="M628,442c-2.91-5.51-16.28-9.67-25-11.85V411.53H587.57v18.66c-8.72,2.18-22.09,6.33-25,11.85-3.25,11.56-6,26.26-6,26.26H634S632.12,452.54,628,442Z" transform="translate(-166.04 -168.53)"/><path class="cls-6" d="M628,442c-2.91-5.51-16.28-9.67-25-11.85V411.53h-7.71v56.76H634S632.12,452.54,628,442Z" transform="translate(-166.04 -168.53)"/><path class="cls-7" d="M587.57,423.48c1.39,4,7,6.26,11.09,6.26A13.84,13.84,0,0,0,603,429v-17.5H587.57v12Z" transform="translate(-166.04 -168.53)"/><path class="cls-5" d="M615.09,395.26c0-16.11-8.87-25.27-19.81-25.27s-19.81,9.16-19.81,25.27,8.87,29.17,19.81,29.17S615.09,411.36,615.09,395.26Z" transform="translate(-166.04 -168.53)"/><path class="cls-6" d="M612.08,406.43c-3.59-.35-6-3.91-5.41-7.95s4-7,7.6-6.7,6,3.9,5.4,7.95S615.67,406.77,612.08,406.43Z" transform="translate(-166.04 -168.53)"/><path class="cls-5" d="M570.22,399.72c-0.61-4,1.82-7.6,5.4-7.95s7,2.66,7.6,6.7-1.82,7.6-5.41,7.95S570.82,403.77,570.22,399.72Z" transform="translate(-166.04 -168.53)"/><path class="cls-6" d="M615.09,395.26c0-16.11-8.87-25.27-19.81-25.27v54.44C606.22,424.42,615.09,411.36,615.09,395.26Z" transform="translate(-166.04 -168.53)"/><path class="cls-29" d="M603,430.19V426c-2.49.21-5.07,0.33-7.71,0.33s-5.21-.11-7.71-0.33v4.21c-8.72,2.18-22.09,6.33-25,11.85-3.25,11.56-6,26.26-6,26.26H634s-1.84-15.76-6-26.26C625.07,436.52,611.7,432.37,603,430.19Z" transform="translate(-166.04 -168.53)"/><path class="cls-30" d="M585.83,430.46v0" transform="translate(-166.04 -168.53)"/><path class="cls-31" d="M586,432.29a9.45,9.45,0,0,0,18.67-.91" transform="translate(-166.04 -168.53)"/><path class="cls-30" d="M604.73,430.49v0" transform="translate(-166.04 -168.53)"/><path class="cls-28" d="M566.29,391.56s-3.48,57.72-6.07,76.74H580l-4-53.56" transform="translate(-166.04 -168.53)"/><path class="cls-28" d="M623.38,391.56s3.48,57.72,6.07,76.74H609.64l2.62-50.48" transform="translate(-166.04 -168.53)"/><path class="cls-28" d="M596.42,366.76c-11.84,0-22.58,13.19-22.58,25.68,0,0,0,.09,0,0.14H585l1.06-8.34v8.34H597.4v-8.34l2,8.34h7.18v-6.92l1.72,6.92h8.42s0-.09,0-0.14C616.72,379.94,608.26,366.76,596.42,366.76Z" transform="translate(-166.04 -168.53)"/></g><g class="cls-32"><path class="cls-5" d="M625,636.24c-4.4-8.33-32.71-13.56-32.71-13.56s-28.3,5.23-32.71,13.56c-3.25,11.56-6,26.26-6,26.26H631S629.14,646.74,625,636.24Z" transform="translate(-166.04 -168.53)"/><path class="cls-6" d="M592.3,622.68s28.3,5.23,32.71,13.56c4.14,10.5,6,26.26,6,26.26H592.3V622.68Z" transform="translate(-166.04 -168.53)"/><rect class="cls-5" x="418.55" y="437.2" width="15.41" height="25.79"/><rect class="cls-6" x="426.26" y="437.2" width="7.71" height="25.79"/><path class="cls-7" d="M584.6,617.69c1.39,4,7,6.26,11.09,6.26a13.84,13.84,0,0,0,4.32-.7v-17.5H584.6v12Z" transform="translate(-166.04 -168.53)"/><path class="cls-5" d="M612.11,589.46c0-16.11-8.87-25.27-19.81-25.27s-19.81,9.16-19.81,25.27,8.87,29.17,19.81,29.17S612.11,605.57,612.11,589.46Z" transform="translate(-166.04 -168.53)"/><path class="cls-6" d="M609.1,600.63c-3.59-.4-6-4.51-5.41-9.18s4-8.14,7.6-7.74,6,4.51,5.4,9.18S612.69,601,609.1,600.63Z" transform="translate(-166.04 -168.53)"/><path class="cls-5" d="M568.05,592.89c-0.61-4.67,1.82-8.78,5.4-9.18s7,3.07,7.6,7.74-1.82,8.78-5.41,9.18S568.65,597.56,568.05,592.89Z" transform="translate(-166.04 -168.53)"/><path class="cls-6" d="M612.11,589.46c0-16.11-8.87-25.27-19.81-25.27v54.44C603.24,618.63,612.11,605.57,612.11,589.46Z" transform="translate(-166.04 -168.53)"/><path class="cls-33" d="M582.93,611.59s-8.54-7-6.65-16.14,6.65-10.76,6.65-14.87c7.91,9.5,14.87,16.14,27.53,12.66,3.8,2.22-.95,13.61-6.65,19.62C620,604,638.63,571.4,599.7,558.74S549.7,609.69,582.93,611.59Z" transform="translate(-166.04 -168.53)"/><path class="cls-34" d="M592.3,574.18a20.78,20.78,0,0,1,20.45,17.12,20.78,20.78,0,1,0-40.9,0A20.78,20.78,0,0,1,592.3,574.18Z" transform="translate(-166.04 -168.53)"/><path class="cls-8" d="M577.19,626.46c2.77,1.49,9.25,4.58,15.11,4.58,7.71,0,17.78-3.77,17.78-3.77l-1.39-.4c-3.15-1-6.28-1.88-9-2.55-7.66,4.59-15.13.07-15.14,0.07C582.35,625,579.79,625.65,577.19,626.46Z" transform="translate(-166.04 -168.53)"/><path class="cls-35" d="M625,636.24c-1.49-2.82-5.71-5.28-10.65-7.31a22.93,22.93,0,0,1-44.11,0c-4.94,2-9.16,4.49-10.65,7.31-3.25,11.56-6,26.26-6,26.26H631S629.14,646.74,625,636.24Z" transform="translate(-166.04 -168.53)"/><path class="cls-8" d="M637.24,621.32c-4.25-1.51-11,1.79-15.45,1.36-4.85-.47-7.48,2.83-10.47,2.23-5.74-1.15-6.27.93-6.27,0.93s-1.39-2.82,4.35-1.9,10.13-1.82,11.44-3.59c2-2.67,8.61-2,8.61-2l-3.46-4c-2.44-.47-6.05-0.16-8,3.22s-3.77,3.77-9.29,3.14a10.7,10.7,0,0,0-9,3.66l10.42,3a17.18,17.18,0,0,0,4.35.53c2.2-.06,4.5-2.32,9.11-2,4.93,0.37,9.42-2,15.22.15Z" transform="translate(-166.04 -168.53)"/></g><g class="cls-36"><path class="cls-5" d="M237.43,636.24c-4.4-8.33-32.71-13.56-32.71-13.56s-28.3,5.23-32.71,13.56c-3.25,11.56-6,26.26-6,26.26H243.4S241.57,646.74,237.43,636.24Z" transform="translate(-166.04 -168.53)"/><path class="cls-6" d="M204.72,622.68s28.3,5.23,32.71,13.56c4.14,10.5,6,26.26,6,26.26H204.72V622.68Z" transform="translate(-166.04 -168.53)"/><rect class="cls-5" x="30.98" y="437.2" width="15.41" height="25.79"/><rect class="cls-6" x="38.68" y="437.2" width="7.71" height="25.79"/><path class="cls-7" d="M197,617.69c1.39,4,7,6.26,11.09,6.26a13.84,13.84,0,0,0,4.32-.7v-17.5H197v12Z" transform="translate(-166.04 -168.53)"/><path class="cls-5" d="M224.53,589.46c0-16.11-8.87-25.27-19.81-25.27s-19.81,9.16-19.81,25.27c0,21.67,8.87,29.17,19.81,29.17S224.53,610.23,224.53,589.46Z" transform="translate(-166.04 -168.53)"/><path class="cls-6" d="M221.52,600.63c-3.59-.38-6-4.25-5.41-8.64s4-7.66,7.6-7.29,6,4.24,5.4,8.64S225.11,601,221.52,600.63Z" transform="translate(-166.04 -168.53)"/><path class="cls-5" d="M180.47,593.35c-0.61-4.4,1.82-8.26,5.4-8.64s7,2.89,7.6,7.29-1.82,8.26-5.41,8.64S181.08,597.74,180.47,593.35Z" transform="translate(-166.04 -168.53)"/><path class="cls-6" d="M224.53,589.46c0-16.11-8.87-25.27-19.81-25.27v54.44C215.66,618.63,224.53,610.23,224.53,589.46Z" transform="translate(-166.04 -168.53)"/><path class="cls-37" d="M222.54,603c-1.07,3-2.87,6.6-6.13,6.6-4.07,0-7-3.31-11.66-3.31h-0.08c-4.67,0-7.58,3.31-11.65,3.31-3.26,0-5.06-3.6-6.13-6.6L186,597.19v6.91s1.55,8.13,4.52,10.1c2.42,2.15,10.32,5.83,14.18,5.83h0.08c3.86,0,11.76-3.68,14.18-5.83,3-2,4.52-10.1,4.52-10.1v-6.91Z" transform="translate(-166.04 -168.53)"/><path class="cls-37" d="M195.13,567.28s3.68,14.89,24.18,22.43a20.21,20.21,0,0,1-2.28-7.36,35.85,35.85,0,0,0,8.76,6.31c3-6,6.48-14.89-1.4-19.8S197.76,555.18,195.13,567.28Z" transform="translate(-166.04 -168.53)"/><path class="cls-37" d="M188.29,588.48s1.52-17,7.86-20.77c-5.4-2.36-13.64,4.82-12.76,9.2S188.29,588.48,188.29,588.48Z" transform="translate(-166.04 -168.53)"/><path class="cls-35" d="M237.43,636.24c-2.57-4.87-13.29-8.67-21.76-11a11,11,0,0,1-21.89,0c-8.48,2.33-19.19,6.13-21.76,11-3.25,11.56-6,26.26-6,26.26H243.4S241.57,646.74,237.43,636.24Z" transform="translate(-166.04 -168.53)"/><path class="cls-38" d="M193.14,628.07a11.65,11.65,0,0,0,23.16,0c7.77,2,17.3,5.14,21.48,9.1q-0.18-.48-0.36-0.94c-2.57-4.87-13.29-8.67-21.76-11a11,11,0,0,1-21.89,0c-8.48,2.33-19.19,6.13-21.76,11l-0.23.82C176,633.16,185.45,630.07,193.14,628.07Z" transform="translate(-166.04 -168.53)"/><path class="cls-39" d="M190.55,626.17a14.34,14.34,0,0,0,28.33,0c-1.1-.33-2.18-0.64-3.22-0.93a11,11,0,0,1-21.89,0C192.73,625.53,191.65,625.84,190.55,626.17Z" transform="translate(-166.04 -168.53)"/><path class="cls-14" d="M207.95,611.44a3,3,0,0,0-3.22-2.1,3.34,3.34,0,0,0-3.22,2.1h6.45Z" transform="translate(-166.04 -168.53)"/></g></g></g></svg>