	<svg id="aviao" data-name="Layer 1" xmlns="http://www.w3.org/2000/svg" xmlns:xlink="http://www.w3.org/1999/xlink" viewBox="0 0 142.29 47.56">
		<defs>
			<style>
				#aviao .cls-1{fill:#716262;}
				#aviao .cls-2{fill:none;}
				#aviao .cls-3{clip-path:url(#clip-path);}
				#aviao .cls-4{fill:#666;}.cls-5{fill:#fff;}
				#aviao .cls-6{clip-path:url(#clip-path-2);}
				#aviao .cls-7{fill:#d1d1d1;}.cls-8{fill:#4c4242;}
				#aviao .cls-9{fill:#282c33;}
			</style>
			<clipPath id="clip-path" transform="translate(-5.96 -5.31)">
				<path class="cls-1" d="M97.4,36.23s-0.9,5.12-.3,6.57c0,0,9.38,2.31,12.37,1.2,0,0,2.26-5.45.43-8.74C109.89,35.27,101.53,34.36,97.4,36.23Z"/>
			</clipPath>
			<clipPath id="clip-path-2" transform="translate(-5.96 -5.31)">
				<path class="cls-2" d="M19.22,30.12s-6.3-.92-6.29.31a12,12,0,0,1-.16,2.1s17.62,8.32,38,9.16,76.4-2.19,76.4-2.19,13-1.72,12.74-6.12c0,0,.34-2.19-5.28-4.1,0,0-2.42-4.75-9.6-5.38s-81.67,2.26-81.67,2.26-7,.2-9.23-3.85S24,5.34,24,5.34l-5.54,0Z"/>
			</clipPath>
		</defs>
		<title>aviao</title>
		<path class="cls-1" d="M97.4,36.23s-0.9,5.12-.3,6.57c0,0,9.38,2.31,12.37,1.2,0,0,2.26-5.45.43-8.74C109.89,35.27,101.53,34.36,97.4,36.23Z" transform="translate(-5.96 -5.31)"/>
		<path class="cls-1" d="M97.4,36.23s-0.9,5.12-.3,6.57c0,0,9.38,2.31,12.37,1.2,0,0,2.26-5.45.43-8.74C109.89,35.27,101.53,34.36,97.4,36.23Z" transform="translate(-5.96 -5.31)"/>
		<g class="cls-3">
			<polyline class="cls-4" points="90.71 35.04 105.26 35.43 104.55 40.61 89.77 38.95 90.63 35.26"/>
		</g>
		<path class="cls-5" d="M19.22,30.12s-6.3-.92-6.29.31a12,12,0,0,1-.16,2.1s17.62,8.32,38,9.16,76.4-2.19,76.4-2.19,13-1.72,12.74-6.12c0,0,.34-2.19-5.28-4.1,0,0-2.42-4.75-9.6-5.38s-81.67,2.26-81.67,2.26-7,.2-9.23-3.85S24,5.34,24,5.34l-5.54,0Z" transform="translate(-5.96 -5.31)"/>
		<g class="cls-6">
			<polygon class="cls-7" points="6.29 28.2 138.42 27.46 142.29 44.93 0 47.56 6.29 28.2"/>
		</g>
		<path class="cls-8" d="M42.14,30.82" transform="translate(-5.96 -5.31)"/>
		<path class="cls-8" d="M116.93,28.25" transform="translate(-5.96 -5.31)"/>
		<polygon class="cls-9" points="122.43 21.92 122.35 23.71 124.15 23.75 124.17 21.71 122.43 21.92"/>
		<path class="cls-9" d="M130.63,27.21l0.07,1.8,2.56-.14S132,27,130.63,27.21Z" transform="translate(-5.96 -5.31)"/><path class="cls-9" d="M133.91,29.2l-1.09-1.65a3.29,3.29,0,0,1,2.1,1.85Z" transform="translate(-5.96 -5.31)"/>
		<rect class="cls-9" x="115.76" y="28.37" width="1.01" height="0.94" transform="translate(78.13 138.92) rotate(-88.35)"/>
		<rect class="cls-9" x="111.8" y="28.58" width="1.01" height="0.94" transform="translate(74 135.15) rotate(-88.31)"/>
		<rect class="cls-9" x="107.76" y="28.65" width="1.01" height="0.94" transform="translate(70.09 131.2) rotate(-88.35)"/>
		<rect class="cls-9" x="103.8" y="28.86" width="1.01" height="0.94" transform="translate(66.03 127.45) rotate(-88.35)"/>
		<rect class="cls-9" x="100.02" y="29.01" width="1.01" height="0.94" transform="translate(62.13 123.79) rotate(-88.31)"/>
		<rect class="cls-9" x="96.06" y="29.23" width="1.01" height="0.94" transform="translate(58.13 120.06) rotate(-88.35)"/>
		<rect class="cls-9" x="92.02" y="29.29" width="1.01" height="0.94" transform="translate(54.15 116.09) rotate(-88.35)"/>
		<rect class="cls-9" x="88.06" y="29.51" width="1.01" height="0.94" transform="translate(50.09 112.33) rotate(-88.35)"/>
		<rect class="cls-9" x="82.76" y="29.65" width="1.01" height="0.94" transform="translate(44.81 107.17) rotate(-88.35)"/>
		<rect class="cls-9" x="78.8" y="29.86" width="1.01" height="0.94" transform="translate(40.69 103.4) rotate(-88.31)"/>
		<rect class="cls-9" x="76.86" y="30.02" width="1.01" height="0.94" transform="translate(38.65 101.62) rotate(-88.31)"/>
		<rect class="cls-9" x="74.76" y="29.92" width="1.01" height="0.94" transform="translate(36.76 99.45) rotate(-88.35)"/>
		<rect class="cls-9" x="72.83" y="30.09" width="1.01" height="0.94" transform="translate(34.68 97.65) rotate(-88.31)"/>
		<rect class="cls-9" x="70.8" y="30.14" width="1.01" height="0.94" transform="translate(32.65 95.68) rotate(-88.31)"/>
		<rect class="cls-9" x="68.87" y="30.3" width="1.01" height="0.94" transform="translate(30.66 93.92) rotate(-88.35)"/>
		<rect class="cls-9" x="67.02" y="30.29" width="1.01" height="0.94" transform="translate(28.87 92.06) rotate(-88.35)"/>
		<rect class="cls-9" x="65.08" y="30.45" width="1.01" height="0.94" transform="translate(26.79 90.27) rotate(-88.31)"/>
		<rect class="cls-9" x="61.12" y="30.67" width="1.01" height="0.94" transform="translate(22.8 86.55) rotate(-88.38)"/>
		<rect class="cls-9" x="57.08" y="30.73" width="1.01" height="0.94" transform="translate(18.78 82.56) rotate(-88.35)"/>
		<rect class="cls-9" x="53.12" y="30.95" width="1.01" height="0.94" transform="translate(14.72 78.81) rotate(-88.35)"/>
		<rect class="cls-9" x="49.89" y="31.1" width="1.01" height="0.94" transform="translate(11.39 75.71) rotate(-88.31)"/>
		<rect class="cls-9" x="45.93" y="31.32" width="1.01" height="0.94" transform="translate(7.36 71.98) rotate(-88.35)"/>
		<rect class="cls-9" x="41.9" y="31.38" width="1.01" height="0.94" transform="translate(3.36 67.99) rotate(-88.31)"/>
		<path class="cls-4" d="M94.24,38S54.07,16.3,51.79,15.78s-7.07-1.13-6-.2S70.52,33.07,71,34.77,71.26,38,72.37,38.3,90.79,39.82,94.24,38Z" transform="translate(-5.96 -5.31)"/>
		<polygon class="cls-4" points="22.49 27.2 19.03 28.63 2.29 21.71 6.38 21.29 22.49 27.2"/>
		<path class="cls-5" d="M90.2,35.51s-0.9,5.12-.3,6.57c0,0,9.38,2.31,12.37,1.2,0,0,2.26-5.45.43-8.74C102.7,34.55,94.34,33.64,90.2,35.51Z" transform="translate(-5.96 -5.31)"/>
	</svg>