<svg id="Layer_1" data-name="Layer 1" xmlns="http://www.w3.org/2000/svg" viewBox="0 0 700 300"><defs><style>.cls-1{fill:#fff;}.cls-2{fill:#c75c5c;}.cls-3{fill:#e0e0d1;}</style></defs><title>calendario</title><g id="Layer_1-2" data-name="Layer 1"><path class="cls-1" d="M294.09,130.43v69.89a11.18,11.18,0,0,0,11.18,11.18h89.45a11.18,11.18,0,0,0,11.18-11.18V130.43H294.09Z"/><path class="cls-2" d="M394.73,99.68H305.27a11.18,11.18,0,0,0-11.18,11.18v19.57H405.91V110.86A11.18,11.18,0,0,0,394.73,99.68Z"/><path class="cls-3" d="M316.45,119.25a5.59,5.59,0,0,1-5.59-5.59V94.09a5.59,5.59,0,0,1,5.59-5.59h0A5.59,5.59,0,0,1,322,94.09v19.57a5.59,5.59,0,0,1-5.59,5.59h0Z"/><path class="cls-3" d="M386.34,119.25a5.59,5.59,0,0,1-5.59-5.59V94.09a5.59,5.59,0,0,1,5.59-5.59h0a5.59,5.59,0,0,1,5.59,5.59v19.57a5.59,5.59,0,0,1-5.59,5.59h0Z"/></g></svg>