<svg id="Layer_1" data-name="Layer 1" xmlns="http://www.w3.org/2000/svg" viewBox="0 0 276.05 82.06"><defs><style>.cls-1{fill:#363636;}.cls-2{fill:#a52b31;}.cls-3{fill:#f9f384;}.cls-4{fill:#b5d0e0;}.cls-5{fill:#5d5b5b;}.cls-6{fill:#6e1e1f;}</style></defs><title>carro_5</title><path class="cls-1" d="M243,168.79c0-1.14-1.08-.79-2.22-0.79H218.15c-1.14,0-2.06.29-2.06,1.43l2.06,3.93c0.62,1.26.92,1.64,2.06,1.64h20.57a2,2,0,0,0,2.22-1.86v-4.34Z" transform="translate(-214.75 -108.67)"/><path class="cls-2" d="M399.2,129.93s36.94,1,49.21,2.06c14.57,1.2,42.39,8,42.39,19.46,0,16.54-12.39,28.38-22.16,28.38-60.09,0-227.69-.51-227.69-0.51s-7.83-2.42-11.5-5.86a13.13,13.13,0,0,1-1.5-2c-6-9.32-19.82-28.53-9.46-35.59,0,0,38-26.28,77.47-26.28,0,0,23.54-.81,33.94-0.93C346.21,108.52,358.29,108.72,399.2,129.93Z" transform="translate(-214.75 -108.67)"/><ellipse class="cls-3" cx="471.33" cy="143.5" rx="2.58" ry="15.14" transform="translate(-27.61 437.3) rotate(-71.71)"/><path class="cls-4" d="M266.67,120.63c-1.1.57-3.86,4.74,3.69,7.66s16,6.71,36.09,6.71h66s14.64,0,26.33-4.25a0.91,0.91,0,0,0,.42-0.82c-14.67-7.6-25.32-12.39-34.1-15.55C281.91,110.79,270.86,118.47,266.67,120.63Z" transform="translate(-214.75 -108.67)"/><rect class="cls-2" x="78.25" y="2.33" width="4" height="26"/><rect class="cls-2" x="361.77" y="96.91" width="4.11" height="53.45" transform="translate(-127.11 282.13) rotate(-62.82)"/><path class="cls-1" d="M319,145a2,2,0,0,1-2.06,2H306.62a2,2,0,0,1-2.06-2h0a2,2,0,0,1,2.06-2h10.29a2,2,0,0,1,2.06,2h0Z" transform="translate(-214.75 -108.67)"/><path class="cls-3" d="M229,173c4,7.22,11.95,6.49,11.95,6.49S408.55,180,468.64,180c4.5,0,9.54-2.58,13.69-7H229Z" transform="translate(-214.75 -108.67)"/><circle class="cls-1" cx="54.04" cy="56.43" r="25.63"/><circle class="cls-5" cx="54.04" cy="56.43" r="18.1"/><circle class="cls-1" cx="222.04" cy="56.43" r="25.63"/><circle class="cls-5" cx="222.04" cy="56.43" r="18.1"/><path class="cls-6" d="M377.69,133.38c0,2.33-1.89,2.91-4.22,2.91s-4.22-.58-4.22-2.91,1.89-2.47,4.22-2.47S377.69,131.05,377.69,133.38Z" transform="translate(-214.75 -108.67)"/><path class="cls-6" d="M375.47,134.25a1.18,1.18,0,0,0,1.16.7l3.88,0a1.8,1.8,0,0,0,1.28-.4,0.71,0.71,0,0,0-.16-0.84,2.88,2.88,0,0,0-1.43-.56l-2-.23a4.92,4.92,0,0,0-1.93.23l-0.06,0A1,1,0,0,0,375.47,134.25Z" transform="translate(-214.75 -108.67)"/></svg>