<svg id="Layer_1" data-name="Layer 1" xmlns="http://www.w3.org/2000/svg" viewBox="0 0 196.1 105.59"><defs><style>.cls-1{fill:#5fa69b;}.cls-2{fill:#508d83;}.cls-3{fill:#363636;}.cls-4{fill:#5d5b5b;}.cls-5{fill:#cb2228;}.cls-6{fill:#f9f384;}.cls-7{fill:#b5d0e0;}</style></defs><title>carro_1</title><path class="cls-1" d="M316.1,97h4.78c47.35,0,56.16,24.12,74.37,35.92,12.91,8.37,23.61,9,30.57,10.73a27.89,27.89,0,0,1,18.45,14.06c2.61,5,3.83,16.65,3.83,22.34,0,6.54-4.38,8.95-8.61,8.95h-177c-4.23,0-6.33-4.93-6.7-9.12-0.58-6.67-1.45-19,0-25.66C260.62,132.22,278.08,97,316.1,97Z" transform="translate(-252 -97)"/><path class="cls-2" d="M448.1,180c0-.78,0-1.57-0.07-2.55l-192.6-2.85c0.13,2,.28,3.7.41,5.24,0.36,4.18,2.47,9.14,6.7,9.14h177C443.71,189,448.1,186.55,448.1,180Z" transform="translate(-252 -97)"/><circle class="cls-3" cx="41.97" cy="83.15" r="22.44"/><circle class="cls-4" cx="41.97" cy="83.15" r="15.08"/><circle class="cls-3" cx="145.94" cy="83.15" r="22.44"/><circle class="cls-4" cx="145.94" cy="83.15" r="15.08"/><path class="cls-5" d="M255.48,159.57a5.24,5.24,0,0,0-3.48,5v0.61a5.22,5.22,0,0,0,3.6,5.07C255.43,166.76,255.35,163,255.48,159.57Z" transform="translate(-252 -97)"/><path class="cls-6" d="M435.3,151a5.52,5.52,0,0,0-2.18,7.5l2.18,4a5.52,5.52,0,0,0,7.49,2.18l0.55-.3a5.47,5.47,0,0,0,2.4-2.67,21.51,21.51,0,0,0-1.47-4,27,27,0,0,0-5.93-7.6,5.44,5.44,0,0,0-2.48.65Z" transform="translate(-252 -97)"/><path class="cls-7" d="M314,102.71S363.67,97,387.16,138H314V102.71Z" transform="translate(-252 -97)"/><path class="cls-7" d="M306,102.71V138H274.24C261,138,284,103.75,306,102.71Z" transform="translate(-252 -97)"/><rect class="cls-3" x="64" y="49" width="12" height="4" rx="1.78" ry="1.78"/><path class="cls-2" d="M391,134.92c0-1.13-1.56-1.92-2.69-1.92H373.56c-1.13,0-1.56.78-1.56,1.92v5.95c0,1.13.43,2.14,1.56,2.14h14.75c1.13,0,2.69-1,2.69-2.14v-5.95Z" transform="translate(-252 -97)"/></svg>