<svg id="Layer_1" data-name="Layer 1" xmlns="http://www.w3.org/2000/svg" viewBox="0 0 270.69 117.19"><defs><style>.cls-1{fill:#363636;}.cls-2{fill:#a8aa8f;}.cls-3{fill:#6b5152;}.cls-4{fill:#b5d0e0;}.cls-5{fill:#5d5b5b;}.cls-6{fill:#f9f384;}</style></defs><title>carro_4</title><path class="cls-1" d="M238.07,162.83c-0.61,6.47-6.31,11.43-11.95,10.9l-1.65-.16c-5.63-.53-10.73-6.52-10.11-13l3-31.62c0.61-6.46,6.82-12.29,12.45-11.75l1.65,0.16c5.63,0.53,10.22,7.38,9.61,13.84Z" transform="translate(-214.31 -90.95)"/><path class="cls-2" d="M243,109.13S245.38,91,258.61,91H372.9c5,0,8.71-.1,15.74,9,9.62,12.4,22,26.8,22,26.8s48.65,6.5,62.82,12.87C483.24,144,485,159.68,485,170.91c0,16.3-11.65,18.09-11.65,18.09H252c-4.86,0-15.58-2.27-15.58-12.5S243,109.13,243,109.13Z" transform="translate(-214.31 -90.95)"/><path class="cls-3" d="M236.41,176.85c0,10.23,10.72,12.15,15.58,12.15H473.36s11.52-3,11.64-18H236.67C236.51,172,236.41,175.65,236.41,176.85Z" transform="translate(-214.31 -90.95)"/><path class="cls-4" d="M410.69,127L388.24,99h-73.9c-1,0-2.34.35-2.34,1.4V125a2.2,2.2,0,0,0,2.11,2h96.58Z" transform="translate(-214.31 -90.95)"/><path class="cls-4" d="M303.16,99H261.44c-5.22,0-9.17,3.54-9.17,8.76l-1.75,17.43c0,1,.57,2.81,1.62,2.81h51c1,0,3.84-2,3.84-3V100.4C307,99.35,304.21,99,303.16,99Z" transform="translate(-214.31 -90.95)"/><rect class="cls-1" x="99.69" y="41.05" width="16" height="5" rx="2.29" ry="2.29"/><circle class="cls-1" cx="213.86" cy="88.34" r="28.85"/><circle class="cls-5" cx="213.86" cy="88.34" r="19.1"/><circle class="cls-1" cx="67.28" cy="88.34" r="28.85"/><circle class="cls-5" cx="67.28" cy="88.34" r="19.1"/><path class="cls-6" d="M478.4,146a8.72,8.72,0,0,0-8.4,8.39v0.73c0,4.78,4.39,8.89,8.4,8.89h6.44c-0.38-5-1.62-13-4.73-18H478.4Z" transform="translate(-214.31 -90.95)"/><rect class="cls-2" x="160.69" y="7.05" width="7" height="33"/><path class="cls-3" d="M380,129a1.77,1.77,0,0,1-1.43,2H362.43a1.77,1.77,0,0,1-1.43-2v-8.54a1.31,1.31,0,0,1,1.43-1.48h16.15a1.31,1.31,0,0,1,1.43,1.48V129Z" transform="translate(-214.31 -90.95)"/></svg>