<svg id="Layer_1" data-name="Layer 1" xmlns="http://www.w3.org/2000/svg" viewBox="0 0 259.2 101.59"><defs><style>.cls-1{fill:#5e8db7;}.cls-2{fill:#cb2228;}.cls-3{fill:#f9f384;}.cls-4{fill:#b5d0e0;}.cls-5{fill:#363636;}.cls-6{fill:#3f617a;}.cls-7{fill:#5d5b5b;}</style></defs><title>carro_3</title><path class="cls-1" d="M261.36,99H385c19.09,0,32.6,39,43.16,39H455c14,0,24,11.63,24,25.63V180.1c0,4.9-2.67,6.9-7.57,6.9H227.66c-4.9,0-7.66-2-7.66-6.9v-38C220,121.05,246.35,99,261.36,99Z" transform="translate(-220 -99)"/><path class="cls-2" d="M220.55,143s3.45-.12,3.45,5.27v7.39c0,3.87-1.3,5.34-3,5.34h-1V143h0.55Z" transform="translate(-220 -99)"/><path class="cls-3" d="M471,155.52V145.38c0-.63-1-1.25-0.88-1.85,6,4.63,8.88,11.9,8.88,20.1v0.91s0.4,0.1.06,0.1C474,164.64,471,160.56,471,155.52Z" transform="translate(-220 -99)"/><rect class="cls-4" x="65" y="6" width="55" height="35" rx="6.08" ry="6.08"/><path class="cls-4" d="M226.9,134.65c-0.75,3.27,2.72,7.35,6.08,7.35h40.54c3.36,0,5.48-4.41,5.48-7.77v-22.3c0-3.36-2.12-6.93-5.48-6.93H257.3C244.63,105,229.05,125.21,226.9,134.65Z" transform="translate(-220 -99)"/><path class="cls-4" d="M351,134.23c0,3.36,2.28,7.77,5.64,7.77h46.63c3.36,0,6.08-3.68,6.08-7.35C409.35,124.39,393.8,105,383,105H356.64c-3.36,0-5.64,3.57-5.64,6.93v22.3Z" transform="translate(-220 -99)"/><path class="cls-5" d="M350.83,152.5a2.42,2.42,0,0,0,2,2.5h14.26a2.42,2.42,0,0,0,2-2.5h0a2.42,2.42,0,0,0-2-2.5H352.86a2.42,2.42,0,0,0-2,2.5h0Z" transform="translate(-220 -99)"/><rect class="cls-5" x="67" y="51" width="18" height="5" rx="2.03" ry="2.03"/><path class="cls-6" d="M411,134.35a4.26,4.26,0,0,0-4.33-4.16l-16.24-.1c-2.33,0-3.43,1.83-3.43,4.16V140c0,2.33,1.1,3.73,3.44,3.73l16.4,0.1c2.33,0,4.17-1.4,4.17-3.73v-5.79Z" transform="translate(-220 -99)"/><path class="cls-6" d="M479,180.1v-5.22l-259-2.55v7.77c0,4.9,2.76,6.9,7.66,6.9H471.43C476.33,187,479,185,479,180.1Z" transform="translate(-220 -99)"/><circle class="cls-5" cx="35.71" cy="78" r="23.59"/><circle class="cls-7" cx="35.71" cy="78" r="15.85"/><circle class="cls-5" cx="216.53" cy="78" r="23.59"/><circle class="cls-7" cx="216.53" cy="78" r="15.85"/></svg>