<svg id="Layer_1" data-name="Layer 1" xmlns="http://www.w3.org/2000/svg" xmlns:xlink="http://www.w3.org/1999/xlink" viewBox="0 0 1102.09 311.61"><defs><style>.cls-1{fill:none;}.cls-2{font-size:130.46px;}.cls-16,.cls-2,.cls-7{fill:#a98137;}.cls-16,.cls-2{font-family:Myriad Pro;}.cls-3{fill:#e8c37b;}.cls-4{fill:#e3ac49;}.cls-5{fill:#d19f42;}.cls-6{fill:#c2943f;}.cls-8{clip-path:url(#clip-path);}.cls-9{clip-path:url(#clip-path-2);}.cls-10{clip-path:url(#clip-path-3);}.cls-11{clip-path:url(#clip-path-4);}.cls-12{clip-path:url(#clip-path-5);}.cls-13{clip-path:url(#clip-path-6);}.cls-14{clip-path:url(#clip-path-7);}.cls-15{clip-path:url(#clip-path-8);}.cls-16{font-size:130.5px;}.cls-17{clip-path:url(#clip-path-9);}.cls-18{clip-path:url(#clip-path-10);}.cls-19{clip-path:url(#clip-path-11);}.cls-20{clip-path:url(#clip-path-12);}.cls-21{clip-path:url(#clip-path-13);}.cls-22{clip-path:url(#clip-path-14);}.cls-23{clip-path:url(#clip-path-15);}.cls-24{clip-path:url(#clip-path-16);}.cls-25{clip-path:url(#clip-path-17);}.cls-26{clip-path:url(#clip-path-18);}.cls-27{clip-path:url(#clip-path-19);}.cls-28{clip-path:url(#clip-path-20);}.cls-29{clip-path:url(#clip-path-21);}.cls-30{clip-path:url(#clip-path-22);}.cls-31{clip-path:url(#clip-path-23);}.cls-32{clip-path:url(#clip-path-24);}</style><clipPath id="clip-path" transform="translate(-440.13 -217.44)"><path class="cls-1" d="M688.65,460l-6.31-.07c-15.56-16.64-58.16-28.59-108.3-28.59-47.51,0-88.27,10.73-105.65,26l-8.89-.11-0.09,16.64c0,23.49,51.33,42.54,114.64,42.54s114.64-19.05,114.64-42.54Z"/></clipPath><clipPath id="clip-path-2" transform="translate(-440.13 -217.44)"><path class="cls-1" d="M688.65,432.93l-6.31-.07c-15.56-16.64-58.16-28.59-108.3-28.59-47.51,0-88.27,10.73-105.65,26l-8.89-.11-0.09,16.64c0,23.49,51.33,42.53,114.64,42.53s114.64-19,114.64-42.53Z"/></clipPath><clipPath id="clip-path-3" transform="translate(-440.13 -217.44)"><path class="cls-1" d="M688.65,405.85l-6.31-.08c-15.56-16.64-58.16-28.59-108.3-28.59-47.51,0-88.27,10.73-105.65,26l-8.89-.11-0.09,16.64c0,23.49,51.33,42.53,114.64,42.53s114.64-19,114.64-42.53Z"/></clipPath><clipPath id="clip-path-4" transform="translate(-440.13 -217.44)"><path class="cls-1" d="M688.65,378.77l-6.31-.08C666.78,362,624.19,350.1,574,350.1c-47.51,0-88.27,10.73-105.65,26L459.5,376l-0.09,16.64c0,23.5,51.33,42.54,114.64,42.54s114.64-19,114.64-42.54Z"/></clipPath><clipPath id="clip-path-5" transform="translate(-440.13 -217.44)"><path class="cls-1" d="M688.65,351.69l-6.31-.08C666.78,335,624.19,323,574,323c-47.51,0-88.27,10.73-105.65,26l-8.89-.11-0.09,16.64c0,23.49,51.33,42.54,114.64,42.54s114.64-19,114.64-42.54Z"/></clipPath><clipPath id="clip-path-6" transform="translate(-440.13 -217.44)"><path class="cls-1" d="M688.65,324.61l-6.31-.08c-15.56-16.64-58.16-28.59-108.3-28.59-47.51,0-88.27,10.73-105.65,26l-8.89-.11-0.09,16.64C459.41,362,510.74,381,574,381S688.69,362,688.69,338.48Z"/></clipPath><clipPath id="clip-path-7" transform="translate(-440.13 -217.44)"><path class="cls-1" d="M688.65,297.53l-6.31-.08c-15.56-16.64-58.16-28.59-108.3-28.59-47.51,0-88.27,10.73-105.65,26l-8.89-.11-0.09,16.64c0,23.49,51.33,42.54,114.64,42.54s114.64-19.05,114.64-42.54Z"/></clipPath><clipPath id="clip-path-8" transform="translate(-440.13 -217.44)"><path class="cls-1" d="M688.65,270.45l-6.31-.08c-15.56-16.64-58.16-28.59-108.3-28.59-47.51,0-88.27,10.73-105.65,26l-8.89-.11-0.09,16.63c0,23.5,51.33,42.54,114.64,42.54s114.64-19,114.64-42.54Z"/></clipPath><clipPath id="clip-path-9" transform="translate(-440.13 -217.44)"><path class="cls-1" d="M1090.08,460l-6.31-.07c-15.56-16.64-58.16-28.59-108.3-28.59-47.51,0-88.27,10.73-105.65,26l-8.89-.11-0.09,16.64c0,23.49,51.33,42.54,114.64,42.54s114.64-19.05,114.64-42.54Z"/></clipPath><clipPath id="clip-path-10" transform="translate(-440.13 -217.44)"><path class="cls-1" d="M1090.08,432.93l-6.31-.07c-15.56-16.64-58.16-28.59-108.3-28.59-47.51,0-88.27,10.73-105.65,26l-8.89-.11-0.09,16.64c0,23.49,51.33,42.53,114.64,42.53s114.64-19,114.64-42.53Z"/></clipPath><clipPath id="clip-path-11" transform="translate(-440.13 -217.44)"><path class="cls-1" d="M1090.08,405.85l-6.31-.08c-15.56-16.64-58.16-28.59-108.3-28.59-47.51,0-88.27,10.73-105.65,26l-8.89-.11-0.09,16.64c0,23.49,51.33,42.53,114.64,42.53s114.64-19,114.64-42.53Z"/></clipPath><clipPath id="clip-path-12" transform="translate(-440.13 -217.44)"><path class="cls-1" d="M1090.08,378.77l-6.31-.08c-15.56-16.64-58.16-28.58-108.3-28.58-47.51,0-88.27,10.73-105.65,26l-8.89-.11-0.09,16.64c0,23.5,51.33,42.54,114.64,42.54s114.64-19,114.64-42.54Z"/></clipPath><clipPath id="clip-path-13" transform="translate(-440.13 -217.44)"><path class="cls-1" d="M1090.08,351.69l-6.31-.08C1068.21,335,1025.61,323,975.47,323c-47.51,0-88.27,10.73-105.65,26l-8.89-.11-0.09,16.64c0,23.49,51.33,42.54,114.64,42.54s114.64-19,114.64-42.54Z"/></clipPath><clipPath id="clip-path-14" transform="translate(-440.13 -217.44)"><path class="cls-1" d="M1090.08,324.61l-6.31-.08c-15.56-16.64-58.16-28.59-108.3-28.59-47.51,0-88.27,10.73-105.65,26l-8.89-.11-0.09,16.64C860.84,362,912.16,381,975.47,381s114.64-19.05,114.64-42.54Z"/></clipPath><clipPath id="clip-path-15" transform="translate(-440.13 -217.44)"><path class="cls-1" d="M1090.08,297.53l-6.31-.08c-15.56-16.64-58.16-28.59-108.3-28.59-47.51,0-88.27,10.73-105.65,26l-8.89-.11-0.09,16.64c0,23.49,51.33,42.54,114.64,42.54s114.64-19.05,114.64-42.54Z"/></clipPath><clipPath id="clip-path-16" transform="translate(-440.13 -217.44)"><path class="cls-1" d="M1090.08,270.45l-6.31-.08c-15.56-16.64-58.16-28.59-108.3-28.59-47.51,0-88.27,10.73-105.65,26l-8.89-.11-0.09,16.63c0,23.5,51.33,42.54,114.64,42.54s114.64-19,114.64-42.54Z"/></clipPath><clipPath id="clip-path-17" transform="translate(-440.13 -217.44)"><path class="cls-1" d="M1494.59,460l-6.3-.07c-15.56-16.64-58.16-28.59-108.3-28.59-47.51,0-88.26,10.73-105.65,26l-8.89-.11-0.1,16.64c0,23.49,51.33,42.54,114.64,42.54s114.64-19.05,114.64-42.54Z"/></clipPath><clipPath id="clip-path-18" transform="translate(-440.13 -217.44)"><path class="cls-1" d="M1494.59,432.93l-6.3-.07c-15.56-16.64-58.16-28.59-108.3-28.59-47.51,0-88.26,10.73-105.65,26l-8.89-.11-0.1,16.64c0,23.49,51.33,42.53,114.64,42.53s114.64-19,114.64-42.53Z"/></clipPath><clipPath id="clip-path-19" transform="translate(-440.13 -217.44)"><path class="cls-1" d="M1494.59,405.85l-6.3-.08c-15.56-16.64-58.16-28.59-108.3-28.59-47.51,0-88.26,10.73-105.65,26l-8.89-.11-0.1,16.64c0,23.49,51.33,42.53,114.64,42.53s114.64-19,114.64-42.53Z"/></clipPath><clipPath id="clip-path-20" transform="translate(-440.13 -217.44)"><path class="cls-1" d="M1494.59,378.77l-6.3-.08C1472.73,362,1430.14,350.1,1380,350.1c-47.51,0-88.26,10.73-105.65,26l-8.89-.11-0.1,16.64c0,23.5,51.33,42.54,114.64,42.54s114.64-19,114.64-42.54Z"/></clipPath><clipPath id="clip-path-21" transform="translate(-440.13 -217.44)"><path class="cls-1" d="M1494.59,351.69l-6.3-.08C1472.73,335,1430.14,323,1380,323c-47.51,0-88.26,10.73-105.65,26l-8.89-.11-0.1,16.64c0,23.49,51.33,42.54,114.64,42.54s114.64-19,114.64-42.54Z"/></clipPath><clipPath id="clip-path-22" transform="translate(-440.13 -217.44)"><path class="cls-1" d="M1494.59,324.61l-6.3-.08c-15.56-16.64-58.16-28.59-108.3-28.59-47.51,0-88.26,10.73-105.65,26l-8.89-.11-0.1,16.64C1265.35,362,1316.68,381,1380,381s114.64-19.05,114.64-42.54Z"/></clipPath><clipPath id="clip-path-23" transform="translate(-440.13 -217.44)"><path class="cls-1" d="M1494.59,297.53l-6.3-.08c-15.56-16.64-58.16-28.59-108.3-28.59-47.51,0-88.26,10.73-105.65,26l-8.89-.11-0.1,16.64c0,23.49,51.33,42.54,114.64,42.54s114.64-19.05,114.64-42.54Z"/></clipPath><clipPath id="clip-path-24" transform="translate(-440.13 -217.44)"><path class="cls-1" d="M1494.59,270.45l-6.3-.08c-15.56-16.64-58.16-28.59-108.3-28.59-47.51,0-88.26,10.73-105.65,26l-8.89-.11-0.1,16.63c0,23.5,51.33,42.54,114.64,42.54s114.64-19,114.64-42.54Z"/></clipPath></defs><title>dinheiro_1</title><text class="cls-2" transform="translate(176.51 311.02) rotate(-90.3) scale(0.55 1)">$</text><polygon class="cls-3" points="19.37 266.88 19.27 283.52 248.55 283.52 248.52 269.64 19.37 266.88"/><ellipse class="cls-4" cx="133.91" cy="268.56" rx="114.64" ry="42.54"/><path class="cls-5" d="M574,514.85c-55.45,0-94.09-16.09-94.09-30.52S518.6,453.81,574,453.81s94.09,16.08,94.09,30.51S629.5,514.85,574,514.85Z" transform="translate(-440.13 -217.44)"/><path class="cls-6" d="M574,458.13c25.33,0,49,3.45,66.7,9.71,15.93,5.64,23.06,12.34,23.06,16.48s-7.13,10.85-23.06,16.49c-17.68,6.26-41.37,9.71-66.7,9.71s-49-3.45-66.7-9.71c-15.93-5.64-23.06-12.35-23.06-16.49s7.13-10.84,23.06-16.48c17.68-6.26,41.37-9.71,66.7-9.71m0-8.65c-54.35,0-98.41,15.6-98.41,34.84s44.06,34.85,98.41,34.85,98.42-15.6,98.42-34.85S628.4,449.48,574,449.48h0Z" transform="translate(-440.13 -217.44)"/><text class="cls-2" transform="translate(176.51 283.94) rotate(-90.3) scale(0.55 1)">$</text><ellipse class="cls-7" cx="133.92" cy="263.33" rx="109.33" ry="37.31"/><ellipse class="cls-3" cx="133.91" cy="256.44" rx="114.64" ry="42.54"/><polygon class="cls-3" points="19.37 239.8 19.27 256.44 248.55 256.44 248.52 242.56 19.37 239.8"/><g class="cls-8"><rect class="cls-4" y="189.57" width="1.97" height="109.42"/><rect class="cls-4" x="8.65" y="189.57" width="1.98" height="109.42"/><rect class="cls-4" x="17.3" y="189.57" width="1.98" height="109.42"/><rect class="cls-4" x="25.95" y="189.57" width="1.97" height="109.42"/><rect class="cls-4" x="34.6" y="189.57" width="1.98" height="109.42"/><rect class="cls-4" x="43.26" y="189.57" width="1.97" height="109.42"/><rect class="cls-4" x="51.91" y="189.57" width="1.97" height="109.42"/><rect class="cls-4" x="60.56" y="189.57" width="1.98" height="109.42"/><rect class="cls-4" x="69.22" y="189.57" width="1.97" height="109.42"/><rect class="cls-4" x="77.87" y="189.57" width="1.97" height="109.42"/><rect class="cls-4" x="86.52" y="189.57" width="1.98" height="109.42"/><rect class="cls-4" x="95.17" y="189.57" width="1.97" height="109.42"/><rect class="cls-4" x="103.82" y="189.57" width="1.97" height="109.42"/><rect class="cls-4" x="112.47" y="189.57" width="1.98" height="109.42"/><rect class="cls-4" x="121.13" y="189.57" width="1.97" height="109.42"/><rect class="cls-4" x="129.78" y="189.57" width="1.97" height="109.42"/><rect class="cls-4" x="138.43" y="189.57" width="1.97" height="109.42"/><rect class="cls-4" x="147.09" y="189.57" width="1.97" height="109.42"/><rect class="cls-4" x="155.74" y="189.57" width="1.97" height="109.42"/><rect class="cls-4" x="164.39" y="189.57" width="1.97" height="109.42"/><rect class="cls-4" x="173.04" y="189.57" width="1.98" height="109.42"/><rect class="cls-4" x="181.69" y="189.57" width="1.97" height="109.42"/><rect class="cls-4" x="190.34" y="189.57" width="1.98" height="109.42"/><rect class="cls-4" x="199" y="189.57" width="1.97" height="109.42"/><rect class="cls-4" x="207.65" y="189.57" width="1.97" height="109.42"/><rect class="cls-4" x="216.31" y="189.57" width="1.97" height="109.42"/><rect class="cls-4" x="224.95" y="189.57" width="1.98" height="109.42"/><rect class="cls-4" x="233.61" y="189.57" width="1.97" height="109.42"/><rect class="cls-4" x="242.26" y="189.57" width="1.97" height="109.42"/><rect class="cls-4" x="250.91" y="189.57" width="1.96" height="109.42"/><rect class="cls-4" x="259.56" y="189.57" width="1.97" height="109.42"/><rect class="cls-4" x="268.21" y="189.57" width="1.98" height="109.42"/><rect class="cls-4" x="276.86" y="189.57" width="1.97" height="109.42"/><rect class="cls-4" x="285.52" y="189.57" width="1.97" height="109.42"/><rect class="cls-4" x="294.17" y="189.57" width="1.97" height="109.42"/></g><ellipse class="cls-4" cx="133.91" cy="241.48" rx="114.64" ry="42.54"/><path class="cls-5" d="M574,487.76c-55.45,0-94.09-16.08-94.09-30.52S518.6,426.73,574,426.73s94.09,16.08,94.09,30.51S629.5,487.76,574,487.76Z" transform="translate(-440.13 -217.44)"/><path class="cls-6" d="M574,431.06c25.33,0,49,3.45,66.7,9.71,15.93,5.64,23.06,12.34,23.06,16.48s-7.13,10.84-23.06,16.48c-17.68,6.26-41.37,9.71-66.7,9.71s-49-3.45-66.7-9.71c-15.93-5.64-23.06-12.34-23.06-16.48s7.13-10.84,23.06-16.48c17.68-6.26,41.37-9.71,66.7-9.71m0-8.65c-54.35,0-98.41,15.6-98.41,34.84s44.06,34.85,98.41,34.85,98.42-15.6,98.42-34.85S628.4,422.41,574,422.41h0Z" transform="translate(-440.13 -217.44)"/><text class="cls-2" transform="translate(176.51 256.87) rotate(-90.3) scale(0.55 1)">$</text><ellipse class="cls-7" cx="133.92" cy="236.25" rx="109.33" ry="37.31"/><ellipse class="cls-3" cx="133.91" cy="229.36" rx="114.64" ry="42.54"/><polygon class="cls-3" points="19.37 212.72 19.27 229.36 248.55 229.36 248.52 215.48 19.37 212.72"/><g class="cls-9"><rect class="cls-4" y="162.49" width="1.97" height="109.41"/><rect class="cls-4" x="8.65" y="162.49" width="1.98" height="109.41"/><rect class="cls-4" x="17.3" y="162.49" width="1.98" height="109.41"/><rect class="cls-4" x="25.95" y="162.49" width="1.97" height="109.41"/><rect class="cls-4" x="34.6" y="162.49" width="1.98" height="109.41"/><rect class="cls-4" x="43.26" y="162.49" width="1.97" height="109.41"/><rect class="cls-4" x="51.91" y="162.49" width="1.97" height="109.41"/><rect class="cls-4" x="60.56" y="162.49" width="1.98" height="109.41"/><rect class="cls-4" x="69.22" y="162.49" width="1.97" height="109.41"/><rect class="cls-4" x="77.87" y="162.49" width="1.97" height="109.41"/><rect class="cls-4" x="86.52" y="162.49" width="1.98" height="109.41"/><rect class="cls-4" x="95.17" y="162.49" width="1.97" height="109.41"/><rect class="cls-4" x="103.82" y="162.49" width="1.97" height="109.41"/><rect class="cls-4" x="112.47" y="162.49" width="1.98" height="109.41"/><rect class="cls-4" x="121.13" y="162.49" width="1.97" height="109.41"/><rect class="cls-4" x="129.78" y="162.49" width="1.97" height="109.41"/><rect class="cls-4" x="138.43" y="162.49" width="1.97" height="109.41"/><rect class="cls-4" x="147.09" y="162.49" width="1.97" height="109.41"/><rect class="cls-4" x="155.74" y="162.49" width="1.97" height="109.41"/><rect class="cls-4" x="164.39" y="162.49" width="1.97" height="109.41"/><rect class="cls-4" x="173.04" y="162.49" width="1.98" height="109.41"/><rect class="cls-4" x="181.69" y="162.49" width="1.97" height="109.41"/><rect class="cls-4" x="190.34" y="162.49" width="1.98" height="109.41"/><rect class="cls-4" x="199" y="162.49" width="1.97" height="109.41"/><rect class="cls-4" x="207.65" y="162.49" width="1.97" height="109.41"/><rect class="cls-4" x="216.31" y="162.49" width="1.97" height="109.41"/><rect class="cls-4" x="224.95" y="162.49" width="1.98" height="109.41"/><rect class="cls-4" x="233.61" y="162.49" width="1.97" height="109.41"/><rect class="cls-4" x="242.26" y="162.49" width="1.97" height="109.41"/><rect class="cls-4" x="250.91" y="162.49" width="1.96" height="109.41"/><rect class="cls-4" x="259.56" y="162.49" width="1.97" height="109.41"/><rect class="cls-4" x="268.21" y="162.49" width="1.98" height="109.41"/><rect class="cls-4" x="276.86" y="162.49" width="1.97" height="109.41"/><rect class="cls-4" x="285.52" y="162.49" width="1.97" height="109.41"/><rect class="cls-4" x="294.17" y="162.49" width="1.97" height="109.41"/></g><ellipse class="cls-4" cx="133.91" cy="214.4" rx="114.64" ry="42.54"/><path class="cls-5" d="M574,460.68c-55.45,0-94.09-16.08-94.09-30.52S518.6,399.65,574,399.65s94.09,16.08,94.09,30.51S629.5,460.68,574,460.68Z" transform="translate(-440.13 -217.44)"/><path class="cls-6" d="M574,404c25.33,0,49,3.45,66.7,9.71,15.93,5.64,23.06,12.34,23.06,16.48s-7.13,10.84-23.06,16.48c-17.68,6.26-41.37,9.71-66.7,9.71s-49-3.45-66.7-9.71c-15.93-5.64-23.06-12.34-23.06-16.48s7.13-10.84,23.06-16.48C525,407.43,548.72,404,574,404m0-8.65c-54.35,0-98.41,15.59-98.41,34.84S519.69,465,574,465s98.42-15.6,98.42-34.84S628.4,395.33,574,395.33h0Z" transform="translate(-440.13 -217.44)"/><text class="cls-2" transform="translate(176.51 229.79) rotate(-90.3) scale(0.55 1)">$</text><ellipse class="cls-7" cx="133.92" cy="209.17" rx="109.33" ry="37.31"/><path class="cls-3" d="M688.69,419.73c0,23.49-51.33,42.53-114.64,42.53s-114.64-19-114.64-42.53S510.74,377.18,574,377.18,688.69,396.23,688.69,419.73Z" transform="translate(-440.13 -217.44)"/><polygon class="cls-3" points="19.37 185.64 19.27 202.28 248.55 202.28 248.52 188.4 19.37 185.64"/><g class="cls-10"><rect class="cls-4" y="135.4" width="1.97" height="109.41"/><rect class="cls-4" x="8.65" y="135.4" width="1.98" height="109.41"/><rect class="cls-4" x="17.3" y="135.4" width="1.98" height="109.41"/><rect class="cls-4" x="25.95" y="135.4" width="1.97" height="109.41"/><rect class="cls-4" x="34.6" y="135.4" width="1.98" height="109.41"/><rect class="cls-4" x="43.26" y="135.4" width="1.97" height="109.41"/><rect class="cls-4" x="51.91" y="135.4" width="1.97" height="109.41"/><rect class="cls-4" x="60.56" y="135.4" width="1.98" height="109.41"/><rect class="cls-4" x="69.22" y="135.4" width="1.97" height="109.41"/><rect class="cls-4" x="77.87" y="135.4" width="1.97" height="109.41"/><rect class="cls-4" x="86.52" y="135.4" width="1.98" height="109.41"/><rect class="cls-4" x="95.17" y="135.4" width="1.97" height="109.41"/><rect class="cls-4" x="103.82" y="135.4" width="1.97" height="109.41"/><rect class="cls-4" x="112.47" y="135.4" width="1.98" height="109.41"/><rect class="cls-4" x="121.13" y="135.4" width="1.97" height="109.41"/><rect class="cls-4" x="129.78" y="135.4" width="1.97" height="109.41"/><rect class="cls-4" x="138.43" y="135.4" width="1.97" height="109.41"/><rect class="cls-4" x="147.09" y="135.4" width="1.97" height="109.41"/><rect class="cls-4" x="155.74" y="135.4" width="1.97" height="109.41"/><rect class="cls-4" x="164.39" y="135.4" width="1.97" height="109.41"/><rect class="cls-4" x="173.04" y="135.4" width="1.98" height="109.41"/><rect class="cls-4" x="181.69" y="135.4" width="1.97" height="109.41"/><rect class="cls-4" x="190.34" y="135.4" width="1.98" height="109.41"/><rect class="cls-4" x="199" y="135.4" width="1.97" height="109.41"/><rect class="cls-4" x="207.65" y="135.4" width="1.97" height="109.41"/><rect class="cls-4" x="216.31" y="135.4" width="1.97" height="109.41"/><rect class="cls-4" x="224.95" y="135.4" width="1.98" height="109.41"/><rect class="cls-4" x="233.61" y="135.4" width="1.97" height="109.41"/><rect class="cls-4" x="242.26" y="135.4" width="1.97" height="109.41"/><rect class="cls-4" x="250.91" y="135.4" width="1.96" height="109.41"/><rect class="cls-4" x="259.56" y="135.4" width="1.97" height="109.41"/><rect class="cls-4" x="268.21" y="135.4" width="1.98" height="109.41"/><rect class="cls-4" x="276.86" y="135.4" width="1.97" height="109.41"/><rect class="cls-4" x="285.52" y="135.4" width="1.97" height="109.41"/><rect class="cls-4" x="294.17" y="135.4" width="1.97" height="109.41"/></g><path class="cls-4" d="M688.69,404.76c0,23.49-51.33,42.54-114.64,42.54s-114.64-19.05-114.64-42.54S510.74,362.22,574,362.22,688.69,381.27,688.69,404.76Z" transform="translate(-440.13 -217.44)"/><path class="cls-5" d="M574,433.6c-55.45,0-94.09-16.08-94.09-30.51S518.6,372.57,574,372.57s94.09,16.08,94.09,30.52S629.5,433.6,574,433.6Z" transform="translate(-440.13 -217.44)"/><path class="cls-6" d="M574,376.89c25.33,0,49,3.45,66.7,9.71,15.93,5.64,23.06,12.34,23.06,16.48s-7.13,10.84-23.06,16.48c-17.68,6.26-41.37,9.71-66.7,9.71s-49-3.45-66.7-9.71c-15.93-5.64-23.06-12.34-23.06-16.48s7.13-10.84,23.06-16.48c17.68-6.26,41.37-9.71,66.7-9.71m0-8.65c-54.35,0-98.41,15.6-98.41,34.85s44.06,34.84,98.41,34.84,98.42-15.6,98.42-34.84S628.4,368.24,574,368.24h0Z" transform="translate(-440.13 -217.44)"/><text class="cls-2" transform="translate(176.51 202.7) rotate(-90.3) scale(0.55 1)">$</text><ellipse class="cls-7" cx="133.92" cy="182.09" rx="109.33" ry="37.31"/><ellipse class="cls-3" cx="133.91" cy="175.2" rx="114.64" ry="42.54"/><polygon class="cls-3" points="19.37 158.56 19.27 175.2 248.55 175.2 248.52 161.32 19.37 158.56"/><g class="cls-11"><rect class="cls-4" y="108.32" width="1.97" height="109.42"/><rect class="cls-4" x="8.65" y="108.32" width="1.98" height="109.42"/><rect class="cls-4" x="17.3" y="108.32" width="1.98" height="109.42"/><rect class="cls-4" x="25.95" y="108.32" width="1.97" height="109.42"/><rect class="cls-4" x="34.6" y="108.32" width="1.98" height="109.42"/><rect class="cls-4" x="43.26" y="108.32" width="1.97" height="109.42"/><rect class="cls-4" x="51.91" y="108.32" width="1.97" height="109.42"/><rect class="cls-4" x="60.56" y="108.32" width="1.98" height="109.42"/><rect class="cls-4" x="69.22" y="108.32" width="1.97" height="109.42"/><rect class="cls-4" x="77.87" y="108.32" width="1.97" height="109.42"/><rect class="cls-4" x="86.52" y="108.32" width="1.98" height="109.42"/><rect class="cls-4" x="95.17" y="108.32" width="1.97" height="109.42"/><rect class="cls-4" x="103.82" y="108.32" width="1.97" height="109.42"/><rect class="cls-4" x="112.47" y="108.32" width="1.98" height="109.42"/><rect class="cls-4" x="121.13" y="108.32" width="1.97" height="109.42"/><rect class="cls-4" x="129.78" y="108.32" width="1.97" height="109.42"/><rect class="cls-4" x="138.43" y="108.32" width="1.97" height="109.42"/><rect class="cls-4" x="147.09" y="108.32" width="1.97" height="109.42"/><rect class="cls-4" x="155.74" y="108.32" width="1.97" height="109.42"/><rect class="cls-4" x="164.39" y="108.32" width="1.97" height="109.42"/><rect class="cls-4" x="173.04" y="108.32" width="1.98" height="109.42"/><rect class="cls-4" x="181.69" y="108.32" width="1.97" height="109.42"/><rect class="cls-4" x="190.34" y="108.32" width="1.98" height="109.42"/><rect class="cls-4" x="199" y="108.32" width="1.97" height="109.42"/><rect class="cls-4" x="207.65" y="108.32" width="1.97" height="109.42"/><rect class="cls-4" x="216.31" y="108.32" width="1.97" height="109.42"/><rect class="cls-4" x="224.95" y="108.32" width="1.98" height="109.42"/><rect class="cls-4" x="233.61" y="108.32" width="1.97" height="109.42"/><rect class="cls-4" x="242.26" y="108.32" width="1.97" height="109.42"/><rect class="cls-4" x="250.91" y="108.32" width="1.96" height="109.42"/><rect class="cls-4" x="259.56" y="108.32" width="1.97" height="109.42"/><rect class="cls-4" x="268.21" y="108.32" width="1.98" height="109.42"/><rect class="cls-4" x="276.86" y="108.32" width="1.97" height="109.42"/><rect class="cls-4" x="285.52" y="108.32" width="1.97" height="109.42"/><rect class="cls-4" x="294.17" y="108.32" width="1.97" height="109.42"/></g><path class="cls-4" d="M688.69,377.68c0,23.49-51.33,42.54-114.64,42.54s-114.64-19.05-114.64-42.54S510.74,335.14,574,335.14,688.69,354.19,688.69,377.68Z" transform="translate(-440.13 -217.44)"/><path class="cls-5" d="M574,406.52C518.6,406.52,480,390.44,480,376S518.6,345.49,574,345.49s94.09,16.08,94.09,30.52S629.5,406.52,574,406.52Z" transform="translate(-440.13 -217.44)"/><path class="cls-6" d="M574,349.81c25.33,0,49,3.45,66.7,9.71,15.93,5.64,23.06,12.34,23.06,16.48s-7.13,10.84-23.06,16.48c-17.69,6.26-41.37,9.71-66.7,9.71s-49-3.45-66.7-9.71c-15.93-5.64-23.06-12.34-23.06-16.48s7.13-10.84,23.06-16.48c17.68-6.26,41.37-9.71,66.7-9.71m0-8.65c-54.35,0-98.41,15.6-98.41,34.84s44.06,34.85,98.41,34.85,98.42-15.6,98.42-34.85S628.4,341.16,574,341.16h0Z" transform="translate(-440.13 -217.44)"/><text class="cls-2" transform="translate(176.52 175.63) rotate(-90.3) scale(0.55 1)">$</text><ellipse class="cls-7" cx="133.92" cy="155.01" rx="109.33" ry="37.31"/><ellipse class="cls-3" cx="133.91" cy="148.12" rx="114.64" ry="42.54"/><polygon class="cls-3" points="19.37 131.48 19.27 148.12 248.55 148.12 248.52 134.25 19.37 131.48"/><g class="cls-12"><rect class="cls-4" y="81.24" width="1.97" height="109.42"/><rect class="cls-4" x="8.65" y="81.24" width="1.98" height="109.42"/><rect class="cls-4" x="17.3" y="81.24" width="1.98" height="109.42"/><rect class="cls-4" x="25.95" y="81.24" width="1.97" height="109.42"/><rect class="cls-4" x="34.6" y="81.24" width="1.98" height="109.42"/><rect class="cls-4" x="43.26" y="81.24" width="1.97" height="109.42"/><rect class="cls-4" x="51.91" y="81.24" width="1.97" height="109.42"/><rect class="cls-4" x="60.56" y="81.24" width="1.98" height="109.42"/><rect class="cls-4" x="69.22" y="81.24" width="1.97" height="109.42"/><rect class="cls-4" x="77.87" y="81.24" width="1.97" height="109.42"/><rect class="cls-4" x="86.52" y="81.24" width="1.98" height="109.42"/><rect class="cls-4" x="95.17" y="81.24" width="1.97" height="109.42"/><rect class="cls-4" x="103.82" y="81.24" width="1.97" height="109.42"/><rect class="cls-4" x="112.47" y="81.24" width="1.98" height="109.42"/><rect class="cls-4" x="121.13" y="81.24" width="1.97" height="109.42"/><rect class="cls-4" x="129.78" y="81.24" width="1.97" height="109.42"/><rect class="cls-4" x="138.43" y="81.24" width="1.97" height="109.42"/><rect class="cls-4" x="147.09" y="81.24" width="1.97" height="109.42"/><rect class="cls-4" x="155.74" y="81.24" width="1.97" height="109.42"/><rect class="cls-4" x="164.39" y="81.24" width="1.97" height="109.42"/><rect class="cls-4" x="173.04" y="81.24" width="1.98" height="109.42"/><rect class="cls-4" x="181.69" y="81.24" width="1.97" height="109.42"/><rect class="cls-4" x="190.34" y="81.24" width="1.98" height="109.42"/><rect class="cls-4" x="199" y="81.24" width="1.97" height="109.42"/><rect class="cls-4" x="207.65" y="81.24" width="1.97" height="109.42"/><rect class="cls-4" x="216.31" y="81.24" width="1.97" height="109.42"/><rect class="cls-4" x="224.95" y="81.24" width="1.98" height="109.42"/><rect class="cls-4" x="233.61" y="81.24" width="1.97" height="109.42"/><rect class="cls-4" x="242.26" y="81.24" width="1.97" height="109.42"/><rect class="cls-4" x="250.91" y="81.24" width="1.96" height="109.42"/><rect class="cls-4" x="259.56" y="81.24" width="1.97" height="109.42"/><rect class="cls-4" x="268.21" y="81.24" width="1.98" height="109.42"/><rect class="cls-4" x="276.86" y="81.24" width="1.97" height="109.42"/><rect class="cls-4" x="285.52" y="81.24" width="1.97" height="109.42"/><rect class="cls-4" x="294.17" y="81.24" width="1.97" height="109.42"/></g><ellipse class="cls-4" cx="133.91" cy="133.16" rx="114.64" ry="42.54"/><path class="cls-5" d="M574,379.44c-55.45,0-94.09-16.08-94.09-30.52S518.6,318.41,574,318.41s94.09,16.08,94.09,30.51S629.5,379.44,574,379.44Z" transform="translate(-440.13 -217.44)"/><path class="cls-6" d="M574,322.73c25.33,0,49,3.45,66.7,9.71,15.93,5.64,23.06,12.34,23.06,16.48s-7.13,10.84-23.06,16.48c-17.69,6.26-41.37,9.71-66.7,9.71s-49-3.45-66.7-9.71c-15.93-5.64-23.06-12.34-23.06-16.48s7.13-10.84,23.06-16.48c17.68-6.26,41.37-9.71,66.7-9.71m0-8.65c-54.35,0-98.41,15.6-98.41,34.84s44.06,34.85,98.41,34.85,98.42-15.6,98.42-34.85S628.4,314.08,574,314.08h0Z" transform="translate(-440.13 -217.44)"/><text class="cls-2" transform="translate(176.5 148.55) rotate(-90.3) scale(0.55 1)">$</text><ellipse class="cls-7" cx="133.92" cy="127.93" rx="109.33" ry="37.31"/><ellipse class="cls-3" cx="133.91" cy="121.04" rx="114.64" ry="42.54"/><polygon class="cls-3" points="19.37 104.4 19.27 121.04 248.55 121.04 248.52 107.16 19.37 104.4"/><g class="cls-13"><rect class="cls-4" y="54.16" width="1.97" height="109.42"/><rect class="cls-4" x="8.65" y="54.16" width="1.98" height="109.42"/><rect class="cls-4" x="17.3" y="54.16" width="1.98" height="109.42"/><rect class="cls-4" x="25.95" y="54.16" width="1.97" height="109.42"/><rect class="cls-4" x="34.6" y="54.16" width="1.98" height="109.42"/><rect class="cls-4" x="43.26" y="54.16" width="1.97" height="109.42"/><rect class="cls-4" x="51.91" y="54.16" width="1.97" height="109.42"/><rect class="cls-4" x="60.56" y="54.16" width="1.98" height="109.42"/><rect class="cls-4" x="69.22" y="54.16" width="1.97" height="109.42"/><rect class="cls-4" x="77.87" y="54.16" width="1.97" height="109.42"/><rect class="cls-4" x="86.52" y="54.16" width="1.98" height="109.42"/><rect class="cls-4" x="95.17" y="54.16" width="1.97" height="109.42"/><rect class="cls-4" x="103.82" y="54.16" width="1.97" height="109.42"/><rect class="cls-4" x="112.47" y="54.16" width="1.98" height="109.42"/><rect class="cls-4" x="121.13" y="54.16" width="1.97" height="109.42"/><rect class="cls-4" x="129.78" y="54.16" width="1.97" height="109.42"/><rect class="cls-4" x="138.43" y="54.16" width="1.97" height="109.42"/><rect class="cls-4" x="147.09" y="54.16" width="1.97" height="109.42"/><rect class="cls-4" x="155.74" y="54.16" width="1.97" height="109.42"/><rect class="cls-4" x="164.39" y="54.16" width="1.97" height="109.42"/><rect class="cls-4" x="173.04" y="54.16" width="1.98" height="109.42"/><rect class="cls-4" x="181.69" y="54.16" width="1.97" height="109.42"/><rect class="cls-4" x="190.34" y="54.16" width="1.98" height="109.42"/><rect class="cls-4" x="199" y="54.16" width="1.97" height="109.42"/><rect class="cls-4" x="207.65" y="54.16" width="1.97" height="109.42"/><rect class="cls-4" x="216.31" y="54.16" width="1.97" height="109.42"/><rect class="cls-4" x="224.95" y="54.16" width="1.98" height="109.42"/><rect class="cls-4" x="233.61" y="54.16" width="1.97" height="109.42"/><rect class="cls-4" x="242.26" y="54.16" width="1.97" height="109.42"/><rect class="cls-4" x="250.91" y="54.16" width="1.96" height="109.42"/><rect class="cls-4" x="259.56" y="54.16" width="1.97" height="109.42"/><rect class="cls-4" x="268.21" y="54.16" width="1.98" height="109.42"/><rect class="cls-4" x="276.86" y="54.16" width="1.97" height="109.42"/><rect class="cls-4" x="285.52" y="54.16" width="1.97" height="109.42"/><rect class="cls-4" x="294.17" y="54.16" width="1.97" height="109.42"/></g><ellipse class="cls-4" cx="133.91" cy="106.08" rx="114.64" ry="42.54"/><path class="cls-5" d="M574,352.36c-55.45,0-94.09-16.08-94.09-30.52S518.6,291.33,574,291.33s94.09,16.08,94.09,30.52S629.5,352.36,574,352.36Z" transform="translate(-440.13 -217.44)"/><path class="cls-6" d="M574,295.65c25.33,0,49,3.45,66.7,9.71,15.93,5.64,23.06,12.34,23.06,16.48s-7.13,10.84-23.06,16.48C623.07,344.58,599.38,348,574,348s-49-3.45-66.7-9.71c-15.93-5.64-23.06-12.34-23.06-16.48s7.13-10.84,23.06-16.48c17.68-6.26,41.37-9.71,66.7-9.71m0-8.65c-54.35,0-98.41,15.6-98.41,34.84s44.06,34.84,98.41,34.84,98.42-15.6,98.42-34.84S628.4,287,574,287h0Z" transform="translate(-440.13 -217.44)"/><text class="cls-2" transform="translate(176.51 121.46) rotate(-90.3) scale(0.55 1)">$</text><ellipse class="cls-7" cx="133.92" cy="100.85" rx="109.33" ry="37.31"/><ellipse class="cls-3" cx="133.91" cy="93.96" rx="114.64" ry="42.54"/><polygon class="cls-3" points="19.37 77.32 19.27 93.96 248.55 93.96 248.52 80.08 19.37 77.32"/><g class="cls-14"><rect class="cls-4" y="27.08" width="1.97" height="109.42"/><rect class="cls-4" x="8.65" y="27.08" width="1.98" height="109.42"/><rect class="cls-4" x="17.3" y="27.08" width="1.98" height="109.42"/><rect class="cls-4" x="25.95" y="27.08" width="1.97" height="109.42"/><rect class="cls-4" x="34.6" y="27.08" width="1.98" height="109.42"/><rect class="cls-4" x="43.26" y="27.08" width="1.97" height="109.42"/><rect class="cls-4" x="51.91" y="27.08" width="1.97" height="109.42"/><rect class="cls-4" x="60.56" y="27.08" width="1.98" height="109.42"/><rect class="cls-4" x="69.22" y="27.08" width="1.97" height="109.42"/><rect class="cls-4" x="77.87" y="27.08" width="1.97" height="109.42"/><rect class="cls-4" x="86.52" y="27.08" width="1.98" height="109.42"/><rect class="cls-4" x="95.17" y="27.08" width="1.97" height="109.42"/><rect class="cls-4" x="103.82" y="27.08" width="1.97" height="109.42"/><rect class="cls-4" x="112.47" y="27.08" width="1.98" height="109.42"/><rect class="cls-4" x="121.13" y="27.08" width="1.97" height="109.42"/><rect class="cls-4" x="129.78" y="27.08" width="1.97" height="109.42"/><rect class="cls-4" x="138.43" y="27.08" width="1.97" height="109.42"/><rect class="cls-4" x="147.09" y="27.08" width="1.97" height="109.42"/><rect class="cls-4" x="155.74" y="27.08" width="1.97" height="109.42"/><rect class="cls-4" x="164.39" y="27.08" width="1.97" height="109.42"/><rect class="cls-4" x="173.04" y="27.08" width="1.98" height="109.42"/><rect class="cls-4" x="181.69" y="27.08" width="1.97" height="109.42"/><rect class="cls-4" x="190.34" y="27.08" width="1.98" height="109.42"/><rect class="cls-4" x="199" y="27.08" width="1.97" height="109.42"/><rect class="cls-4" x="207.65" y="27.08" width="1.97" height="109.42"/><rect class="cls-4" x="216.31" y="27.08" width="1.97" height="109.42"/><rect class="cls-4" x="224.95" y="27.08" width="1.98" height="109.42"/><rect class="cls-4" x="233.61" y="27.08" width="1.97" height="109.42"/><rect class="cls-4" x="242.26" y="27.08" width="1.97" height="109.42"/><rect class="cls-4" x="250.91" y="27.08" width="1.96" height="109.42"/><rect class="cls-4" x="259.56" y="27.08" width="1.97" height="109.42"/><rect class="cls-4" x="268.21" y="27.08" width="1.98" height="109.42"/><rect class="cls-4" x="276.86" y="27.08" width="1.97" height="109.42"/><rect class="cls-4" x="285.52" y="27.08" width="1.97" height="109.42"/><rect class="cls-4" x="294.17" y="27.08" width="1.97" height="109.42"/></g><ellipse class="cls-4" cx="133.91" cy="79" rx="114.64" ry="42.54"/><path class="cls-5" d="M574,325.28c-55.45,0-94.09-16.08-94.09-30.52S518.6,264.24,574,264.24s94.09,16.08,94.09,30.52S629.5,325.28,574,325.28Z" transform="translate(-440.13 -217.44)"/><path class="cls-6" d="M574,268.57c25.33,0,49,3.45,66.7,9.71,15.93,5.64,23.06,12.34,23.06,16.48s-7.13,10.84-23.06,16.48C623.07,317.51,599.38,321,574,321s-49-3.45-66.7-9.71c-15.93-5.64-23.06-12.34-23.06-16.48s7.13-10.84,23.06-16.48c17.68-6.26,41.37-9.71,66.7-9.71m0-8.65c-54.35,0-98.41,15.6-98.41,34.85s44.06,34.84,98.41,34.84,98.42-15.6,98.42-34.84S628.4,259.92,574,259.92h0Z" transform="translate(-440.13 -217.44)"/><text class="cls-2" transform="translate(176.51 94.38) rotate(-90.3) scale(0.55 1)">$</text><ellipse class="cls-7" cx="133.92" cy="73.77" rx="109.33" ry="37.31"/><path class="cls-3" d="M688.69,284.32c0,23.5-51.33,42.54-114.64,42.54s-114.64-19-114.64-42.54S510.74,241.78,574,241.78,688.69,260.83,688.69,284.32Z" transform="translate(-440.13 -217.44)"/><polygon class="cls-3" points="19.37 50.24 19.27 66.87 248.55 66.87 248.52 53.01 19.37 50.24"/><g class="cls-15"><rect class="cls-4" width="1.97" height="109.42"/><rect class="cls-4" x="8.65" width="1.98" height="109.42"/><rect class="cls-4" x="17.3" width="1.98" height="109.42"/><rect class="cls-4" x="25.95" width="1.97" height="109.42"/><rect class="cls-4" x="34.6" width="1.98" height="109.42"/><rect class="cls-4" x="43.26" width="1.97" height="109.42"/><rect class="cls-4" x="51.91" width="1.97" height="109.42"/><rect class="cls-4" x="60.56" width="1.98" height="109.42"/><rect class="cls-4" x="69.22" width="1.97" height="109.42"/><rect class="cls-4" x="77.87" width="1.97" height="109.42"/><rect class="cls-4" x="86.52" width="1.98" height="109.42"/><rect class="cls-4" x="95.17" width="1.97" height="109.42"/><rect class="cls-4" x="103.82" width="1.97" height="109.42"/><rect class="cls-4" x="112.47" width="1.98" height="109.42"/><rect class="cls-4" x="121.13" width="1.97" height="109.42"/><rect class="cls-4" x="129.78" width="1.97" height="109.42"/><rect class="cls-4" x="138.43" width="1.97" height="109.42"/><rect class="cls-4" x="147.09" width="1.97" height="109.42"/><rect class="cls-4" x="155.74" width="1.97" height="109.42"/><rect class="cls-4" x="164.39" width="1.97" height="109.42"/><rect class="cls-4" x="173.04" width="1.98" height="109.42"/><rect class="cls-4" x="181.69" width="1.97" height="109.42"/><rect class="cls-4" x="190.34" width="1.98" height="109.42"/><rect class="cls-4" x="199" width="1.97" height="109.42"/><rect class="cls-4" x="207.65" width="1.97" height="109.42"/><rect class="cls-4" x="216.31" width="1.97" height="109.42"/><rect class="cls-4" x="224.95" width="1.98" height="109.42"/><rect class="cls-4" x="233.61" width="1.97" height="109.42"/><rect class="cls-4" x="242.26" width="1.97" height="109.42"/><rect class="cls-4" x="250.91" width="1.96" height="109.42"/><rect class="cls-4" x="259.56" width="1.97" height="109.42"/><rect class="cls-4" x="268.21" width="1.98" height="109.42"/><rect class="cls-4" x="276.86" width="1.97" height="109.42"/><rect class="cls-4" x="285.52" width="1.97" height="109.42"/><rect class="cls-4" x="294.17" width="1.97" height="109.42"/></g><ellipse class="cls-4" cx="133.91" cy="51.92" rx="114.64" ry="42.54"/><path class="cls-5" d="M574,298.2c-55.45,0-94.09-16.08-94.09-30.52S518.6,237.17,574,237.17s94.09,16.08,94.09,30.52S629.5,298.2,574,298.2Z" transform="translate(-440.13 -217.44)"/><path class="cls-6" d="M574,241.49c25.33,0,49,3.45,66.7,9.71,15.93,5.64,23.06,12.34,23.06,16.48s-7.13,10.84-23.06,16.48c-17.69,6.26-41.38,9.71-66.7,9.71s-49-3.45-66.7-9.71c-15.93-5.64-23.06-12.34-23.06-16.48s7.13-10.84,23.06-16.48c17.68-6.26,41.37-9.71,66.7-9.71m0-8.65c-54.35,0-98.41,15.6-98.41,34.85s44.06,34.84,98.41,34.84,98.42-15.6,98.42-34.84S628.4,232.84,574,232.84h0Z" transform="translate(-440.13 -217.44)"/><text class="cls-2" transform="translate(176.52 67.3) rotate(-90.3) scale(0.55 1)">$</text><ellipse class="cls-4" cx="133.92" cy="50.24" rx="114.68" ry="42.55"/><path class="cls-5" d="M574.05,296.53c-55.47,0-94.13-16.09-94.13-30.52s38.66-30.53,94.13-30.53,94.12,16.09,94.12,30.53S629.52,296.53,574.05,296.53Z" transform="translate(-440.13 -217.44)"/><path class="cls-6" d="M574.05,239.81c25.34,0,49,3.45,66.72,9.71,15.93,5.64,23.07,12.35,23.07,16.49s-7.13,10.84-23.07,16.48c-17.69,6.26-41.39,9.71-66.72,9.71s-49-3.45-66.73-9.71c-15.94-5.64-23.07-12.34-23.07-16.48s7.13-10.85,23.07-16.49c17.69-6.26,41.39-9.71,66.73-9.71m0-8.65c-54.37,0-98.45,15.6-98.45,34.85s44.08,34.85,98.45,34.85S672.5,285.25,672.5,266s-44.07-34.85-98.44-34.85h0Z" transform="translate(-440.13 -217.44)"/><text class="cls-16" transform="translate(176.53 65.63) rotate(-90.3) scale(0.55 1)">$</text><text class="cls-2" transform="translate(577.94 311.03) rotate(-90.3) scale(0.55 1)">$</text><polygon class="cls-3" points="420.79 266.88 420.7 283.52 649.98 283.52 649.94 269.64 420.79 266.88"/><ellipse class="cls-4" cx="535.34" cy="268.56" rx="114.64" ry="42.54"/><path class="cls-5" d="M975.47,514.85c-55.45,0-94.09-16.09-94.09-30.52s38.64-30.51,94.09-30.51,94.09,16.08,94.09,30.51S1030.92,514.85,975.47,514.85Z" transform="translate(-440.13 -217.44)"/><path class="cls-6" d="M975.47,458.13c25.33,0,49,3.45,66.7,9.71,15.93,5.64,23.06,12.34,23.06,16.48s-7.13,10.85-23.06,16.49c-17.68,6.26-41.37,9.71-66.7,9.71s-49-3.45-66.7-9.71c-15.93-5.64-23.06-12.35-23.06-16.49s7.13-10.84,23.06-16.48c17.68-6.26,41.37-9.71,66.7-9.71m0-8.65c-54.35,0-98.41,15.6-98.41,34.84s44.06,34.85,98.41,34.85,98.42-15.6,98.42-34.85-44.06-34.84-98.42-34.84h0Z" transform="translate(-440.13 -217.44)"/><text class="cls-2" transform="translate(577.94 283.95) rotate(-90.3) scale(0.55 1)">$</text><ellipse class="cls-7" cx="535.34" cy="263.33" rx="109.33" ry="37.31"/><ellipse class="cls-3" cx="535.34" cy="256.44" rx="114.64" ry="42.54"/><polygon class="cls-3" points="420.79 239.8 420.7 256.44 649.98 256.44 649.94 242.56 420.79 239.8"/><g class="cls-17"><rect class="cls-4" x="401.43" y="189.57" width="1.97" height="109.42"/><rect class="cls-4" x="410.08" y="189.57" width="1.97" height="109.42"/><rect class="cls-4" x="418.73" y="189.57" width="1.98" height="109.42"/><rect class="cls-4" x="427.38" y="189.57" width="1.97" height="109.42"/><rect class="cls-4" x="436.03" y="189.57" width="1.97" height="109.42"/><rect class="cls-4" x="444.68" y="189.57" width="1.97" height="109.42"/><rect class="cls-4" x="453.34" y="189.57" width="1.97" height="109.42"/><rect class="cls-4" x="461.99" y="189.57" width="1.97" height="109.42"/><rect class="cls-4" x="470.64" y="189.57" width="1.97" height="109.42"/><rect class="cls-4" x="479.29" y="189.57" width="1.97" height="109.42"/><rect class="cls-4" x="487.95" y="189.57" width="1.97" height="109.42"/><rect class="cls-4" x="496.6" y="189.57" width="1.97" height="109.42"/><rect class="cls-4" x="505.25" y="189.57" width="1.97" height="109.42"/><rect class="cls-4" x="513.9" y="189.57" width="1.97" height="109.42"/><rect class="cls-4" x="522.55" y="189.57" width="1.97" height="109.42"/><rect class="cls-4" x="531.21" y="189.57" width="1.97" height="109.42"/><rect class="cls-4" x="539.86" y="189.57" width="1.97" height="109.42"/><rect class="cls-4" x="548.51" y="189.57" width="1.97" height="109.42"/><rect class="cls-4" x="557.16" y="189.57" width="1.97" height="109.42"/><rect class="cls-4" x="565.82" y="189.57" width="1.97" height="109.42"/><rect class="cls-4" x="574.47" y="189.57" width="1.98" height="109.42"/><rect class="cls-4" x="583.12" y="189.57" width="1.97" height="109.42"/><rect class="cls-4" x="591.77" y="189.57" width="1.98" height="109.42"/><rect class="cls-4" x="600.42" y="189.57" width="1.97" height="109.42"/><rect class="cls-4" x="609.08" y="189.57" width="1.97" height="109.42"/><rect class="cls-4" x="617.73" y="189.57" width="1.97" height="109.42"/><rect class="cls-4" x="626.38" y="189.57" width="1.98" height="109.42"/><rect class="cls-4" x="635.03" y="189.57" width="1.97" height="109.42"/><rect class="cls-4" x="643.68" y="189.57" width="1.97" height="109.42"/><rect class="cls-4" x="652.34" y="189.57" width="1.96" height="109.42"/><rect class="cls-4" x="660.99" y="189.57" width="1.97" height="109.42"/><rect class="cls-4" x="669.64" y="189.57" width="1.97" height="109.42"/><rect class="cls-4" x="678.29" y="189.57" width="1.97" height="109.42"/><rect class="cls-4" x="686.94" y="189.57" width="1.97" height="109.42"/><rect class="cls-4" x="695.59" y="189.57" width="1.97" height="109.42"/></g><ellipse class="cls-4" cx="535.34" cy="241.48" rx="114.64" ry="42.54"/><path class="cls-5" d="M975.47,487.76c-55.45,0-94.09-16.08-94.09-30.52s38.64-30.51,94.09-30.51,94.09,16.08,94.09,30.51S1030.92,487.76,975.47,487.76Z" transform="translate(-440.13 -217.44)"/><path class="cls-6" d="M975.47,431.06c25.33,0,49,3.45,66.7,9.71,15.93,5.64,23.06,12.34,23.06,16.48s-7.13,10.84-23.06,16.48c-17.68,6.26-41.37,9.71-66.7,9.71s-49-3.45-66.7-9.71c-15.93-5.64-23.06-12.34-23.06-16.48s7.13-10.84,23.06-16.48c17.68-6.26,41.37-9.71,66.7-9.71m0-8.65c-54.35,0-98.41,15.6-98.41,34.84s44.06,34.85,98.41,34.85,98.42-15.6,98.42-34.85-44.06-34.84-98.42-34.84h0Z" transform="translate(-440.13 -217.44)"/><text class="cls-2" transform="translate(577.94 256.87) rotate(-90.3) scale(0.55 1)">$</text><ellipse class="cls-7" cx="535.34" cy="236.25" rx="109.33" ry="37.31"/><ellipse class="cls-3" cx="535.34" cy="229.36" rx="114.64" ry="42.54"/><polygon class="cls-3" points="420.79 212.72 420.7 229.36 649.98 229.36 649.94 215.48 420.79 212.72"/><g class="cls-18"><rect class="cls-4" x="401.43" y="162.49" width="1.97" height="109.41"/><rect class="cls-4" x="410.08" y="162.49" width="1.97" height="109.41"/><rect class="cls-4" x="418.73" y="162.49" width="1.98" height="109.41"/><rect class="cls-4" x="427.38" y="162.49" width="1.97" height="109.41"/><rect class="cls-4" x="436.03" y="162.49" width="1.97" height="109.41"/><rect class="cls-4" x="444.68" y="162.49" width="1.97" height="109.41"/><rect class="cls-4" x="453.34" y="162.49" width="1.97" height="109.41"/><rect class="cls-4" x="461.99" y="162.49" width="1.97" height="109.41"/><rect class="cls-4" x="470.64" y="162.49" width="1.97" height="109.41"/><rect class="cls-4" x="479.29" y="162.49" width="1.97" height="109.41"/><rect class="cls-4" x="487.95" y="162.49" width="1.97" height="109.41"/><rect class="cls-4" x="496.6" y="162.49" width="1.97" height="109.41"/><rect class="cls-4" x="505.25" y="162.49" width="1.97" height="109.41"/><rect class="cls-4" x="513.9" y="162.49" width="1.97" height="109.41"/><rect class="cls-4" x="522.55" y="162.49" width="1.97" height="109.41"/><rect class="cls-4" x="531.21" y="162.49" width="1.97" height="109.41"/><rect class="cls-4" x="539.86" y="162.49" width="1.97" height="109.41"/><rect class="cls-4" x="548.51" y="162.49" width="1.97" height="109.41"/><rect class="cls-4" x="557.16" y="162.49" width="1.97" height="109.41"/><rect class="cls-4" x="565.82" y="162.49" width="1.97" height="109.41"/><rect class="cls-4" x="574.47" y="162.49" width="1.98" height="109.41"/><rect class="cls-4" x="583.12" y="162.49" width="1.97" height="109.41"/><rect class="cls-4" x="591.77" y="162.49" width="1.98" height="109.41"/><rect class="cls-4" x="600.42" y="162.49" width="1.97" height="109.41"/><rect class="cls-4" x="609.08" y="162.49" width="1.97" height="109.41"/><rect class="cls-4" x="617.73" y="162.49" width="1.97" height="109.41"/><rect class="cls-4" x="626.38" y="162.49" width="1.98" height="109.41"/><rect class="cls-4" x="635.03" y="162.49" width="1.97" height="109.41"/><rect class="cls-4" x="643.68" y="162.49" width="1.97" height="109.41"/><rect class="cls-4" x="652.34" y="162.49" width="1.96" height="109.41"/><rect class="cls-4" x="660.99" y="162.49" width="1.97" height="109.41"/><rect class="cls-4" x="669.64" y="162.49" width="1.97" height="109.41"/><rect class="cls-4" x="678.29" y="162.49" width="1.97" height="109.41"/><rect class="cls-4" x="686.94" y="162.49" width="1.97" height="109.41"/><rect class="cls-4" x="695.59" y="162.49" width="1.97" height="109.41"/></g><ellipse class="cls-4" cx="535.34" cy="214.4" rx="114.64" ry="42.54"/><path class="cls-5" d="M975.47,460.68c-55.45,0-94.09-16.08-94.09-30.52s38.64-30.51,94.09-30.51,94.09,16.08,94.09,30.51S1030.92,460.68,975.47,460.68Z" transform="translate(-440.13 -217.44)"/><path class="cls-6" d="M975.47,404c25.33,0,49,3.45,66.7,9.71,15.93,5.64,23.06,12.34,23.06,16.48s-7.13,10.84-23.06,16.48c-17.68,6.26-41.37,9.71-66.7,9.71s-49-3.45-66.7-9.71c-15.93-5.64-23.06-12.34-23.06-16.48s7.13-10.84,23.06-16.48c17.68-6.26,41.37-9.71,66.7-9.71m0-8.65c-54.35,0-98.41,15.59-98.41,34.84S921.12,465,975.47,465s98.42-15.6,98.42-34.84-44.06-34.84-98.42-34.84h0Z" transform="translate(-440.13 -217.44)"/><text class="cls-2" transform="translate(577.94 229.79) rotate(-90.3) scale(0.55 1)">$</text><ellipse class="cls-7" cx="535.34" cy="209.17" rx="109.33" ry="37.31"/><path class="cls-3" d="M1090.11,419.73c0,23.49-51.33,42.53-114.64,42.53s-114.64-19-114.64-42.53,51.33-42.54,114.64-42.54S1090.11,396.23,1090.11,419.73Z" transform="translate(-440.13 -217.44)"/><polygon class="cls-3" points="420.79 185.64 420.7 202.28 649.98 202.28 649.94 188.4 420.79 185.64"/><g class="cls-19"><rect class="cls-4" x="401.43" y="135.4" width="1.97" height="109.41"/><rect class="cls-4" x="410.08" y="135.4" width="1.97" height="109.41"/><rect class="cls-4" x="418.73" y="135.4" width="1.98" height="109.41"/><rect class="cls-4" x="427.38" y="135.4" width="1.97" height="109.41"/><rect class="cls-4" x="436.03" y="135.4" width="1.97" height="109.41"/><rect class="cls-4" x="444.68" y="135.4" width="1.97" height="109.41"/><rect class="cls-4" x="453.34" y="135.4" width="1.97" height="109.41"/><rect class="cls-4" x="461.99" y="135.4" width="1.97" height="109.41"/><rect class="cls-4" x="470.64" y="135.4" width="1.97" height="109.41"/><rect class="cls-4" x="479.29" y="135.4" width="1.97" height="109.41"/><rect class="cls-4" x="487.95" y="135.4" width="1.97" height="109.41"/><rect class="cls-4" x="496.6" y="135.4" width="1.97" height="109.41"/><rect class="cls-4" x="505.25" y="135.4" width="1.97" height="109.41"/><rect class="cls-4" x="513.9" y="135.4" width="1.97" height="109.41"/><rect class="cls-4" x="522.55" y="135.4" width="1.97" height="109.41"/><rect class="cls-4" x="531.21" y="135.4" width="1.97" height="109.41"/><rect class="cls-4" x="539.86" y="135.4" width="1.97" height="109.41"/><rect class="cls-4" x="548.51" y="135.4" width="1.97" height="109.41"/><rect class="cls-4" x="557.16" y="135.4" width="1.97" height="109.41"/><rect class="cls-4" x="565.82" y="135.4" width="1.97" height="109.41"/><rect class="cls-4" x="574.47" y="135.4" width="1.98" height="109.41"/><rect class="cls-4" x="583.12" y="135.4" width="1.97" height="109.41"/><rect class="cls-4" x="591.77" y="135.4" width="1.98" height="109.41"/><rect class="cls-4" x="600.42" y="135.4" width="1.97" height="109.41"/><rect class="cls-4" x="609.08" y="135.4" width="1.97" height="109.41"/><rect class="cls-4" x="617.73" y="135.4" width="1.97" height="109.41"/><rect class="cls-4" x="626.38" y="135.4" width="1.98" height="109.41"/><rect class="cls-4" x="635.03" y="135.4" width="1.97" height="109.41"/><rect class="cls-4" x="643.68" y="135.4" width="1.97" height="109.41"/><rect class="cls-4" x="652.34" y="135.4" width="1.96" height="109.41"/><rect class="cls-4" x="660.99" y="135.4" width="1.97" height="109.41"/><rect class="cls-4" x="669.64" y="135.4" width="1.97" height="109.41"/><rect class="cls-4" x="678.29" y="135.4" width="1.97" height="109.41"/><rect class="cls-4" x="686.94" y="135.4" width="1.97" height="109.41"/><rect class="cls-4" x="695.59" y="135.4" width="1.97" height="109.41"/></g><path class="cls-4" d="M1090.11,404.76c0,23.49-51.33,42.54-114.64,42.54s-114.64-19.05-114.64-42.54,51.33-42.54,114.64-42.54S1090.11,381.27,1090.11,404.76Z" transform="translate(-440.13 -217.44)"/><path class="cls-5" d="M975.47,433.6c-55.45,0-94.09-16.08-94.09-30.51s38.64-30.52,94.09-30.52,94.09,16.08,94.09,30.52S1030.92,433.6,975.47,433.6Z" transform="translate(-440.13 -217.44)"/><path class="cls-6" d="M975.47,376.89c25.33,0,49,3.45,66.7,9.71,15.93,5.64,23.06,12.34,23.06,16.48s-7.13,10.84-23.06,16.48c-17.68,6.26-41.37,9.71-66.7,9.71s-49-3.45-66.7-9.71c-15.93-5.64-23.06-12.34-23.06-16.48s7.13-10.84,23.06-16.48c17.68-6.26,41.37-9.71,66.7-9.71m0-8.65c-54.35,0-98.41,15.6-98.41,34.85s44.06,34.84,98.41,34.84,98.42-15.6,98.42-34.84-44.06-34.85-98.42-34.85h0Z" transform="translate(-440.13 -217.44)"/><text class="cls-2" transform="translate(577.94 202.71) rotate(-90.3) scale(0.55 1)">$</text><ellipse class="cls-7" cx="535.34" cy="182.09" rx="109.33" ry="37.31"/><ellipse class="cls-3" cx="535.34" cy="175.2" rx="114.64" ry="42.54"/><polygon class="cls-3" points="420.79 158.56 420.7 175.2 649.98 175.2 649.94 161.32 420.79 158.56"/><g class="cls-20"><rect class="cls-4" x="401.43" y="108.32" width="1.97" height="109.42"/><rect class="cls-4" x="410.08" y="108.32" width="1.97" height="109.42"/><rect class="cls-4" x="418.73" y="108.32" width="1.98" height="109.42"/><rect class="cls-4" x="427.38" y="108.32" width="1.97" height="109.42"/><rect class="cls-4" x="436.03" y="108.32" width="1.97" height="109.42"/><rect class="cls-4" x="444.68" y="108.32" width="1.97" height="109.42"/><rect class="cls-4" x="453.34" y="108.32" width="1.97" height="109.42"/><rect class="cls-4" x="461.99" y="108.32" width="1.97" height="109.42"/><rect class="cls-4" x="470.64" y="108.32" width="1.97" height="109.42"/><rect class="cls-4" x="479.29" y="108.32" width="1.97" height="109.42"/><rect class="cls-4" x="487.95" y="108.32" width="1.97" height="109.42"/><rect class="cls-4" x="496.6" y="108.32" width="1.97" height="109.42"/><rect class="cls-4" x="505.25" y="108.32" width="1.97" height="109.42"/><rect class="cls-4" x="513.9" y="108.32" width="1.97" height="109.42"/><rect class="cls-4" x="522.55" y="108.32" width="1.97" height="109.42"/><rect class="cls-4" x="531.21" y="108.32" width="1.97" height="109.42"/><rect class="cls-4" x="539.86" y="108.32" width="1.97" height="109.42"/><rect class="cls-4" x="548.51" y="108.32" width="1.97" height="109.42"/><rect class="cls-4" x="557.16" y="108.32" width="1.97" height="109.42"/><rect class="cls-4" x="565.82" y="108.32" width="1.97" height="109.42"/><rect class="cls-4" x="574.47" y="108.32" width="1.98" height="109.42"/><rect class="cls-4" x="583.12" y="108.32" width="1.97" height="109.42"/><rect class="cls-4" x="591.77" y="108.32" width="1.98" height="109.42"/><rect class="cls-4" x="600.42" y="108.32" width="1.97" height="109.42"/><rect class="cls-4" x="609.08" y="108.32" width="1.97" height="109.42"/><rect class="cls-4" x="617.73" y="108.32" width="1.97" height="109.42"/><rect class="cls-4" x="626.38" y="108.32" width="1.98" height="109.42"/><rect class="cls-4" x="635.03" y="108.32" width="1.97" height="109.42"/><rect class="cls-4" x="643.68" y="108.32" width="1.97" height="109.42"/><rect class="cls-4" x="652.34" y="108.32" width="1.96" height="109.42"/><rect class="cls-4" x="660.99" y="108.32" width="1.97" height="109.42"/><rect class="cls-4" x="669.64" y="108.32" width="1.97" height="109.42"/><rect class="cls-4" x="678.29" y="108.32" width="1.97" height="109.42"/><rect class="cls-4" x="686.94" y="108.32" width="1.97" height="109.42"/><rect class="cls-4" x="695.59" y="108.32" width="1.97" height="109.42"/></g><path class="cls-4" d="M1090.11,377.68c0,23.49-51.33,42.54-114.64,42.54s-114.64-19.05-114.64-42.54,51.33-42.54,114.64-42.54S1090.11,354.19,1090.11,377.68Z" transform="translate(-440.13 -217.44)"/><path class="cls-5" d="M975.47,406.52c-55.45,0-94.09-16.08-94.09-30.52s38.64-30.52,94.09-30.52,94.09,16.08,94.09,30.52S1030.92,406.52,975.47,406.52Z" transform="translate(-440.13 -217.44)"/><path class="cls-6" d="M975.47,349.81c25.33,0,49,3.45,66.7,9.71,15.93,5.64,23.06,12.34,23.06,16.48s-7.13,10.84-23.06,16.48c-17.69,6.26-41.37,9.71-66.7,9.71s-49-3.45-66.7-9.71c-15.93-5.64-23.06-12.34-23.06-16.48s7.13-10.84,23.06-16.48c17.68-6.26,41.37-9.71,66.7-9.71m0-8.65c-54.35,0-98.41,15.6-98.41,34.84s44.06,34.85,98.41,34.85,98.42-15.6,98.42-34.85-44.06-34.84-98.42-34.84h0Z" transform="translate(-440.13 -217.44)"/><text class="cls-2" transform="translate(577.95 175.62) rotate(-90.3) scale(0.55 1)">$</text><ellipse class="cls-7" cx="535.34" cy="155.01" rx="109.33" ry="37.31"/><ellipse class="cls-3" cx="535.34" cy="148.12" rx="114.64" ry="42.54"/><polygon class="cls-3" points="420.79 131.48 420.7 148.12 649.98 148.12 649.94 134.25 420.79 131.48"/><g class="cls-21"><rect class="cls-4" x="401.43" y="81.24" width="1.97" height="109.42"/><rect class="cls-4" x="410.08" y="81.24" width="1.97" height="109.42"/><rect class="cls-4" x="418.73" y="81.24" width="1.98" height="109.42"/><rect class="cls-4" x="427.38" y="81.24" width="1.97" height="109.42"/><rect class="cls-4" x="436.03" y="81.24" width="1.97" height="109.42"/><rect class="cls-4" x="444.68" y="81.24" width="1.97" height="109.42"/><rect class="cls-4" x="453.34" y="81.24" width="1.97" height="109.42"/><rect class="cls-4" x="461.99" y="81.24" width="1.97" height="109.42"/><rect class="cls-4" x="470.64" y="81.24" width="1.97" height="109.42"/><rect class="cls-4" x="479.29" y="81.24" width="1.97" height="109.42"/><rect class="cls-4" x="487.95" y="81.24" width="1.97" height="109.42"/><rect class="cls-4" x="496.6" y="81.24" width="1.97" height="109.42"/><rect class="cls-4" x="505.25" y="81.24" width="1.97" height="109.42"/><rect class="cls-4" x="513.9" y="81.24" width="1.97" height="109.42"/><rect class="cls-4" x="522.55" y="81.24" width="1.97" height="109.42"/><rect class="cls-4" x="531.21" y="81.24" width="1.97" height="109.42"/><rect class="cls-4" x="539.86" y="81.24" width="1.97" height="109.42"/><rect class="cls-4" x="548.51" y="81.24" width="1.97" height="109.42"/><rect class="cls-4" x="557.16" y="81.24" width="1.97" height="109.42"/><rect class="cls-4" x="565.82" y="81.24" width="1.97" height="109.42"/><rect class="cls-4" x="574.47" y="81.24" width="1.98" height="109.42"/><rect class="cls-4" x="583.12" y="81.24" width="1.97" height="109.42"/><rect class="cls-4" x="591.77" y="81.24" width="1.98" height="109.42"/><rect class="cls-4" x="600.42" y="81.24" width="1.97" height="109.42"/><rect class="cls-4" x="609.08" y="81.24" width="1.97" height="109.42"/><rect class="cls-4" x="617.73" y="81.24" width="1.97" height="109.42"/><rect class="cls-4" x="626.38" y="81.24" width="1.98" height="109.42"/><rect class="cls-4" x="635.03" y="81.24" width="1.97" height="109.42"/><rect class="cls-4" x="643.68" y="81.24" width="1.97" height="109.42"/><rect class="cls-4" x="652.34" y="81.24" width="1.96" height="109.42"/><rect class="cls-4" x="660.99" y="81.24" width="1.97" height="109.42"/><rect class="cls-4" x="669.64" y="81.24" width="1.97" height="109.42"/><rect class="cls-4" x="678.29" y="81.24" width="1.97" height="109.42"/><rect class="cls-4" x="686.94" y="81.24" width="1.97" height="109.42"/><rect class="cls-4" x="695.59" y="81.24" width="1.97" height="109.42"/></g><ellipse class="cls-4" cx="535.34" cy="133.16" rx="114.64" ry="42.54"/><path class="cls-5" d="M975.47,379.44c-55.45,0-94.09-16.08-94.09-30.52s38.64-30.51,94.09-30.51,94.09,16.08,94.09,30.51S1030.92,379.44,975.47,379.44Z" transform="translate(-440.13 -217.44)"/><path class="cls-6" d="M975.47,322.73c25.33,0,49,3.45,66.7,9.71,15.93,5.64,23.06,12.34,23.06,16.48s-7.13,10.84-23.06,16.48c-17.69,6.26-41.37,9.71-66.7,9.71s-49-3.45-66.7-9.71c-15.93-5.64-23.06-12.34-23.06-16.48s7.13-10.84,23.06-16.48c17.68-6.26,41.37-9.71,66.7-9.71m0-8.65c-54.35,0-98.41,15.6-98.41,34.84s44.06,34.85,98.41,34.85,98.42-15.6,98.42-34.85-44.06-34.84-98.42-34.84h0Z" transform="translate(-440.13 -217.44)"/><text class="cls-2" transform="translate(577.94 148.55) rotate(-90.3) scale(0.55 1)">$</text><ellipse class="cls-7" cx="535.34" cy="127.93" rx="109.33" ry="37.31"/><ellipse class="cls-3" cx="535.34" cy="121.04" rx="114.64" ry="42.54"/><polygon class="cls-3" points="420.79 104.4 420.7 121.04 649.98 121.04 649.94 107.16 420.79 104.4"/><g class="cls-22"><rect class="cls-4" x="401.43" y="54.16" width="1.97" height="109.42"/><rect class="cls-4" x="410.08" y="54.16" width="1.97" height="109.42"/><rect class="cls-4" x="418.73" y="54.16" width="1.98" height="109.42"/><rect class="cls-4" x="427.38" y="54.16" width="1.97" height="109.42"/><rect class="cls-4" x="436.03" y="54.16" width="1.97" height="109.42"/><rect class="cls-4" x="444.68" y="54.16" width="1.97" height="109.42"/><rect class="cls-4" x="453.34" y="54.16" width="1.97" height="109.42"/><rect class="cls-4" x="461.99" y="54.16" width="1.97" height="109.42"/><rect class="cls-4" x="470.64" y="54.16" width="1.97" height="109.42"/><rect class="cls-4" x="479.29" y="54.16" width="1.97" height="109.42"/><rect class="cls-4" x="487.95" y="54.16" width="1.97" height="109.42"/><rect class="cls-4" x="496.6" y="54.16" width="1.97" height="109.42"/><rect class="cls-4" x="505.25" y="54.16" width="1.97" height="109.42"/><rect class="cls-4" x="513.9" y="54.16" width="1.97" height="109.42"/><rect class="cls-4" x="522.55" y="54.16" width="1.97" height="109.42"/><rect class="cls-4" x="531.21" y="54.16" width="1.97" height="109.42"/><rect class="cls-4" x="539.86" y="54.16" width="1.97" height="109.42"/><rect class="cls-4" x="548.51" y="54.16" width="1.97" height="109.42"/><rect class="cls-4" x="557.16" y="54.16" width="1.97" height="109.42"/><rect class="cls-4" x="565.82" y="54.16" width="1.97" height="109.42"/><rect class="cls-4" x="574.47" y="54.16" width="1.98" height="109.42"/><rect class="cls-4" x="583.12" y="54.16" width="1.97" height="109.42"/><rect class="cls-4" x="591.77" y="54.16" width="1.98" height="109.42"/><rect class="cls-4" x="600.42" y="54.16" width="1.97" height="109.42"/><rect class="cls-4" x="609.08" y="54.16" width="1.97" height="109.42"/><rect class="cls-4" x="617.73" y="54.16" width="1.97" height="109.42"/><rect class="cls-4" x="626.38" y="54.16" width="1.98" height="109.42"/><rect class="cls-4" x="635.03" y="54.16" width="1.97" height="109.42"/><rect class="cls-4" x="643.68" y="54.16" width="1.97" height="109.42"/><rect class="cls-4" x="652.34" y="54.16" width="1.96" height="109.42"/><rect class="cls-4" x="660.99" y="54.16" width="1.97" height="109.42"/><rect class="cls-4" x="669.64" y="54.16" width="1.97" height="109.42"/><rect class="cls-4" x="678.29" y="54.16" width="1.97" height="109.42"/><rect class="cls-4" x="686.94" y="54.16" width="1.97" height="109.42"/><rect class="cls-4" x="695.59" y="54.16" width="1.97" height="109.42"/></g><ellipse class="cls-4" cx="535.34" cy="106.08" rx="114.64" ry="42.54"/><path class="cls-5" d="M975.47,352.36c-55.45,0-94.09-16.08-94.09-30.52s38.64-30.52,94.09-30.52,94.09,16.08,94.09,30.52S1030.92,352.36,975.47,352.36Z" transform="translate(-440.13 -217.44)"/><path class="cls-6" d="M975.47,295.65c25.33,0,49,3.45,66.7,9.71,15.93,5.64,23.06,12.34,23.06,16.48s-7.13,10.84-23.06,16.48c-17.68,6.26-41.37,9.71-66.7,9.71s-49-3.45-66.7-9.71c-15.93-5.64-23.06-12.34-23.06-16.48s7.13-10.84,23.06-16.48c17.68-6.26,41.37-9.71,66.7-9.71m0-8.65c-54.35,0-98.41,15.6-98.41,34.84s44.06,34.84,98.41,34.84,98.42-15.6,98.42-34.84S1029.83,287,975.47,287h0Z" transform="translate(-440.13 -217.44)"/><text class="cls-2" transform="translate(577.95 121.47) rotate(-90.3) scale(0.55 1)">$</text><ellipse class="cls-7" cx="535.34" cy="100.85" rx="109.33" ry="37.31"/><ellipse class="cls-3" cx="535.34" cy="93.96" rx="114.64" ry="42.54"/><polygon class="cls-3" points="420.79 77.32 420.7 93.96 649.98 93.96 649.94 80.08 420.79 77.32"/><g class="cls-23"><rect class="cls-4" x="401.43" y="27.08" width="1.97" height="109.42"/><rect class="cls-4" x="410.08" y="27.08" width="1.97" height="109.42"/><rect class="cls-4" x="418.73" y="27.08" width="1.98" height="109.42"/><rect class="cls-4" x="427.38" y="27.08" width="1.97" height="109.42"/><rect class="cls-4" x="436.03" y="27.08" width="1.97" height="109.42"/><rect class="cls-4" x="444.68" y="27.08" width="1.97" height="109.42"/><rect class="cls-4" x="453.34" y="27.08" width="1.97" height="109.42"/><rect class="cls-4" x="461.99" y="27.08" width="1.97" height="109.42"/><rect class="cls-4" x="470.64" y="27.08" width="1.97" height="109.42"/><rect class="cls-4" x="479.29" y="27.08" width="1.97" height="109.42"/><rect class="cls-4" x="487.95" y="27.08" width="1.97" height="109.42"/><rect class="cls-4" x="496.6" y="27.08" width="1.97" height="109.42"/><rect class="cls-4" x="505.25" y="27.08" width="1.97" height="109.42"/><rect class="cls-4" x="513.9" y="27.08" width="1.97" height="109.42"/><rect class="cls-4" x="522.55" y="27.08" width="1.97" height="109.42"/><rect class="cls-4" x="531.21" y="27.08" width="1.97" height="109.42"/><rect class="cls-4" x="539.86" y="27.08" width="1.97" height="109.42"/><rect class="cls-4" x="548.51" y="27.08" width="1.97" height="109.42"/><rect class="cls-4" x="557.16" y="27.08" width="1.97" height="109.42"/><rect class="cls-4" x="565.82" y="27.08" width="1.97" height="109.42"/><rect class="cls-4" x="574.47" y="27.08" width="1.98" height="109.42"/><rect class="cls-4" x="583.12" y="27.08" width="1.97" height="109.42"/><rect class="cls-4" x="591.77" y="27.08" width="1.98" height="109.42"/><rect class="cls-4" x="600.42" y="27.08" width="1.97" height="109.42"/><rect class="cls-4" x="609.08" y="27.08" width="1.97" height="109.42"/><rect class="cls-4" x="617.73" y="27.08" width="1.97" height="109.42"/><rect class="cls-4" x="626.38" y="27.08" width="1.98" height="109.42"/><rect class="cls-4" x="635.03" y="27.08" width="1.97" height="109.42"/><rect class="cls-4" x="643.68" y="27.08" width="1.97" height="109.42"/><rect class="cls-4" x="652.34" y="27.08" width="1.96" height="109.42"/><rect class="cls-4" x="660.99" y="27.08" width="1.97" height="109.42"/><rect class="cls-4" x="669.64" y="27.08" width="1.97" height="109.42"/><rect class="cls-4" x="678.29" y="27.08" width="1.97" height="109.42"/><rect class="cls-4" x="686.94" y="27.08" width="1.97" height="109.42"/><rect class="cls-4" x="695.59" y="27.08" width="1.97" height="109.42"/></g><ellipse class="cls-4" cx="535.34" cy="79" rx="114.64" ry="42.54"/><path class="cls-5" d="M975.47,325.28c-55.45,0-94.09-16.08-94.09-30.52s38.64-30.52,94.09-30.52,94.09,16.08,94.09,30.52S1030.92,325.28,975.47,325.28Z" transform="translate(-440.13 -217.44)"/><path class="cls-6" d="M975.47,268.57c25.33,0,49,3.45,66.7,9.71,15.93,5.64,23.06,12.34,23.06,16.48s-7.13,10.84-23.06,16.48c-17.68,6.26-41.37,9.71-66.7,9.71s-49-3.45-66.7-9.71c-15.93-5.64-23.06-12.34-23.06-16.48s7.13-10.84,23.06-16.48c17.68-6.26,41.37-9.71,66.7-9.71m0-8.65c-54.35,0-98.41,15.6-98.41,34.85s44.06,34.84,98.41,34.84,98.42-15.6,98.42-34.84-44.06-34.85-98.42-34.85h0Z" transform="translate(-440.13 -217.44)"/><text class="cls-2" transform="translate(577.94 94.39) rotate(-90.3) scale(0.55 1)">$</text><ellipse class="cls-7" cx="535.34" cy="73.77" rx="109.33" ry="37.31"/><path class="cls-3" d="M1090.11,284.32c0,23.5-51.33,42.54-114.64,42.54s-114.64-19-114.64-42.54,51.33-42.53,114.64-42.53S1090.11,260.83,1090.11,284.32Z" transform="translate(-440.13 -217.44)"/><polygon class="cls-3" points="420.79 50.24 420.7 66.87 649.98 66.87 649.94 53.01 420.79 50.24"/><g class="cls-24"><rect class="cls-4" x="401.43" width="1.97" height="109.42"/><rect class="cls-4" x="410.08" width="1.97" height="109.42"/><rect class="cls-4" x="418.73" width="1.98" height="109.42"/><rect class="cls-4" x="427.38" width="1.97" height="109.42"/><rect class="cls-4" x="436.03" width="1.97" height="109.42"/><rect class="cls-4" x="444.68" width="1.97" height="109.42"/><rect class="cls-4" x="453.34" width="1.97" height="109.42"/><rect class="cls-4" x="461.99" width="1.97" height="109.42"/><rect class="cls-4" x="470.64" width="1.97" height="109.42"/><rect class="cls-4" x="479.29" width="1.97" height="109.42"/><rect class="cls-4" x="487.95" width="1.97" height="109.42"/><rect class="cls-4" x="496.6" width="1.97" height="109.42"/><rect class="cls-4" x="505.25" width="1.97" height="109.42"/><rect class="cls-4" x="513.9" width="1.97" height="109.42"/><rect class="cls-4" x="522.55" width="1.97" height="109.42"/><rect class="cls-4" x="531.21" width="1.97" height="109.42"/><rect class="cls-4" x="539.86" width="1.97" height="109.42"/><rect class="cls-4" x="548.51" width="1.97" height="109.42"/><rect class="cls-4" x="557.16" width="1.97" height="109.42"/><rect class="cls-4" x="565.82" width="1.97" height="109.42"/><rect class="cls-4" x="574.47" width="1.98" height="109.42"/><rect class="cls-4" x="583.12" width="1.97" height="109.42"/><rect class="cls-4" x="591.77" width="1.98" height="109.42"/><rect class="cls-4" x="600.42" width="1.97" height="109.42"/><rect class="cls-4" x="609.08" width="1.97" height="109.42"/><rect class="cls-4" x="617.73" width="1.97" height="109.42"/><rect class="cls-4" x="626.38" width="1.98" height="109.42"/><rect class="cls-4" x="635.03" width="1.97" height="109.42"/><rect class="cls-4" x="643.68" width="1.97" height="109.42"/><rect class="cls-4" x="652.34" width="1.96" height="109.42"/><rect class="cls-4" x="660.99" width="1.97" height="109.42"/><rect class="cls-4" x="669.64" width="1.97" height="109.42"/><rect class="cls-4" x="678.29" width="1.97" height="109.42"/><rect class="cls-4" x="686.94" width="1.97" height="109.42"/><rect class="cls-4" x="695.59" width="1.97" height="109.42"/></g><ellipse class="cls-4" cx="535.34" cy="51.92" rx="114.64" ry="42.54"/><path class="cls-5" d="M975.47,298.2c-55.45,0-94.09-16.08-94.09-30.52s38.64-30.52,94.09-30.52,94.09,16.08,94.09,30.52S1030.92,298.2,975.47,298.2Z" transform="translate(-440.13 -217.44)"/><path class="cls-6" d="M975.47,241.49c25.33,0,49,3.45,66.7,9.71,15.93,5.64,23.06,12.34,23.06,16.48s-7.13,10.84-23.06,16.48c-17.69,6.26-41.38,9.71-66.7,9.71s-49-3.45-66.7-9.71c-15.93-5.64-23.06-12.34-23.06-16.48s7.13-10.84,23.06-16.48c17.68-6.26,41.37-9.71,66.7-9.71m0-8.65c-54.35,0-98.41,15.6-98.41,34.85s44.06,34.84,98.41,34.84,98.42-15.6,98.42-34.84-44.06-34.85-98.42-34.85h0Z" transform="translate(-440.13 -217.44)"/><text class="cls-2" transform="translate(577.94 67.31) rotate(-90.3) scale(0.55 1)">$</text><ellipse class="cls-4" cx="535.34" cy="50.24" rx="114.68" ry="42.55"/><path class="cls-5" d="M975.48,296.53c-55.47,0-94.13-16.09-94.13-30.52s38.66-30.53,94.13-30.53,94.12,16.09,94.12,30.53S1030.94,296.53,975.48,296.53Z" transform="translate(-440.13 -217.44)"/><path class="cls-6" d="M975.48,239.81c25.34,0,49,3.45,66.72,9.71,15.93,5.64,23.07,12.35,23.07,16.49s-7.13,10.84-23.07,16.48c-17.69,6.26-41.39,9.71-66.72,9.71s-49-3.45-66.73-9.71c-15.94-5.64-23.07-12.34-23.07-16.48s7.13-10.85,23.07-16.49c17.69-6.26,41.39-9.71,66.73-9.71m0-8.65C921.1,231.15,877,246.75,877,266s44.08,34.85,98.45,34.85,98.44-15.6,98.44-34.85-44.07-34.85-98.44-34.85h0Z" transform="translate(-440.13 -217.44)"/><text class="cls-16" transform="translate(577.96 65.64) rotate(-90.3) scale(0.55 1)">$</text><text class="cls-2" transform="translate(982.46 311.03) rotate(-90.3) scale(0.55 1)">$</text><polygon class="cls-3" points="825.31 266.88 825.22 283.52 1054.5 283.52 1054.46 269.64 825.31 266.88"/><path class="cls-4" d="M1494.63,486c0,23.49-51.32,42.54-114.64,42.54s-114.64-19-114.64-42.54,51.33-42.54,114.64-42.54S1494.63,462.51,1494.63,486Z" transform="translate(-440.13 -217.44)"/><path class="cls-5" d="M1380,514.85c-55.45,0-94.09-16.09-94.09-30.52s38.64-30.51,94.09-30.51,94.1,16.08,94.1,30.51S1435.44,514.85,1380,514.85Z" transform="translate(-440.13 -217.44)"/><path class="cls-6" d="M1380,458.13c25.33,0,49,3.45,66.71,9.71,15.93,5.64,23.06,12.34,23.06,16.48s-7.13,10.85-23.06,16.49c-17.69,6.26-41.38,9.71-66.71,9.71s-49-3.45-66.7-9.71c-15.93-5.64-23.06-12.35-23.06-16.49s7.13-10.84,23.06-16.48c17.69-6.26,41.37-9.71,66.7-9.71m0-8.65c-54.35,0-98.41,15.6-98.41,34.84s44.06,34.85,98.41,34.85,98.42-15.6,98.42-34.85-44.06-34.84-98.42-34.84h0Z" transform="translate(-440.13 -217.44)"/><text class="cls-2" transform="translate(982.46 283.95) rotate(-90.3) scale(0.55 1)">$</text><ellipse class="cls-7" cx="939.86" cy="263.33" rx="109.33" ry="37.31"/><path class="cls-3" d="M1494.63,473.88c0,23.49-51.32,42.54-114.64,42.54s-114.64-19.05-114.64-42.54,51.33-42.54,114.64-42.54S1494.63,450.39,1494.63,473.88Z" transform="translate(-440.13 -217.44)"/><polygon class="cls-3" points="825.31 239.8 825.22 256.44 1054.5 256.44 1054.46 242.56 825.31 239.8"/><g class="cls-25"><rect class="cls-4" x="805.94" y="189.57" width="1.97" height="109.42"/><rect class="cls-4" x="814.6" y="189.57" width="1.97" height="109.42"/><rect class="cls-4" x="823.25" y="189.57" width="1.97" height="109.42"/><rect class="cls-4" x="831.9" y="189.57" width="1.97" height="109.42"/><rect class="cls-4" x="840.55" y="189.57" width="1.97" height="109.42"/><rect class="cls-4" x="849.2" y="189.57" width="1.97" height="109.42"/><rect class="cls-4" x="857.85" y="189.57" width="1.98" height="109.42"/><rect class="cls-4" x="866.51" y="189.57" width="1.97" height="109.42"/><rect class="cls-4" x="875.16" y="189.57" width="1.97" height="109.42"/><rect class="cls-4" x="883.81" y="189.57" width="1.97" height="109.42"/><rect class="cls-4" x="892.47" y="189.57" width="1.97" height="109.42"/><rect class="cls-4" x="901.12" y="189.57" width="1.97" height="109.42"/><rect class="cls-4" x="909.77" y="189.57" width="1.97" height="109.42"/><rect class="cls-4" x="918.42" y="189.57" width="1.97" height="109.42"/><rect class="cls-4" x="927.07" y="189.57" width="1.97" height="109.42"/><rect class="cls-4" x="935.72" y="189.57" width="1.97" height="109.42"/><rect class="cls-4" x="944.38" y="189.57" width="1.96" height="109.42"/><rect class="cls-4" x="953.03" y="189.57" width="1.97" height="109.42"/><rect class="cls-4" x="961.68" y="189.57" width="1.97" height="109.42"/><rect class="cls-4" x="970.34" y="189.57" width="1.97" height="109.42"/><rect class="cls-4" x="978.99" y="189.57" width="1.97" height="109.42"/><rect class="cls-4" x="987.64" y="189.57" width="1.97" height="109.42"/><rect class="cls-4" x="996.29" y="189.57" width="1.98" height="109.42"/><rect class="cls-4" x="1004.95" y="189.57" width="1.97" height="109.42"/><rect class="cls-4" x="1013.59" y="189.57" width="1.97" height="109.42"/><rect class="cls-4" x="1022.25" y="189.57" width="1.97" height="109.42"/><rect class="cls-4" x="1030.9" y="189.57" width="1.97" height="109.42"/><rect class="cls-4" x="1039.55" y="189.57" width="1.97" height="109.42"/><rect class="cls-4" x="1048.2" y="189.57" width="1.97" height="109.42"/><rect class="cls-4" x="1056.86" y="189.57" width="1.97" height="109.42"/><rect class="cls-4" x="1065.51" y="189.57" width="1.97" height="109.42"/><rect class="cls-4" x="1074.16" y="189.57" width="1.97" height="109.42"/><rect class="cls-4" x="1082.81" y="189.57" width="1.97" height="109.42"/><rect class="cls-4" x="1091.47" y="189.57" width="1.97" height="109.42"/><rect class="cls-4" x="1100.11" y="189.57" width="1.97" height="109.42"/></g><path class="cls-4" d="M1494.63,458.92c0,23.49-51.32,42.54-114.64,42.54s-114.64-19-114.64-42.54,51.33-42.54,114.64-42.54S1494.63,435.43,1494.63,458.92Z" transform="translate(-440.13 -217.44)"/><path class="cls-5" d="M1380,487.76c-55.45,0-94.09-16.08-94.09-30.52s38.64-30.51,94.09-30.51,94.1,16.08,94.1,30.51S1435.44,487.76,1380,487.76Z" transform="translate(-440.13 -217.44)"/><path class="cls-6" d="M1380,431.06c25.33,0,49,3.45,66.71,9.71,15.93,5.64,23.06,12.34,23.06,16.48s-7.13,10.84-23.06,16.48c-17.68,6.26-41.38,9.71-66.71,9.71s-49-3.45-66.7-9.71c-15.93-5.64-23.06-12.34-23.06-16.48s7.13-10.84,23.06-16.48c17.68-6.26,41.37-9.71,66.7-9.71m0-8.65c-54.35,0-98.41,15.6-98.41,34.84s44.06,34.85,98.41,34.85,98.42-15.6,98.42-34.85-44.06-34.84-98.42-34.84h0Z" transform="translate(-440.13 -217.44)"/><text class="cls-2" transform="translate(982.46 256.86) rotate(-90.3) scale(0.55 1)">$</text><ellipse class="cls-7" cx="939.86" cy="236.25" rx="109.33" ry="37.31"/><path class="cls-3" d="M1494.63,446.8c0,23.49-51.32,42.53-114.64,42.53s-114.64-19-114.64-42.53,51.33-42.54,114.64-42.54S1494.63,423.31,1494.63,446.8Z" transform="translate(-440.13 -217.44)"/><polygon class="cls-3" points="825.31 212.72 825.22 229.36 1054.5 229.36 1054.46 215.48 825.31 212.72"/><g class="cls-26"><rect class="cls-4" x="805.94" y="162.49" width="1.97" height="109.41"/><rect class="cls-4" x="814.6" y="162.49" width="1.97" height="109.41"/><rect class="cls-4" x="823.25" y="162.49" width="1.97" height="109.41"/><rect class="cls-4" x="831.9" y="162.49" width="1.97" height="109.41"/><rect class="cls-4" x="840.55" y="162.49" width="1.97" height="109.41"/><rect class="cls-4" x="849.2" y="162.49" width="1.97" height="109.41"/><rect class="cls-4" x="857.85" y="162.49" width="1.98" height="109.41"/><rect class="cls-4" x="866.51" y="162.49" width="1.97" height="109.41"/><rect class="cls-4" x="875.16" y="162.49" width="1.97" height="109.41"/><rect class="cls-4" x="883.81" y="162.49" width="1.97" height="109.41"/><rect class="cls-4" x="892.47" y="162.49" width="1.97" height="109.41"/><rect class="cls-4" x="901.12" y="162.49" width="1.97" height="109.41"/><rect class="cls-4" x="909.77" y="162.49" width="1.97" height="109.41"/><rect class="cls-4" x="918.42" y="162.49" width="1.97" height="109.41"/><rect class="cls-4" x="927.07" y="162.49" width="1.97" height="109.41"/><rect class="cls-4" x="935.72" y="162.49" width="1.97" height="109.41"/><rect class="cls-4" x="944.38" y="162.49" width="1.96" height="109.41"/><rect class="cls-4" x="953.03" y="162.49" width="1.97" height="109.41"/><rect class="cls-4" x="961.68" y="162.49" width="1.97" height="109.41"/><rect class="cls-4" x="970.34" y="162.49" width="1.97" height="109.41"/><rect class="cls-4" x="978.99" y="162.49" width="1.97" height="109.41"/><rect class="cls-4" x="987.64" y="162.49" width="1.97" height="109.41"/><rect class="cls-4" x="996.29" y="162.49" width="1.98" height="109.41"/><rect class="cls-4" x="1004.95" y="162.49" width="1.97" height="109.41"/><rect class="cls-4" x="1013.59" y="162.49" width="1.97" height="109.41"/><rect class="cls-4" x="1022.25" y="162.49" width="1.97" height="109.41"/><rect class="cls-4" x="1030.9" y="162.49" width="1.97" height="109.41"/><rect class="cls-4" x="1039.55" y="162.49" width="1.97" height="109.41"/><rect class="cls-4" x="1048.2" y="162.49" width="1.97" height="109.41"/><rect class="cls-4" x="1056.86" y="162.49" width="1.97" height="109.41"/><rect class="cls-4" x="1065.51" y="162.49" width="1.97" height="109.41"/><rect class="cls-4" x="1074.16" y="162.49" width="1.97" height="109.41"/><rect class="cls-4" x="1082.81" y="162.49" width="1.97" height="109.41"/><rect class="cls-4" x="1091.47" y="162.49" width="1.97" height="109.41"/><rect class="cls-4" x="1100.11" y="162.49" width="1.97" height="109.41"/></g><path class="cls-4" d="M1494.63,431.84c0,23.49-51.32,42.54-114.64,42.54s-114.64-19-114.64-42.54S1316.68,389.3,1380,389.3,1494.63,408.35,1494.63,431.84Z" transform="translate(-440.13 -217.44)"/><path class="cls-5" d="M1380,460.68c-55.45,0-94.09-16.08-94.09-30.52s38.64-30.51,94.09-30.51,94.1,16.08,94.1,30.51S1435.44,460.68,1380,460.68Z" transform="translate(-440.13 -217.44)"/><path class="cls-6" d="M1380,404c25.33,0,49,3.45,66.71,9.71,15.93,5.64,23.06,12.34,23.06,16.48s-7.13,10.84-23.06,16.48c-17.69,6.26-41.38,9.71-66.71,9.71s-49-3.45-66.7-9.71c-15.93-5.64-23.06-12.34-23.06-16.48s7.13-10.84,23.06-16.48c17.68-6.26,41.37-9.71,66.7-9.71m0-8.65c-54.35,0-98.41,15.59-98.41,34.84S1325.64,465,1380,465s98.42-15.6,98.42-34.84-44.06-34.84-98.42-34.84h0Z" transform="translate(-440.13 -217.44)"/><text class="cls-2" transform="translate(982.46 229.78) rotate(-90.3) scale(0.55 1)">$</text><ellipse class="cls-7" cx="939.86" cy="209.17" rx="109.33" ry="37.31"/><path class="cls-3" d="M1494.63,419.73c0,23.49-51.32,42.53-114.64,42.53s-114.64-19-114.64-42.53,51.33-42.54,114.64-42.54S1494.63,396.23,1494.63,419.73Z" transform="translate(-440.13 -217.44)"/><polygon class="cls-3" points="825.31 185.64 825.22 202.28 1054.5 202.28 1054.46 188.4 825.31 185.64"/><g class="cls-27"><rect class="cls-4" x="805.94" y="135.4" width="1.97" height="109.41"/><rect class="cls-4" x="814.6" y="135.4" width="1.97" height="109.41"/><rect class="cls-4" x="823.25" y="135.4" width="1.97" height="109.41"/><rect class="cls-4" x="831.9" y="135.4" width="1.97" height="109.41"/><rect class="cls-4" x="840.55" y="135.4" width="1.97" height="109.41"/><rect class="cls-4" x="849.2" y="135.4" width="1.97" height="109.41"/><rect class="cls-4" x="857.85" y="135.4" width="1.98" height="109.41"/><rect class="cls-4" x="866.51" y="135.4" width="1.97" height="109.41"/><rect class="cls-4" x="875.16" y="135.4" width="1.97" height="109.41"/><rect class="cls-4" x="883.81" y="135.4" width="1.97" height="109.41"/><rect class="cls-4" x="892.47" y="135.4" width="1.97" height="109.41"/><rect class="cls-4" x="901.12" y="135.4" width="1.97" height="109.41"/><rect class="cls-4" x="909.77" y="135.4" width="1.97" height="109.41"/><rect class="cls-4" x="918.42" y="135.4" width="1.97" height="109.41"/><rect class="cls-4" x="927.07" y="135.4" width="1.97" height="109.41"/><rect class="cls-4" x="935.72" y="135.4" width="1.97" height="109.41"/><rect class="cls-4" x="944.38" y="135.4" width="1.96" height="109.41"/><rect class="cls-4" x="953.03" y="135.4" width="1.97" height="109.41"/><rect class="cls-4" x="961.68" y="135.4" width="1.97" height="109.41"/><rect class="cls-4" x="970.34" y="135.4" width="1.97" height="109.41"/><rect class="cls-4" x="978.99" y="135.4" width="1.97" height="109.41"/><rect class="cls-4" x="987.64" y="135.4" width="1.97" height="109.41"/><rect class="cls-4" x="996.29" y="135.4" width="1.98" height="109.41"/><rect class="cls-4" x="1004.95" y="135.4" width="1.97" height="109.41"/><rect class="cls-4" x="1013.59" y="135.4" width="1.97" height="109.41"/><rect class="cls-4" x="1022.25" y="135.4" width="1.97" height="109.41"/><rect class="cls-4" x="1030.9" y="135.4" width="1.97" height="109.41"/><rect class="cls-4" x="1039.55" y="135.4" width="1.97" height="109.41"/><rect class="cls-4" x="1048.2" y="135.4" width="1.97" height="109.41"/><rect class="cls-4" x="1056.86" y="135.4" width="1.97" height="109.41"/><rect class="cls-4" x="1065.51" y="135.4" width="1.97" height="109.41"/><rect class="cls-4" x="1074.16" y="135.4" width="1.97" height="109.41"/><rect class="cls-4" x="1082.81" y="135.4" width="1.97" height="109.41"/><rect class="cls-4" x="1091.47" y="135.4" width="1.97" height="109.41"/><rect class="cls-4" x="1100.11" y="135.4" width="1.97" height="109.41"/></g><path class="cls-4" d="M1494.63,404.76c0,23.49-51.32,42.54-114.64,42.54s-114.64-19.05-114.64-42.54,51.33-42.54,114.64-42.54S1494.63,381.27,1494.63,404.76Z" transform="translate(-440.13 -217.44)"/><path class="cls-5" d="M1380,433.6c-55.45,0-94.09-16.08-94.09-30.51s38.64-30.52,94.09-30.52,94.1,16.08,94.1,30.52S1435.44,433.6,1380,433.6Z" transform="translate(-440.13 -217.44)"/><path class="cls-6" d="M1380,376.89c25.33,0,49,3.45,66.71,9.71,15.93,5.64,23.06,12.34,23.06,16.48s-7.13,10.84-23.06,16.48c-17.69,6.26-41.38,9.71-66.71,9.71s-49-3.45-66.7-9.71c-15.93-5.64-23.06-12.34-23.06-16.48s7.13-10.84,23.06-16.48c17.68-6.26,41.37-9.71,66.7-9.71m0-8.65c-54.35,0-98.41,15.6-98.41,34.85s44.06,34.84,98.41,34.84,98.42-15.6,98.42-34.84-44.06-34.85-98.42-34.85h0Z" transform="translate(-440.13 -217.44)"/><text class="cls-2" transform="translate(982.46 202.71) rotate(-90.3) scale(0.55 1)">$</text><ellipse class="cls-7" cx="939.86" cy="182.09" rx="109.33" ry="37.31"/><path class="cls-3" d="M1494.63,392.64c0,23.5-51.32,42.54-114.64,42.54s-114.64-19-114.64-42.54S1316.68,350.1,1380,350.1,1494.63,369.14,1494.63,392.64Z" transform="translate(-440.13 -217.44)"/><polygon class="cls-3" points="825.31 158.56 825.22 175.2 1054.5 175.2 1054.46 161.32 825.31 158.56"/><g class="cls-28"><rect class="cls-4" x="805.94" y="108.32" width="1.97" height="109.42"/><rect class="cls-4" x="814.6" y="108.32" width="1.97" height="109.42"/><rect class="cls-4" x="823.25" y="108.32" width="1.97" height="109.42"/><rect class="cls-4" x="831.9" y="108.32" width="1.97" height="109.42"/><rect class="cls-4" x="840.55" y="108.32" width="1.97" height="109.42"/><rect class="cls-4" x="849.2" y="108.32" width="1.97" height="109.42"/><rect class="cls-4" x="857.85" y="108.32" width="1.98" height="109.42"/><rect class="cls-4" x="866.51" y="108.32" width="1.97" height="109.42"/><rect class="cls-4" x="875.16" y="108.32" width="1.97" height="109.42"/><rect class="cls-4" x="883.81" y="108.32" width="1.97" height="109.42"/><rect class="cls-4" x="892.47" y="108.32" width="1.97" height="109.42"/><rect class="cls-4" x="901.12" y="108.32" width="1.97" height="109.42"/><rect class="cls-4" x="909.77" y="108.32" width="1.97" height="109.42"/><rect class="cls-4" x="918.42" y="108.32" width="1.97" height="109.42"/><rect class="cls-4" x="927.07" y="108.32" width="1.97" height="109.42"/><rect class="cls-4" x="935.72" y="108.32" width="1.97" height="109.42"/><rect class="cls-4" x="944.38" y="108.32" width="1.96" height="109.42"/><rect class="cls-4" x="953.03" y="108.32" width="1.97" height="109.42"/><rect class="cls-4" x="961.68" y="108.32" width="1.97" height="109.42"/><rect class="cls-4" x="970.34" y="108.32" width="1.97" height="109.42"/><rect class="cls-4" x="978.99" y="108.32" width="1.97" height="109.42"/><rect class="cls-4" x="987.64" y="108.32" width="1.97" height="109.42"/><rect class="cls-4" x="996.29" y="108.32" width="1.98" height="109.42"/><rect class="cls-4" x="1004.95" y="108.32" width="1.97" height="109.42"/><rect class="cls-4" x="1013.59" y="108.32" width="1.97" height="109.42"/><rect class="cls-4" x="1022.25" y="108.32" width="1.97" height="109.42"/><rect class="cls-4" x="1030.9" y="108.32" width="1.97" height="109.42"/><rect class="cls-4" x="1039.55" y="108.32" width="1.97" height="109.42"/><rect class="cls-4" x="1048.2" y="108.32" width="1.97" height="109.42"/><rect class="cls-4" x="1056.86" y="108.32" width="1.97" height="109.42"/><rect class="cls-4" x="1065.51" y="108.32" width="1.97" height="109.42"/><rect class="cls-4" x="1074.16" y="108.32" width="1.97" height="109.42"/><rect class="cls-4" x="1082.81" y="108.32" width="1.97" height="109.42"/><rect class="cls-4" x="1091.47" y="108.32" width="1.97" height="109.42"/><rect class="cls-4" x="1100.11" y="108.32" width="1.97" height="109.42"/></g><path class="cls-4" d="M1494.63,377.68c0,23.49-51.32,42.54-114.64,42.54s-114.64-19.05-114.64-42.54,51.33-42.54,114.64-42.54S1494.63,354.19,1494.63,377.68Z" transform="translate(-440.13 -217.44)"/><path class="cls-5" d="M1380,406.52c-55.45,0-94.09-16.08-94.09-30.52s38.64-30.52,94.09-30.52,94.1,16.08,94.1,30.52S1435.44,406.52,1380,406.52Z" transform="translate(-440.13 -217.44)"/><path class="cls-6" d="M1380,349.81c25.33,0,49,3.45,66.71,9.71,15.93,5.64,23.06,12.34,23.06,16.48s-7.13,10.84-23.06,16.48c-17.69,6.26-41.38,9.71-66.71,9.71s-49-3.45-66.7-9.71c-15.93-5.64-23.06-12.34-23.06-16.48s7.13-10.84,23.06-16.48c17.68-6.26,41.37-9.71,66.7-9.71m0-8.65c-54.35,0-98.41,15.6-98.41,34.84s44.06,34.85,98.41,34.85,98.42-15.6,98.42-34.85-44.06-34.84-98.42-34.84h0Z" transform="translate(-440.13 -217.44)"/><text class="cls-2" transform="translate(982.47 175.63) rotate(-90.3) scale(0.55 1)">$</text><ellipse class="cls-7" cx="939.86" cy="155.01" rx="109.33" ry="37.31"/><path class="cls-3" d="M1494.63,365.56c0,23.49-51.32,42.54-114.64,42.54s-114.64-19-114.64-42.54S1316.68,323,1380,323,1494.63,342.07,1494.63,365.56Z" transform="translate(-440.13 -217.44)"/><polygon class="cls-3" points="825.31 131.48 825.22 148.12 1054.5 148.12 1054.46 134.25 825.31 131.48"/><g class="cls-29"><rect class="cls-4" x="805.94" y="81.24" width="1.97" height="109.42"/><rect class="cls-4" x="814.6" y="81.24" width="1.97" height="109.42"/><rect class="cls-4" x="823.25" y="81.24" width="1.97" height="109.42"/><rect class="cls-4" x="831.9" y="81.24" width="1.97" height="109.42"/><rect class="cls-4" x="840.55" y="81.24" width="1.97" height="109.42"/><rect class="cls-4" x="849.2" y="81.24" width="1.97" height="109.42"/><rect class="cls-4" x="857.85" y="81.24" width="1.98" height="109.42"/><rect class="cls-4" x="866.51" y="81.24" width="1.97" height="109.42"/><rect class="cls-4" x="875.16" y="81.24" width="1.97" height="109.42"/><rect class="cls-4" x="883.81" y="81.24" width="1.97" height="109.42"/><rect class="cls-4" x="892.47" y="81.24" width="1.97" height="109.42"/><rect class="cls-4" x="901.12" y="81.24" width="1.97" height="109.42"/><rect class="cls-4" x="909.77" y="81.24" width="1.97" height="109.42"/><rect class="cls-4" x="918.42" y="81.24" width="1.97" height="109.42"/><rect class="cls-4" x="927.07" y="81.24" width="1.97" height="109.42"/><rect class="cls-4" x="935.72" y="81.24" width="1.97" height="109.42"/><rect class="cls-4" x="944.38" y="81.24" width="1.96" height="109.42"/><rect class="cls-4" x="953.03" y="81.24" width="1.97" height="109.42"/><rect class="cls-4" x="961.68" y="81.24" width="1.97" height="109.42"/><rect class="cls-4" x="970.34" y="81.24" width="1.97" height="109.42"/><rect class="cls-4" x="978.99" y="81.24" width="1.97" height="109.42"/><rect class="cls-4" x="987.64" y="81.24" width="1.97" height="109.42"/><rect class="cls-4" x="996.29" y="81.24" width="1.98" height="109.42"/><rect class="cls-4" x="1004.95" y="81.24" width="1.97" height="109.42"/><rect class="cls-4" x="1013.59" y="81.24" width="1.97" height="109.42"/><rect class="cls-4" x="1022.25" y="81.24" width="1.97" height="109.42"/><rect class="cls-4" x="1030.9" y="81.24" width="1.97" height="109.42"/><rect class="cls-4" x="1039.55" y="81.24" width="1.97" height="109.42"/><rect class="cls-4" x="1048.2" y="81.24" width="1.97" height="109.42"/><rect class="cls-4" x="1056.86" y="81.24" width="1.97" height="109.42"/><rect class="cls-4" x="1065.51" y="81.24" width="1.97" height="109.42"/><rect class="cls-4" x="1074.16" y="81.24" width="1.97" height="109.42"/><rect class="cls-4" x="1082.81" y="81.24" width="1.97" height="109.42"/><rect class="cls-4" x="1091.47" y="81.24" width="1.97" height="109.42"/><rect class="cls-4" x="1100.11" y="81.24" width="1.97" height="109.42"/></g><path class="cls-4" d="M1494.63,350.6c0,23.49-51.32,42.54-114.64,42.54s-114.64-19-114.64-42.54,51.33-42.54,114.64-42.54S1494.63,327.11,1494.63,350.6Z" transform="translate(-440.13 -217.44)"/><path class="cls-5" d="M1380,379.44c-55.45,0-94.09-16.08-94.09-30.52s38.64-30.51,94.09-30.51,94.1,16.08,94.1,30.51S1435.44,379.44,1380,379.44Z" transform="translate(-440.13 -217.44)"/><path class="cls-6" d="M1380,322.73c25.33,0,49,3.45,66.71,9.71,15.93,5.64,23.06,12.34,23.06,16.48s-7.13,10.84-23.06,16.48c-17.69,6.26-41.38,9.71-66.71,9.71s-49-3.45-66.7-9.71c-15.93-5.64-23.06-12.34-23.06-16.48s7.13-10.84,23.06-16.48c17.69-6.26,41.37-9.71,66.7-9.71m0-8.65c-54.35,0-98.41,15.6-98.41,34.84s44.06,34.85,98.41,34.85,98.42-15.6,98.42-34.85-44.06-34.84-98.42-34.84h0Z" transform="translate(-440.13 -217.44)"/><text class="cls-2" transform="translate(982.46 148.55) rotate(-90.3) scale(0.55 1)">$</text><ellipse class="cls-7" cx="939.86" cy="127.93" rx="109.33" ry="37.31"/><path class="cls-3" d="M1494.63,338.48C1494.63,362,1443.31,381,1380,381S1265.35,362,1265.35,338.48s51.33-42.54,114.64-42.54S1494.63,315,1494.63,338.48Z" transform="translate(-440.13 -217.44)"/><polygon class="cls-3" points="825.31 104.4 825.22 121.04 1054.5 121.04 1054.46 107.16 825.31 104.4"/><g class="cls-30"><rect class="cls-4" x="805.94" y="54.16" width="1.97" height="109.42"/><rect class="cls-4" x="814.6" y="54.16" width="1.97" height="109.42"/><rect class="cls-4" x="823.25" y="54.16" width="1.97" height="109.42"/><rect class="cls-4" x="831.9" y="54.16" width="1.97" height="109.42"/><rect class="cls-4" x="840.55" y="54.16" width="1.97" height="109.42"/><rect class="cls-4" x="849.2" y="54.16" width="1.97" height="109.42"/><rect class="cls-4" x="857.85" y="54.16" width="1.98" height="109.42"/><rect class="cls-4" x="866.51" y="54.16" width="1.97" height="109.42"/><rect class="cls-4" x="875.16" y="54.16" width="1.97" height="109.42"/><rect class="cls-4" x="883.81" y="54.16" width="1.97" height="109.42"/><rect class="cls-4" x="892.47" y="54.16" width="1.97" height="109.42"/><rect class="cls-4" x="901.12" y="54.16" width="1.97" height="109.42"/><rect class="cls-4" x="909.77" y="54.16" width="1.97" height="109.42"/><rect class="cls-4" x="918.42" y="54.16" width="1.97" height="109.42"/><rect class="cls-4" x="927.07" y="54.16" width="1.97" height="109.42"/><rect class="cls-4" x="935.72" y="54.16" width="1.97" height="109.42"/><rect class="cls-4" x="944.38" y="54.16" width="1.96" height="109.42"/><rect class="cls-4" x="953.03" y="54.16" width="1.97" height="109.42"/><rect class="cls-4" x="961.68" y="54.16" width="1.97" height="109.42"/><rect class="cls-4" x="970.34" y="54.16" width="1.97" height="109.42"/><rect class="cls-4" x="978.99" y="54.16" width="1.97" height="109.42"/><rect class="cls-4" x="987.64" y="54.16" width="1.97" height="109.42"/><rect class="cls-4" x="996.29" y="54.16" width="1.98" height="109.42"/><rect class="cls-4" x="1004.95" y="54.16" width="1.97" height="109.42"/><rect class="cls-4" x="1013.59" y="54.16" width="1.97" height="109.42"/><rect class="cls-4" x="1022.25" y="54.16" width="1.97" height="109.42"/><rect class="cls-4" x="1030.9" y="54.16" width="1.97" height="109.42"/><rect class="cls-4" x="1039.55" y="54.16" width="1.97" height="109.42"/><rect class="cls-4" x="1048.2" y="54.16" width="1.97" height="109.42"/><rect class="cls-4" x="1056.86" y="54.16" width="1.97" height="109.42"/><rect class="cls-4" x="1065.51" y="54.16" width="1.97" height="109.42"/><rect class="cls-4" x="1074.16" y="54.16" width="1.97" height="109.42"/><rect class="cls-4" x="1082.81" y="54.16" width="1.97" height="109.42"/><rect class="cls-4" x="1091.47" y="54.16" width="1.97" height="109.42"/><rect class="cls-4" x="1100.11" y="54.16" width="1.97" height="109.42"/></g><path class="cls-4" d="M1494.63,323.52c0,23.49-51.32,42.54-114.64,42.54s-114.64-19-114.64-42.54S1316.68,281,1380,281,1494.63,300,1494.63,323.52Z" transform="translate(-440.13 -217.44)"/><path class="cls-5" d="M1380,352.36c-55.45,0-94.09-16.08-94.09-30.52s38.64-30.52,94.09-30.52,94.1,16.08,94.1,30.52S1435.44,352.36,1380,352.36Z" transform="translate(-440.13 -217.44)"/><path class="cls-6" d="M1380,295.65c25.33,0,49,3.45,66.71,9.71,15.93,5.64,23.06,12.34,23.06,16.48s-7.13,10.84-23.06,16.48C1429,344.58,1405.32,348,1380,348s-49-3.45-66.7-9.71c-15.93-5.64-23.06-12.34-23.06-16.48s7.13-10.84,23.06-16.48c17.68-6.26,41.37-9.71,66.7-9.71m0-8.65c-54.35,0-98.41,15.6-98.41,34.84s44.06,34.84,98.41,34.84,98.42-15.6,98.42-34.84S1434.35,287,1380,287h0Z" transform="translate(-440.13 -217.44)"/><text class="cls-2" transform="translate(982.46 121.46) rotate(-90.3) scale(0.55 1)">$</text><ellipse class="cls-7" cx="939.86" cy="100.85" rx="109.33" ry="37.31"/><path class="cls-3" d="M1494.63,311.4c0,23.49-51.32,42.54-114.64,42.54s-114.64-19.05-114.64-42.54,51.33-42.54,114.64-42.54S1494.63,287.91,1494.63,311.4Z" transform="translate(-440.13 -217.44)"/><polygon class="cls-3" points="825.31 77.32 825.22 93.96 1054.5 93.96 1054.46 80.08 825.31 77.32"/><g class="cls-31"><rect class="cls-4" x="805.94" y="27.08" width="1.97" height="109.42"/><rect class="cls-4" x="814.6" y="27.08" width="1.97" height="109.42"/><rect class="cls-4" x="823.25" y="27.08" width="1.97" height="109.42"/><rect class="cls-4" x="831.9" y="27.08" width="1.97" height="109.42"/><rect class="cls-4" x="840.55" y="27.08" width="1.97" height="109.42"/><rect class="cls-4" x="849.2" y="27.08" width="1.97" height="109.42"/><rect class="cls-4" x="857.85" y="27.08" width="1.98" height="109.42"/><rect class="cls-4" x="866.51" y="27.08" width="1.97" height="109.42"/><rect class="cls-4" x="875.16" y="27.08" width="1.97" height="109.42"/><rect class="cls-4" x="883.81" y="27.08" width="1.97" height="109.42"/><rect class="cls-4" x="892.47" y="27.08" width="1.97" height="109.42"/><rect class="cls-4" x="901.12" y="27.08" width="1.97" height="109.42"/><rect class="cls-4" x="909.77" y="27.08" width="1.97" height="109.42"/><rect class="cls-4" x="918.42" y="27.08" width="1.97" height="109.42"/><rect class="cls-4" x="927.07" y="27.08" width="1.97" height="109.42"/><rect class="cls-4" x="935.72" y="27.08" width="1.97" height="109.42"/><rect class="cls-4" x="944.38" y="27.08" width="1.96" height="109.42"/><rect class="cls-4" x="953.03" y="27.08" width="1.97" height="109.42"/><rect class="cls-4" x="961.68" y="27.08" width="1.97" height="109.42"/><rect class="cls-4" x="970.34" y="27.08" width="1.97" height="109.42"/><rect class="cls-4" x="978.99" y="27.08" width="1.97" height="109.42"/><rect class="cls-4" x="987.64" y="27.08" width="1.97" height="109.42"/><rect class="cls-4" x="996.29" y="27.08" width="1.98" height="109.42"/><rect class="cls-4" x="1004.95" y="27.08" width="1.97" height="109.42"/><rect class="cls-4" x="1013.59" y="27.08" width="1.97" height="109.42"/><rect class="cls-4" x="1022.25" y="27.08" width="1.97" height="109.42"/><rect class="cls-4" x="1030.9" y="27.08" width="1.97" height="109.42"/><rect class="cls-4" x="1039.55" y="27.08" width="1.97" height="109.42"/><rect class="cls-4" x="1048.2" y="27.08" width="1.97" height="109.42"/><rect class="cls-4" x="1056.86" y="27.08" width="1.97" height="109.42"/><rect class="cls-4" x="1065.51" y="27.08" width="1.97" height="109.42"/><rect class="cls-4" x="1074.16" y="27.08" width="1.97" height="109.42"/><rect class="cls-4" x="1082.81" y="27.08" width="1.97" height="109.42"/><rect class="cls-4" x="1091.47" y="27.08" width="1.97" height="109.42"/><rect class="cls-4" x="1100.11" y="27.08" width="1.97" height="109.42"/></g><path class="cls-4" d="M1494.63,296.44c0,23.5-51.32,42.54-114.64,42.54s-114.64-19-114.64-42.54S1316.68,253.9,1380,253.9,1494.63,272.95,1494.63,296.44Z" transform="translate(-440.13 -217.44)"/><path class="cls-5" d="M1380,325.28c-55.45,0-94.09-16.08-94.09-30.52s38.64-30.52,94.09-30.52,94.1,16.08,94.1,30.52S1435.44,325.28,1380,325.28Z" transform="translate(-440.13 -217.44)"/><path class="cls-6" d="M1380,268.57c25.33,0,49,3.45,66.71,9.71,15.93,5.64,23.06,12.34,23.06,16.48s-7.13,10.84-23.06,16.48C1429,317.51,1405.32,321,1380,321s-49-3.45-66.7-9.71c-15.93-5.64-23.06-12.34-23.06-16.48s7.13-10.84,23.06-16.48c17.68-6.26,41.37-9.71,66.7-9.71m0-8.65c-54.35,0-98.41,15.6-98.41,34.85s44.06,34.84,98.41,34.84,98.42-15.6,98.42-34.84-44.06-34.85-98.42-34.85h0Z" transform="translate(-440.13 -217.44)"/><text class="cls-2" transform="translate(982.46 94.38) rotate(-90.3) scale(0.55 1)">$</text><ellipse class="cls-7" cx="939.86" cy="73.77" rx="109.33" ry="37.31"/><path class="cls-3" d="M1494.63,284.32c0,23.5-51.32,42.54-114.64,42.54s-114.64-19-114.64-42.54,51.33-42.53,114.64-42.53S1494.63,260.83,1494.63,284.32Z" transform="translate(-440.13 -217.44)"/><polygon class="cls-3" points="825.31 50.24 825.22 66.87 1054.5 66.87 1054.46 53.01 825.31 50.24"/><g class="cls-32"><rect class="cls-4" x="805.94" width="1.97" height="109.42"/><rect class="cls-4" x="814.6" width="1.97" height="109.42"/><rect class="cls-4" x="823.25" width="1.97" height="109.42"/><rect class="cls-4" x="831.9" width="1.97" height="109.42"/><rect class="cls-4" x="840.55" width="1.97" height="109.42"/><rect class="cls-4" x="849.2" width="1.97" height="109.42"/><rect class="cls-4" x="857.85" width="1.98" height="109.42"/><rect class="cls-4" x="866.51" width="1.97" height="109.42"/><rect class="cls-4" x="875.16" width="1.97" height="109.42"/><rect class="cls-4" x="883.81" width="1.97" height="109.42"/><rect class="cls-4" x="892.47" width="1.97" height="109.42"/><rect class="cls-4" x="901.12" width="1.97" height="109.42"/><rect class="cls-4" x="909.77" width="1.97" height="109.42"/><rect class="cls-4" x="918.42" width="1.97" height="109.42"/><rect class="cls-4" x="927.07" width="1.97" height="109.42"/><rect class="cls-4" x="935.72" width="1.97" height="109.42"/><rect class="cls-4" x="944.38" width="1.96" height="109.42"/><rect class="cls-4" x="953.03" width="1.97" height="109.42"/><rect class="cls-4" x="961.68" width="1.97" height="109.42"/><rect class="cls-4" x="970.34" width="1.97" height="109.42"/><rect class="cls-4" x="978.99" width="1.97" height="109.42"/><rect class="cls-4" x="987.64" width="1.97" height="109.42"/><rect class="cls-4" x="996.29" width="1.98" height="109.42"/><rect class="cls-4" x="1004.95" width="1.97" height="109.42"/><rect class="cls-4" x="1013.59" width="1.97" height="109.42"/><rect class="cls-4" x="1022.25" width="1.97" height="109.42"/><rect class="cls-4" x="1030.9" width="1.97" height="109.42"/><rect class="cls-4" x="1039.55" width="1.97" height="109.42"/><rect class="cls-4" x="1048.2" width="1.97" height="109.42"/><rect class="cls-4" x="1056.86" width="1.97" height="109.42"/><rect class="cls-4" x="1065.51" width="1.97" height="109.42"/><rect class="cls-4" x="1074.16" width="1.97" height="109.42"/><rect class="cls-4" x="1082.81" width="1.97" height="109.42"/><rect class="cls-4" x="1091.47" width="1.97" height="109.42"/><rect class="cls-4" x="1100.11" width="1.97" height="109.42"/></g><path class="cls-4" d="M1494.63,269.36c0,23.5-51.32,42.54-114.64,42.54s-114.64-19-114.64-42.54,51.33-42.54,114.64-42.54S1494.63,245.87,1494.63,269.36Z" transform="translate(-440.13 -217.44)"/><path class="cls-5" d="M1380,298.2c-55.45,0-94.09-16.08-94.09-30.52s38.64-30.52,94.09-30.52,94.1,16.08,94.1,30.52S1435.44,298.2,1380,298.2Z" transform="translate(-440.13 -217.44)"/><path class="cls-6" d="M1380,241.49c25.33,0,49,3.45,66.71,9.71,15.93,5.64,23.06,12.34,23.06,16.48s-7.13,10.84-23.06,16.48c-17.69,6.26-41.38,9.71-66.71,9.71s-49-3.45-66.7-9.71c-15.93-5.64-23.06-12.34-23.06-16.48s7.13-10.84,23.06-16.48c17.68-6.26,41.37-9.71,66.7-9.71m0-8.65c-54.35,0-98.41,15.6-98.41,34.85s44.06,34.84,98.41,34.84,98.42-15.6,98.42-34.84-44.06-34.85-98.42-34.85h0Z" transform="translate(-440.13 -217.44)"/><text class="cls-2" transform="translate(982.46 67.3) rotate(-90.3) scale(0.55 1)">$</text><ellipse class="cls-4" cx="939.86" cy="50.24" rx="114.68" ry="42.55"/><path class="cls-5" d="M1380,296.53c-55.47,0-94.12-16.09-94.12-30.52s38.65-30.53,94.12-30.53,94.12,16.09,94.12,30.53S1435.46,296.53,1380,296.53Z" transform="translate(-440.13 -217.44)"/><path class="cls-6" d="M1380,239.81c25.34,0,49,3.45,66.73,9.71,15.94,5.64,23.07,12.35,23.07,16.49s-7.13,10.84-23.07,16.48c-17.69,6.26-41.39,9.71-66.73,9.71s-49-3.45-66.72-9.71c-15.94-5.64-23.07-12.34-23.07-16.48s7.13-10.85,23.07-16.49c17.69-6.26,41.39-9.71,66.72-9.71m0-8.65c-54.37,0-98.45,15.6-98.45,34.85s44.08,34.85,98.45,34.85,98.45-15.6,98.45-34.85-44.08-34.85-98.45-34.85h0Z" transform="translate(-440.13 -217.44)"/><text class="cls-16" transform="translate(982.48 65.63) rotate(-90.3) scale(0.55 1)">$</text></svg>