<?xml version="1.0" encoding="UTF-8" standalone="no"?>
<svg
   xmlns:dc="http://purl.org/dc/elements/1.1/"
   xmlns:cc="http://creativecommons.org/ns#"
   xmlns:rdf="http://www.w3.org/1999/02/22-rdf-syntax-ns#"
   xmlns:svg="http://www.w3.org/2000/svg"
   xmlns="http://www.w3.org/2000/svg"
   viewBox="0 0 175.54668 52"
   height="52"
   width="175.54668"
   xml:space="preserve"
   id="svg2"
   version="1.1"><metadata
     id="metadata8"><rdf:RDF><cc:Work
         rdf:about=""><dc:format>image/svg+xml</dc:format><dc:type
           rdf:resource="http://purl.org/dc/dcmitype/StillImage" /></cc:Work></rdf:RDF></metadata><defs
     id="defs6"><clipPath
       id="clipPath20"
       clipPathUnits="userSpaceOnUse"><path
         id="path18"
         d="M 0,390 V 0 h 1316.6 v 390 z" /></clipPath><clipPath
       id="clipPath32"
       clipPathUnits="userSpaceOnUse"><path
         id="path30"
         d="m 891.551,80.7578 c 0,0 -9.02,-51.1992 -3.047,-65.7344 0,0 93.848,-23.14059 123.656,-11.98043 0,0 22.57,54.46483 4.31,87.38673 0,0 -83.568,9.0898 -124.919,-9.6719 z" /></clipPath><clipPath
       id="clipPath42"
       clipPathUnits="userSpaceOnUse"><path
         id="path40"
         d="M 0,390 V 0 h 1316.6 v 390 z" /></clipPath><clipPath
       id="clipPath52"
       clipPathUnits="userSpaceOnUse"><path
         id="path50"
         d="m 109.73,141.887 c 0,0 -62.9566,9.226 -62.8667,-3.149 0.0859,-12.371 -1.5547,-21.027 -1.5547,-21.027 0,0 176.1914,-83.1954 379.8474,-91.629 203.641,-8.4179 764.024,21.8946 764.024,21.8946 0,0 129.72,17.1718 127.38,61.2264 0,0 3.41,21.891 -52.83,41 0,0 -24.23,47.465 -95.98,53.75 -71.74,6.281 -816.734,-22.598 -816.734,-22.598 0,0 -70.164,-2.007 -92.305,38.524 -22.156,40.527 -101.195,169.832 -101.195,169.832 L 102.082,390 Z" /></clipPath><clipPath
       id="clipPath62"
       clipPathUnits="userSpaceOnUse"><path
         id="path60"
         d="M 0,390 V 0 h 1316.6 v 390 z" /></clipPath></defs><g
     transform="matrix(1.3333333,0,0,-1.3333333,0,52)"
     id="g10"><g
       transform="scale(0.1)"
       id="g12"><g
         id="g14"><g
           clip-path="url(#clipPath20)"
           id="g16"><path
             id="path22"
             style="fill:#675256;fill-opacity:1;fill-rule:nonzero;stroke:none"
             d="m 891.551,80.7578 c 0,0 -9.02,-51.1992 -3.047,-65.7344 0,0 93.848,-23.14059 123.656,-11.98043 0,0 22.57,54.46483 4.31,87.38673 0,0 -83.568,9.0898 -124.919,-9.6719" /><path
             id="path24"
             style="fill:#675256;fill-opacity:1;fill-rule:nonzero;stroke:none"
             d="m 891.551,80.7578 c 0,0 -9.02,-51.1992 -3.047,-65.7344 0,0 93.848,-23.14059 123.656,-11.98043 0,0 22.57,54.46483 4.31,87.38673 0,0 -83.568,9.0898 -124.919,-9.6719" /></g></g><g
         id="g26"><g
           clip-path="url(#clipPath32)"
           id="g28"><path
             id="path34"
             style="fill:#575a5c;fill-opacity:1;fill-rule:nonzero;stroke:none"
             d="m 884.188,39.625 145.542,-3.9414 -7.15,-51.8203 -147.803,16.652325 8.61,36.925775" /></g></g><g
         id="g36"><g
           clip-path="url(#clipPath42)"
           id="g38"><path
             id="path44"
             style="fill:#ffffff;fill-opacity:1;fill-rule:nonzero;stroke:none"
             d="m 109.73,141.887 c 0,0 -62.9566,9.226 -62.8667,-3.149 0.0859,-12.371 -1.5547,-21.027 -1.5547,-21.027 0,0 176.1914,-83.1954 379.8474,-91.629 203.641,-8.4179 764.024,21.8946 764.024,21.8946 0,0 129.72,17.1718 127.38,61.2264 0,0 3.41,21.891 -52.83,41 0,0 -24.23,47.465 -95.98,53.75 -71.74,6.281 -816.734,-22.598 -816.734,-22.598 0,0 -70.164,-2.007 -92.305,38.524 -22.156,40.527 -101.195,169.832 -101.195,169.832 L 102.082,390 109.73,141.887" /></g></g><g
         id="g46"><g
           clip-path="url(#clipPath52)"
           id="g48"><path
             id="path54"
             style="fill:#c9cac8;fill-opacity:1;fill-rule:nonzero;stroke:none"
             d="M 39.9922,108.004 1361.3,115.379 1400.03,-59.293 -22.8711,-85.6211 39.9922,108.004" /></g></g><g
         id="g56"><g
           clip-path="url(#clipPath62)"
           id="g58"><path
             id="path64"
             style="fill:#1a2129;fill-opacity:1;fill-rule:nonzero;stroke:none"
             d="m 1201.43,170.773 -0.77,-17.851 17.97,-0.43 0.16,20.383 -17.36,-2.102" /><path
             id="path66"
             style="fill:#1a2129;fill-opacity:1;fill-rule:nonzero;stroke:none"
             d="m 1223.89,171.012 0.72,-18.012 25.58,1.41 c 0,0 -12.16,18.352 -26.3,16.602" /><path
             id="path68"
             style="fill:#1a2129;fill-opacity:1;fill-rule:nonzero;stroke:none"
             d="m 1256.68,151.07 -10.9,16.528 c 0,0 14.56,-3.414 20.98,-18.496 l -10.08,1.968" /><path
             id="path70"
             style="fill:#1a2129;fill-opacity:1;fill-rule:nonzero;stroke:none"
             d="m 1084.78,149.496 -9.41,0.274 0.3,10.136 9.41,-0.269 -0.3,-10.141" /><path
             id="path72"
             style="fill:#1a2129;fill-opacity:1;fill-rule:nonzero;stroke:none"
             d="m 1045.17,147.34 -9.41,0.277 0.29,10.129 9.41,-0.273 -0.29,-10.133" /><path
             id="path74"
             style="fill:#1a2129;fill-opacity:1;fill-rule:nonzero;stroke:none"
             d="m 1004.82,146.727 -9.41,0.269 0.297,10.137 9.413,-0.278 -0.3,-10.128" /><path
             id="path76"
             style="fill:#1a2129;fill-opacity:1;fill-rule:nonzero;stroke:none"
             d="m 965.203,144.566 -9.406,0.274 0.297,10.137 9.414,-0.274 -0.305,-10.137" /><path
             id="path78"
             style="fill:#1a2129;fill-opacity:1;fill-rule:nonzero;stroke:none"
             d="m 927.355,143.035 -9.406,0.277 0.289,10.133 9.414,-0.277 -0.297,-10.133" /><path
             id="path80"
             style="fill:#1a2129;fill-opacity:1;fill-rule:nonzero;stroke:none"
             d="m 887.742,140.879 -9.414,0.273 0.297,10.137 9.406,-0.273 -0.289,-10.137" /><path
             id="path82"
             style="fill:#1a2129;fill-opacity:1;fill-rule:nonzero;stroke:none"
             d="m 847.398,140.266 -9.414,0.269 0.301,10.137 9.403,-0.277 -0.29,-10.129" /><path
             id="path84"
             style="fill:#1a2129;fill-opacity:1;fill-rule:nonzero;stroke:none"
             d="m 807.781,138.105 -9.406,0.274 0.293,10.137 9.406,-0.274 -0.293,-10.137" /><path
             id="path86"
             style="fill:#1a2129;fill-opacity:1;fill-rule:nonzero;stroke:none"
             d="m 754.77,136.703 -9.415,0.27 0.297,10.132 9.407,-0.265 -0.289,-10.137" /><path
             id="path88"
             style="fill:#1a2129;fill-opacity:1;fill-rule:nonzero;stroke:none"
             d="m 715.148,134.547 -9.406,0.277 0.293,10.129 9.41,-0.269 -0.297,-10.137" /><path
             id="path90"
             style="fill:#1a2129;fill-opacity:1;fill-rule:nonzero;stroke:none"
             d="m 695.793,132.938 -9.414,0.277 0.293,10.129 9.41,-0.278 -0.289,-10.128" /><path
             id="path92"
             style="fill:#1a2129;fill-opacity:1;fill-rule:nonzero;stroke:none"
             d="m 674.812,133.93 -9.414,0.273 0.297,10.137 9.407,-0.278 -0.29,-10.132" /><path
             id="path94"
             style="fill:#1a2129;fill-opacity:1;fill-rule:nonzero;stroke:none"
             d="m 655.449,132.32 -9.414,0.278 0.301,10.132 9.402,-0.277 -0.289,-10.133" /><path
             id="path96"
             style="fill:#1a2129;fill-opacity:1;fill-rule:nonzero;stroke:none"
             d="m 635.188,131.773 -9.403,0.278 0.289,10.129 9.414,-0.278 -0.3,-10.129" /><path
             id="path98"
             style="fill:#1a2129;fill-opacity:1;fill-rule:nonzero;stroke:none"
             d="m 615.836,130.164 -9.414,0.27 0.293,10.136 9.41,-0.269 -0.289,-10.137" /><path
             id="path100"
             style="fill:#1a2129;fill-opacity:1;fill-rule:nonzero;stroke:none"
             d="m 597.34,130.242 -9.41,0.27 0.289,10.136 9.414,-0.269 -0.293,-10.137" /><path
             id="path102"
             style="fill:#1a2129;fill-opacity:1;fill-rule:nonzero;stroke:none"
             d="m 577.98,128.633 -9.414,0.277 0.301,10.129 9.403,-0.273 -0.29,-10.133" /><path
             id="path104"
             style="fill:#1a2129;fill-opacity:1;fill-rule:nonzero;stroke:none"
             d="m 538.359,126.48 -9.406,0.266 0.297,10.137 9.406,-0.27 -0.297,-10.133" /><path
             id="path106"
             style="fill:#1a2129;fill-opacity:1;fill-rule:nonzero;stroke:none"
             d="m 498.023,125.859 -9.406,0.274 0.289,10.137 9.414,-0.278 -0.297,-10.133" /><path
             id="path108"
             style="fill:#1a2129;fill-opacity:1;fill-rule:nonzero;stroke:none"
             d="m 458.406,123.703 -9.41,0.274 0.289,10.136 9.414,-0.273 -0.293,-10.137" /><path
             id="path110"
             style="fill:#1a2129;fill-opacity:1;fill-rule:nonzero;stroke:none"
             d="m 426.117,122.129 -9.406,0.277 0.297,10.133 9.414,-0.273 -0.305,-10.137" /><path
             id="path112"
             style="fill:#1a2129;fill-opacity:1;fill-rule:nonzero;stroke:none"
             d="m 386.5,119.98 -9.406,0.27 0.293,10.133 9.41,-0.274 -0.297,-10.129" /><path
             id="path114"
             style="fill:#1a2129;fill-opacity:1;fill-rule:nonzero;stroke:none"
             d="m 346.168,119.359 -9.41,0.278 0.293,10.129 9.414,-0.278 -0.297,-10.129" /><path
             id="path116"
             style="fill:#575a5c;fill-opacity:1;fill-rule:nonzero;stroke:none"
             d="m 859.945,63.1289 c 0,0 -401.726,216.9141 -424.476,222.1801 -22.754,5.269 -70.684,11.289 -60.196,2.043 10.493,-9.25 247.43,-174.926 251.954,-192.0122 4.531,-17.0898 2.933,-31.9336 14.058,-35.25 11.133,-3.3125 184.203,-15.1679 218.66,3.0391" /><path
             id="path118"
             style="fill:#575a5c;fill-opacity:1;fill-rule:nonzero;stroke:none"
             d="M 202.016,117.996 167.445,103.688 0,172.875 40.9023,177.141 202.016,117.996" /><path
             id="path120"
             style="fill:#ffffff;fill-opacity:1;fill-rule:nonzero;stroke:none"
             d="m 819.598,87.957 c 0,0 -9.02,-51.207 -3.047,-65.7382 0,0 93.84,-23.136769 123.66,-11.9766 0,0 22.562,54.4648 4.316,87.3906 0,0 -83.586,9.0822 -124.929,-9.6758" /></g></g></g></g></svg>