<?xml version="1.0" encoding="UTF-8" standalone="no"?>
<svg
   xmlns:dc="http://purl.org/dc/elements/1.1/"
   xmlns:cc="http://creativecommons.org/ns#"
   xmlns:rdf="http://www.w3.org/1999/02/22-rdf-syntax-ns#"
   xmlns:svg="http://www.w3.org/2000/svg"
   xmlns="http://www.w3.org/2000/svg"
   viewBox="0 0 71.866669 21.360001"
   height="21.360001"
   width="71.866669"
   xml:space="preserve"
   id="svg2"
   version="1.1"><metadata
     id="metadata8"><rdf:RDF><cc:Work
         rdf:about=""><dc:format>image/svg+xml</dc:format><dc:type
           rdf:resource="http://purl.org/dc/dcmitype/StillImage" /></cc:Work></rdf:RDF></metadata><defs
     id="defs6" /><g
     transform="matrix(1.3333333,0,0,-1.3333333,0,21.36)"
     id="g10"><g
       transform="scale(0.1)"
       id="g12"><path
         id="path14"
         style="fill:#28292a;fill-opacity:1;fill-rule:nonzero;stroke:none"
         d="m 490,42.8477 c 0,2.2187 -4.004,0.582 -1.785,0.582 h 44.195 c 2.219,0 4.016,-0.082 4.016,-2.3008 l -4.016,-6.082 c -1.207,-2.4571 -1.797,-1.6172 -4.019,-1.6172 h -40.176 c -2.219,0 1.785,-1.2852 1.785,0.9336 v 8.4844" /><path
         id="path16"
         style="fill:#c12336;fill-opacity:1;fill-rule:nonzero;stroke:none"
         d="m 178.867,118.734 c 0,0 -72.129,-2.046 -96.0858,-4.019 C 54.3242,112.371 0,99.0234 0,76.7148 0,44.4102 24.1914,21.3086 43.2773,21.3086 c 117.3397,0 444.6017,1.0039 444.6017,1.0039 0,0 15.293,4.7187 22.465,11.4336 0.953,0.8945 2.336,2.9258 2.922,3.8359 11.714,18.1914 38.703,55.711 18.472,69.492 0,0 -74.172,51.313 -151.285,51.313 0,0 -45.965,1.59 -66.273,1.808 -31.825,0.344 -55.414,-0.05 -135.313,-41.461" /><path
         id="path18"
         style="fill:#f0f367;fill-opacity:1;fill-rule:nonzero;stroke:none"
         d="M 9.95312,82.9648 C 10.8281,80.3203 24.0977,82.332 39.5977,87.457 c 15.5,5.1211 27.3554,11.418 26.4804,14.063 -0.875,2.64 -14.1484,0.632 -29.6406,-4.4927 C 20.9336,91.9062 9.08594,85.6094 9.95312,82.9648" /><path
         id="path20"
         style="fill:#ee2432;fill-opacity:1;fill-rule:nonzero;stroke:none"
         d="m 521.363,94.8281 c 0,4.9258 2.344,9.2619 5.914,11.9569 1.614,-1.047 2.508,-1.664 2.508,-1.664 8.067,-5.4921 8.613,-14.7694 5.633,-25.0819 -7.781,0.1367 -14.055,6.6953 -14.055,14.789" /><path
         id="path22"
         style="fill:#a0d1dc;fill-opacity:1;fill-rule:nonzero;stroke:none"
         d="m 437.66,136.895 c 2.141,-1.106 7.535,-6.965 -7.195,-12.653 -14.735,-5.687 -31.305,-10.812 -70.477,-10.812 -39.172,0 -128.894,0 -128.894,0 0,0 -28.59,-2.223 -51.406,6.004 -0.946,0.664 -0.821,0.449 -0.821,0.449 28.649,14.847 49.438,23.625 66.582,29.781 162.449,7.024 184.043,-8.547 192.211,-12.769" /><path
         id="path24"
         style="fill:#c12336;fill-opacity:1;fill-rule:nonzero;stroke:none"
         d="m 380,103.43 h 10 v 50 h -10 z" /><path
         id="path26"
         style="fill:#c12336;fill-opacity:1;fill-rule:nonzero;stroke:none"
         d="m 199.691,110.754 3.668,-7.145 92.852,47.684 -3.668,7.148 -92.852,-47.687" /><path
         id="path28"
         style="fill:#28292a;fill-opacity:1;fill-rule:nonzero;stroke:none"
         d="m 340,87.3359 c 0,-2.1562 -0.18,-3.9062 2.039,-3.9062 h 21.965 c 2.219,0 5.996,1.75 5.996,3.9062 v 2.1875 c 0,2.1563 -3.777,3.9063 -5.996,3.9063 h -21.965 c -2.219,0 -2.039,-1.75 -2.039,-3.9063 v -2.1875" /><path
         id="path30"
         style="fill:#f0f367;fill-opacity:1;fill-rule:nonzero;stroke:none"
         d="m 511.207,33.4297 c -7.824,-10 -23.328,-12.0781 -23.328,-12.0781 0,0 -327.262,-1.3321 -444.6017,-1.3321 -8.7812,0 -18.6367,3.4102 -26.7265,13.4102 H 511.207" /><path
         id="path32"
         style="fill:#28292a;fill-opacity:1;fill-rule:nonzero;stroke:none"
         d="M 383.465,50.0547 C 383.465,22.4023 405.871,0 433.52,0 c 27.64,0 50.042,22.4023 50.042,50.0547 0,27.6406 -22.402,50.0433 -50.042,50.0433 -27.649,0 -50.055,-22.4027 -50.055,-50.0433" /><path
         id="path34"
         style="fill:#4e4e50;fill-opacity:1;fill-rule:nonzero;stroke:none"
         d="m 398.16,50.0547 c 0,-19.5274 15.836,-35.3555 35.36,-35.3555 19.527,0 35.351,15.8281 35.351,35.3555 0,19.5273 -15.824,35.3476 -35.351,35.3476 -19.524,0 -35.36,-15.8203 -35.36,-35.3476" /><path
         id="path36"
         style="fill:#28292a;fill-opacity:1;fill-rule:nonzero;stroke:none"
         d="M 55.4102,50.0547 C 55.4102,22.4023 77.8164,0 105.465,0 c 27.64,0 50.043,22.4023 50.043,50.0547 0,27.6406 -22.403,50.0433 -50.043,50.0433 -27.6486,0 -50.0548,-22.4027 -50.0548,-50.0433" /><path
         id="path38"
         style="fill:#4e4e50;fill-opacity:1;fill-rule:nonzero;stroke:none"
         d="m 70.1055,50.0547 c 0,-19.5274 15.8359,-35.3555 35.3595,-35.3555 19.527,0 35.351,15.8281 35.351,35.3555 0,19.5273 -15.824,35.3476 -35.351,35.3476 -19.5236,0 -35.3595,-15.8203 -35.3595,-35.3476" /><path
         id="path40"
         style="fill:#781521;fill-opacity:1;fill-rule:nonzero;stroke:none"
         d="m 220.883,111.988 c 0,-4.547 3.687,-5.676 8.234,-5.676 4.551,0 8.238,1.129 8.238,5.676 0,4.551 -3.687,4.821 -8.238,4.821 -4.547,0 -8.234,-0.27 -8.234,-4.821" /><path
         id="path42"
         style="fill:#781521;fill-opacity:1;fill-rule:nonzero;stroke:none"
         d="m 225.215,110.301 c -0.168,-0.739 -1.184,-1.352 -2.258,-1.363 l -7.566,-0.083 c -1.075,-0.011 -2.203,0.336 -2.504,0.774 -0.301,0.437 -0.164,1.176 0.304,1.648 0.469,0.469 1.727,0.957 2.793,1.086 l 3.813,0.453 c 1.066,0.129 2.762,-0.074 3.769,-0.449 l 0.122,-0.043 c 1.007,-0.375 1.695,-1.285 1.527,-2.023" /></g></g></svg>