<?xml version="1.0" encoding="UTF-8" standalone="no"?>
<svg
   xmlns:dc="http://purl.org/dc/elements/1.1/"
   xmlns:cc="http://creativecommons.org/ns#"
   xmlns:rdf="http://www.w3.org/1999/02/22-rdf-syntax-ns#"
   xmlns:svg="http://www.w3.org/2000/svg"
   xmlns="http://www.w3.org/2000/svg"
   viewBox="0 0 68.09333 26.413334"
   height="26.413334"
   width="68.09333"
   xml:space="preserve"
   id="svg2"
   version="1.1"><metadata
     id="metadata8"><rdf:RDF><cc:Work
         rdf:about=""><dc:format>image/svg+xml</dc:format><dc:type
           rdf:resource="http://purl.org/dc/dcmitype/StillImage" /></cc:Work></rdf:RDF></metadata><defs
     id="defs6"><clipPath
       id="clipPath20"
       clipPathUnits="userSpaceOnUse"><path
         id="path18"
         d="M 0,0 H 510.672 V 198 H 0 Z" /></clipPath></defs><g
     transform="matrix(1.3333333,0,0,-1.3333333,0,26.413333)"
     id="g10"><g
       transform="scale(0.1)"
       id="g12"><g
         id="g14"><g
           clip-path="url(#clipPath20)"
           id="g16"><path
             id="path22"
             style="fill:#4b8ebc;fill-opacity:1;fill-rule:nonzero;stroke:none"
             d="m 438.242,198.137 c -60.363,0 -183.414,0 -241.472,0 -37.278,0 -63.668,-80 -84.278,-80 -14.6834,0 -52.2928,0 -52.2928,0 C 32.8711,118.137 0,99.5 0,72.1719 0,65.0625 0,40.0078 0,40.0078 0,30.4414 18.4727,18.1367 28.0352,18.1367 H 504.055 c 9.562,0 5.945,12.3047 5.945,21.8711 0,0 0,52.9453 0,74.2222 0,41.071 -42.453,83.907 -71.758,83.907" /><path
             id="path24"
             style="fill:#ee2432;fill-opacity:1;fill-rule:nonzero;stroke:none"
             d="m 507.934,108.137 c 0,0 -7.934,4.554 -7.934,-5.977 V 87.7344 c 0,-7.5508 3.73,-19.5977 7.141,-19.5977 H 510 v 40.0003 h -2.066" /><path
             id="path26"
             style="fill:#f0f367;fill-opacity:1;fill-rule:nonzero;stroke:none"
             d="m 20,78.0039 v 19.793 c 0,1.2383 -0.2305,2.4491 -0.4766,3.6131 C 7.73828,92.3672 0,78.1758 0,62.1719 0,59.4453 0,65.9648 0,60.3906 0,60.3164 1.40625,60.1914 2.08203,60.1914 11.9219,60.1914 20,68.168 20,78.0039" /><path
             id="path28"
             style="fill:#a0d1dc;fill-opacity:1;fill-rule:nonzero;stroke:none"
             d="m 380,120.012 c 0,-6.559 -5.316,-11.875 -11.875,-11.875 h -86.25 c -6.559,0 -11.875,5.316 -11.875,11.875 v 46.25 c 0,6.558 5.316,11.875 11.875,11.875 h 86.25 c 6.559,0 11.875,-5.317 11.875,-11.875 v -46.25" /><path
             id="path30"
             style="fill:#a0d1dc;fill-opacity:1;fill-rule:nonzero;stroke:none"
             d="m 505.535,121.363 c 1.461,-6.394 -5.312,-13.226 -11.875,-13.226 H 414.492 C 407.93,108.137 400,123.012 400,129.57 v 43.543 c 0,6.559 7.93,5.024 14.492,5.024 0,0 21.77,0 31.664,0 24.746,0 55.168,-38.34 59.379,-56.774" /><path
             id="path32"
             style="fill:#a0d1dc;fill-opacity:1;fill-rule:nonzero;stroke:none"
             d="m 260,129.57 c 0,-15.183 -1.25,-21.433 -7.812,-21.433 h -91.043 c -6.563,0 -11.879,6.051 -11.879,13.226 0,20.043 30.351,56.774 51.461,56.774 h 51.461 c 6.562,0 7.812,2.5 7.812,-5.024 V 129.57" /><path
             id="path34"
             style="fill:#28292a;fill-opacity:1;fill-rule:nonzero;stroke:none"
             d="m 263.535,93.1367 c 0,-2.3515 -1.773,-5 -3.961,-5 h -27.84 c -2.183,0 -3.957,2.6485 -3.957,5 v 0 c 0,2.3516 1.774,5 3.957,5 h 27.84 c 2.188,0 3.961,-2.6484 3.961,-5 v 0" /><path
             id="path36"
             style="fill:#28292a;fill-opacity:1;fill-rule:nonzero;stroke:none"
             d="m 380,92.0938 c 0,-2.1876 -1.773,-3.9571 -3.957,-3.9571 h -32.086 c -2.184,0 -3.957,1.7695 -3.957,3.9571 v 2.0859 c 0,2.1836 1.773,3.957 3.957,3.957 h 32.086 c 2.184,0 3.957,-1.7734 3.957,-3.957 v -2.0859" /><path
             id="path38"
             style="fill:#2e5f7c;fill-opacity:1;fill-rule:nonzero;stroke:none"
             d="m 140,129.348 c 0,4.55 6.91,8.125 11.465,8.125 l 26.777,0.191 c 4.555,0 1.758,-3.574 1.758,-8.125 v -11.301 c 0,-4.55 4.293,-7.285 -0.258,-7.285 l -31.808,-0.187 c -4.555,0 -7.934,2.73 -7.934,7.281 v 11.301" /><path
             id="path40"
             style="fill:#2e5f7c;fill-opacity:1;fill-rule:nonzero;stroke:none"
             d="m 0,40.0078 c 0,0 0,4.4844 0,10.1953 l 510,4.9805 c 0,-8.9922 0,-15.1758 0,-15.1758 0,-9.5664 3.617,-21.8711 -5.945,-21.8711 H 28.0352 C 18.4727,18.1367 0,30.4414 0,40.0078" /><path
             id="path42"
             style="fill:#28292a;fill-opacity:1;fill-rule:nonzero;stroke:none"
             d="M 403.207,46.0586 C 403.207,20.6172 423.828,0 449.27,0 c 25.437,0 46.05,20.6172 46.05,46.0586 0,25.4375 -20.613,46.0547 -46.05,46.0547 -25.442,0 -46.063,-20.6172 -46.063,-46.0547" /><path
             id="path44"
             style="fill:#4e4e50;fill-opacity:1;fill-rule:nonzero;stroke:none"
             d="m 418.309,46.0586 c 0,-17.0977 13.863,-30.9531 30.961,-30.9531 17.097,0 30.953,13.8554 30.953,30.9531 0,17.1016 -13.856,30.957 -30.953,30.957 -17.098,0 -30.961,-13.8554 -30.961,-30.957" /><path
             id="path46"
             style="fill:#28292a;fill-opacity:1;fill-rule:nonzero;stroke:none"
             d="M 50.1172,46.0586 C 50.1172,20.6172 70.7383,0 96.1797,0 121.617,0 142.23,20.6172 142.23,46.0586 c 0,25.4375 -20.613,46.0547 -46.0503,46.0547 -25.4414,0 -46.0625,-20.6172 -46.0625,-46.0547" /><path
             id="path48"
             style="fill:#4e4e50;fill-opacity:1;fill-rule:nonzero;stroke:none"
             d="m 65.2188,46.0586 c 0,-17.0977 13.8632,-30.9531 30.9609,-30.9531 17.0973,0 30.9533,13.8554 30.9533,30.9531 0,17.1016 -13.856,30.957 -30.9533,30.957 -17.0977,0 -30.9609,-13.8554 -30.9609,-30.957" /></g></g></g></g></svg>