<?xml version="1.0" encoding="UTF-8" standalone="no"?>
<svg
   xmlns:dc="http://purl.org/dc/elements/1.1/"
   xmlns:cc="http://creativecommons.org/ns#"
   xmlns:rdf="http://www.w3.org/1999/02/22-rdf-syntax-ns#"
   xmlns:svg="http://www.w3.org/2000/svg"
   xmlns="http://www.w3.org/2000/svg"
   viewBox="0 0 50.266666 26.413334"
   height="26.413334"
   width="50.266666"
   xml:space="preserve"
   id="svg2"
   version="1.1"><metadata
     id="metadata8"><rdf:RDF><cc:Work
         rdf:about=""><dc:format>image/svg+xml</dc:format><dc:type
           rdf:resource="http://purl.org/dc/dcmitype/StillImage" /></cc:Work></rdf:RDF></metadata><defs
     id="defs6"><clipPath
       id="clipPath20"
       clipPathUnits="userSpaceOnUse"><path
         id="path18"
         d="M 0,0 H 376.984 V 198 H 0 Z" /></clipPath></defs><g
     transform="matrix(1.3333333,0,0,-1.3333333,0,26.413333)"
     id="g10"><g
       transform="scale(0.1)"
       id="g12"><g
         id="g14"><g
           clip-path="url(#clipPath20)"
           id="g16"><path
             id="path22"
             style="fill:#3eb39d;fill-opacity:1;fill-rule:nonzero;stroke:none"
             d="m 257.758,198.137 h -9.34 c -92.461,0 -109.656,-43.071 -145.227,-66.125 C 77.9727,115.664 57.0859,116.406 43.5,113.074 23.9609,108.281 12.7148,96.7734 7.47266,86.6133 2.38281,76.7578 0,50.4023 0,39.3047 0,26.5391 8.55859,18.1367 16.8125,18.1367 H 362.355 c 8.25,0 12.368,13.8281 13.079,22 1.125,13.0313 2.839,35.1172 0,48.1836 C 366.09,131.277 331.996,198.137 257.758,198.137" /><path
             id="path24"
             style="fill:#349485;fill-opacity:1;fill-rule:nonzero;stroke:none"
             d="m 0,39.8711 c 0,1.5195 0.046875,5.1719 0.140625,7.0742 L 376.238,53.5586 c -0.261,-3.9492 -0.547,-10.9024 -0.804,-13.8945 -0.711,-8.1719 -4.829,-21.5274 -13.079,-21.5274 H 16.8125 C 8.55859,18.1367 0,27.1094 0,39.8711" /><path
             id="path26"
             style="fill:#28292a;fill-opacity:1;fill-rule:nonzero;stroke:none"
             d="M 257.141,43.8125 C 257.141,19.6094 276.758,0 300.957,0 c 24.199,0 43.809,19.6094 43.809,43.8125 0,24.1953 -19.61,43.8086 -43.809,43.8086 -24.199,0 -43.816,-19.6133 -43.816,-43.8086" /><path
             id="path28"
             style="fill:#4e4e50;fill-opacity:1;fill-rule:nonzero;stroke:none"
             d="m 271.512,43.8125 c 0,-16.2617 13.183,-29.4453 29.445,-29.4453 16.266,0 29.445,13.1836 29.445,29.4453 0,16.2656 -13.179,29.4453 -29.445,29.4453 -16.262,0 -29.445,-13.1797 -29.445,-29.4453" /><path
             id="path30"
             style="fill:#28292a;fill-opacity:1;fill-rule:nonzero;stroke:none"
             d="M 54.1211,43.8125 C 54.1211,19.6094 73.7383,0 97.9375,0 c 24.1955,0 43.8045,19.6094 43.8045,43.8125 0,24.1953 -19.609,43.8086 -43.8045,43.8086 -24.1992,0 -43.8164,-19.6133 -43.8164,-43.8086" /><path
             id="path32"
             style="fill:#4e4e50;fill-opacity:1;fill-rule:nonzero;stroke:none"
             d="m 68.4883,43.8125 c 0,-16.2656 13.1836,-29.4453 29.4492,-29.4453 16.2615,0 29.4415,13.1797 29.4415,29.4453 0,16.2656 -13.18,29.4453 -29.4415,29.4453 -16.2656,0 -29.4492,-13.1797 -29.4492,-29.4453" /><path
             id="path34"
             style="fill:#ee2432;fill-opacity:1;fill-rule:nonzero;stroke:none"
             d="m 370.988,83.9922 c 4.071,-1.4258 1.664,-5.2617 1.664,-9.8203 v -1.1953 c 0,-4.6524 -0.261,-8.5508 -4.468,-9.8985 0.343,6.875 3.062,14.2422 2.804,20.9141" /><path
             id="path36"
             style="fill:#f0f367;fill-opacity:1;fill-rule:nonzero;stroke:none"
             d="m 24.9805,100.734 c 5.2148,-2.8629 7.1289,-9.4137 4.2617,-14.6324 l -4.25,-7.7383 c -2.8633,-5.2188 -9.418,-7.1289 -14.6328,-4.2617 l -1.08206,0.5937 c -2.19531,1.2031 -3.76172,3.0781 -4.67578,5.2149 0.83985,3.0429 1.78906,5.7578 2.8711,7.8515 2.45312,4.7578 6.25004,10.0586 11.57814,14.8433 1.6484,-0.046 3.3047,-0.429 4.8515,-1.277 l 1.0782,-0.594" /><path
             id="path38"
             style="fill:#a0d1dc;fill-opacity:1;fill-rule:nonzero;stroke:none"
             d="m 252.652,195.035 c 0,0 -87.785,3.102 -133.656,-76.898 h 133.656 v 76.898" /><path
             id="path40"
             style="fill:#a0d1dc;fill-opacity:1;fill-rule:nonzero;stroke:none"
             d="m 272.652,195.035 v -76.898 c 0,0 41.618,0 66.836,0 25.871,0 -26.836,74.851 -66.836,76.898" /><path
             id="path42"
             style="fill:#28292a;fill-opacity:1;fill-rule:nonzero;stroke:none"
             d="m 262.652,104.664 c 0,1.918 -1.554,3.473 -3.472,3.473 h -13.051 c -1.918,0 -3.477,-1.555 -3.477,-3.473 v -3.055 c 0,-1.9176 1.559,-3.4723 3.477,-3.4723 h 13.051 c 1.918,0 3.472,1.5547 3.472,3.4723 v 3.055" /><path
             id="path44"
             style="fill:#349485;fill-opacity:1;fill-rule:nonzero;stroke:none"
             d="m 102.652,129.395 c 0,2.066 10.539,-1.258 13.649,-1.258 h 28.75 c 3.105,0 -2.399,3.324 -2.399,1.258 v -12.52 c 0,-2.063 5.504,-8.738 2.399,-8.738 h -28.75 c -3.11,0 -13.649,6.675 -13.649,8.738 v 12.52" /></g></g></g></g></svg>