<?xml version="1.0" encoding="UTF-8" standalone="no"?>
<svg
   xmlns:dc="http://purl.org/dc/elements/1.1/"
   xmlns:cc="http://creativecommons.org/ns#"
   xmlns:rdf="http://www.w3.org/1999/02/22-rdf-syntax-ns#"
   xmlns:svg="http://www.w3.org/2000/svg"
   xmlns="http://www.w3.org/2000/svg"
   viewBox="0 0 70.480003 30.306667"
   height="30.306667"
   width="70.480003"
   xml:space="preserve"
   id="svg2"
   version="1.1"><metadata
     id="metadata8"><rdf:RDF><cc:Work
         rdf:about=""><dc:format>image/svg+xml</dc:format><dc:type
           rdf:resource="http://purl.org/dc/dcmitype/StillImage" /></cc:Work></rdf:RDF></metadata><defs
     id="defs6"><clipPath
       id="clipPath20"
       clipPathUnits="userSpaceOnUse"><path
         id="path18"
         d="M 0,0 H 528.586 V 227 H 0 Z" /></clipPath></defs><g
     transform="matrix(1.3333333,0,0,-1.3333333,0,30.306667)"
     id="g10"><g
       transform="scale(0.1)"
       id="g12"><g
         id="g14"><g
           clip-path="url(#clipPath20)"
           id="g16"><path
             id="path22"
             style="fill:#28292a;fill-opacity:1;fill-rule:nonzero;stroke:none"
             d="m 482.188,88.4727 c 1.191,-12.625 12.328,-22.3243 23.328,-21.2852 l 3.222,0.3047 c 11,1.039 20.942,12.7344 19.75,25.3594 l -5.828,61.7464 c -1.191,12.621 -13.312,23.992 -24.312,22.953 l -3.223,-0.305 c -11,-1.039 -19.957,-14.402 -18.77,-27.023 l 5.833,-61.7503" /><path
             id="path24"
             style="fill:#99a481;fill-opacity:1;fill-rule:nonzero;stroke:none"
             d="m 472.516,192.535 c 0,0 -4.614,34.723 -30.438,34.723 -25.824,0 -208.086,0 -223.187,0 -9.684,0 -17.004,0.976 -30.746,-16.738 -18.782,-24.211 -43.04,-51.946 -43.04,-51.946 0,0 -94.9917,-12.488 -122.6636,-24.937 C 3.4375,125.086 0,94.4727 0,72.5352 0,40.7148 22.7461,37.2578 22.7461,37.2578 c 0,0 322.0349,0 432.2499,0 9.496,0 30.43,4.086 30.43,24.0664 0,19.9844 -12.91,131.2108 -12.91,131.2108" /><path
             id="path26"
             style="fill:#644046;fill-opacity:1;fill-rule:nonzero;stroke:none"
             d="m 485.414,58.4062 c 0,-19.9804 -20.93,-21.1484 -30.43,-21.1484 -110.214,0 -432.2457,0 -432.2457,0 0,0 -22.500019,0 -22.7265812,30 H 484.918 c 0.312,0 0.496,-6.5117 0.496,-8.8516" /><path
             id="path28"
             style="fill:#a0d1dc;fill-opacity:1;fill-rule:nonzero;stroke:none"
             d="m 145.105,155.559 43.844,51.699 h 104 c 2.039,0 31.563,0.476 31.563,-1.563 v -43.269 c 0,-2.043 4.566,-5.395 2.527,-5.395 l -181.934,-1.472" /><path
             id="path30"
             style="fill:#a0d1dc;fill-opacity:1;fill-rule:nonzero;stroke:none"
             d="m 355.074,207.258 h 81.477 c 10.187,0 17.914,-3.988 17.914,-14.176 l 3.406,-37.191 c 0,-2.039 -1.117,-8.633 -3.156,-8.633 h -99.641 c -2.039,0 -20.562,13.125 -20.562,15.168 v 43.269 c 0,2.039 18.523,1.563 20.562,1.563" /><path
             id="path32"
             style="fill:#28292a;fill-opacity:1;fill-rule:nonzero;stroke:none"
             d="m 324.512,142.785 c 0,2.469 -2,4.473 -4.473,4.473 h -21.055 c -2.468,0 -4.472,-2.004 -4.472,-4.473 v -1.055 c 0,-2.472 2.004,-4.472 4.472,-4.472 h 21.055 c 2.473,0 4.473,2 4.473,4.472 v 1.055" /><path
             id="path34"
             style="fill:#28292a;fill-opacity:1;fill-rule:nonzero;stroke:none"
             d="M 54.6484,56.3359 C 54.6484,25.2188 79.8711,0 110.984,0 c 31.11,0 56.332,25.2188 56.332,56.3359 0,31.1133 -25.222,56.3321 -56.332,56.3321 -31.1129,0 -56.3356,-25.2188 -56.3356,-56.3321" /><path
             id="path36"
             style="fill:#4e4e50;fill-opacity:1;fill-rule:nonzero;stroke:none"
             d="m 73.6797,56.3359 c 0,-20.6015 16.7031,-37.3047 37.3043,-37.3047 20.598,0 37.301,16.7032 37.301,37.3047 0,20.5977 -16.703,37.3008 -37.301,37.3008 -20.6012,0 -37.3043,-16.7031 -37.3043,-37.3008" /><path
             id="path38"
             style="fill:#28292a;fill-opacity:1;fill-rule:nonzero;stroke:none"
             d="M 340.871,56.3359 C 340.871,25.2188 366.094,0 397.203,0 c 31.113,0 56.336,25.2188 56.336,56.3359 0,31.1133 -25.223,56.3321 -56.336,56.3321 -31.109,0 -56.332,-25.2188 -56.332,-56.3321" /><path
             id="path40"
             style="fill:#4e4e50;fill-opacity:1;fill-rule:nonzero;stroke:none"
             d="m 359.902,56.3359 c 0,-20.6015 16.703,-37.3047 37.301,-37.3047 20.602,0 37.305,16.7032 37.305,37.3047 0,20.5977 -16.703,37.3008 -37.305,37.3008 -20.598,0 -37.301,-16.7031 -37.301,-37.3008" /><path
             id="path42"
             style="fill:#f0f367;fill-opacity:1;fill-rule:nonzero;stroke:none"
             d="m 12.8945,117.258 c 7.8203,0 11.6172,-2.977 11.6172,-12.305 v -1.418 c 0,-9.3241 -3.7969,-26.2772 -11.6172,-26.2772 H 0.308594 c 0.749996,10 3.156246,30.0002 9.246096,40.0002 h 3.33981" /><path
             id="path44"
             style="fill:#99a481;fill-opacity:1;fill-rule:nonzero;stroke:none"
             d="m 194.512,147.258 h 10 v 60 h -10 z" /><path
             id="path46"
             style="fill:#644046;fill-opacity:1;fill-rule:nonzero;stroke:none"
             d="m 194.512,154.492 c 0,-2.137 11.769,-7.234 13.308,-7.234 h 31.532 c 1.539,0 0.238,5.097 0.238,7.234 l 0.062,11.531 c 0,2.137 1.239,1.235 -0.3,1.235 H 207.82 c -1.539,0 -13.308,6.043 -13.308,3.906 v -16.672" /><path
             id="path48"
             style="fill:#ee2432;fill-opacity:1;fill-rule:nonzero;stroke:none"
             d="m 471.48,193.766 c 0,0 -9.25,-0.789 -7.992,-11.844 l 2.559,-33.801 c 0.898,-7.922 4.719,-10.559 9.379,-10.031 l 3.191,0.285 -6.183,55.5 -0.954,-0.109" /></g></g></g></g></svg>